<svg width="37" height="8" viewBox="0 0 37 8" fill="none" xmlns="http://www.w3.org/2000/svg">
<path d="M0.797363 1.06256V6.51904L1.63452 6.51683C2.36663 6.51461 2.4833 6.51351 2.56099 6.50438C2.82032 6.47508 2.99947 6.43693 3.20351 6.36698C3.45236 6.28287 3.68344 6.15331 3.88502 5.98489C3.99087 5.8918 4.0888 5.79008 4.1778 5.68077C4.39152 5.40015 4.53307 5.09022 4.62597 4.69929C4.76199 4.12975 4.75867 3.37719 4.62044 2.81264C4.38073 1.84 3.72853 1.24946 2.72853 1.0985C2.50486 1.06588 2.52975 1.06698 1.63231 1.06367L0.797363 1.06256ZM1.723 1.8447H1.9627C2.28037 1.8447 2.41335 1.85466 2.58476 1.88977C3.1919 2.01584 3.56984 2.417 3.71222 3.08413C3.78687 3.43138 3.79765 3.92489 3.73821 4.30476C3.69619 4.58068 3.61518 4.83006 3.50487 5.02359C3.42578 5.15728 3.32719 5.27841 3.21236 5.38301C2.9898 5.57239 2.70696 5.68519 2.35695 5.72113C2.30304 5.72666 2.17116 5.73247 1.99753 5.73496L1.723 5.738V1.84443V1.8447ZM5.76089 3.78969V1.06256H6.68652V6.51793H5.76089V3.78969ZM9.34122 6.61387C8.7817 6.5761 8.2489 6.36047 7.82062 5.99844C7.73214 5.92407 7.63151 5.82702 7.63151 5.81597C7.63151 5.81237 7.75039 5.66252 7.89499 5.48337L8.15764 5.15879L8.18003 5.17814C8.28288 5.26938 8.30997 5.29288 8.34979 5.32578C8.6293 5.5464 8.94365 5.69293 9.26325 5.75155C9.36914 5.7709 9.5765 5.77864 9.68902 5.7662C9.92872 5.74132 10.1187 5.66252 10.245 5.53756C10.3033 5.47895 10.3368 5.4325 10.3694 5.36061C10.4698 5.14082 10.4449 4.86822 10.31 4.69238C10.216 4.57073 10.0506 4.46456 9.74293 4.32826C9.50323 4.22237 8.80016 3.89779 8.73104 3.86185C8.23837 3.60031 7.95664 3.23426 7.87453 2.7496C7.85832 2.61652 7.85461 2.48221 7.86347 2.34844C7.90577 1.91327 8.14132 1.52676 8.5129 1.27572C8.75344 1.11315 9.02162 1.01528 9.34647 0.974364C9.46425 0.958881 9.73519 0.958882 9.85187 0.973535C10.2701 1.02586 10.6658 1.19229 10.9956 1.4546C11.1026 1.54141 11.2116 1.64398 11.2074 1.65642C11.2063 1.65974 11.0996 1.79826 10.9696 1.96607L10.7344 2.27047L10.7139 2.2525C10.6826 2.22571 10.6505 2.19981 10.6177 2.17481C10.3639 1.97299 10.109 1.85936 9.81205 1.8165C9.71059 1.80185 9.49964 1.80185 9.40923 1.8165C9.20409 1.84913 9.057 1.91769 8.94918 2.03049C8.84854 2.13555 8.79795 2.25582 8.79159 2.41258C8.78385 2.57155 8.82808 2.70343 8.92983 2.81706C9.03212 2.93318 9.18971 3.02773 9.50102 3.16182C9.68571 3.242 10.2892 3.50797 10.3714 3.54612C10.6415 3.67136 10.8347 3.80324 10.9956 3.97327C11.2472 4.23924 11.3683 4.56603 11.3683 4.98433C11.3694 5.25251 11.3241 5.45876 11.2149 5.68298C11.1439 5.83133 11.0479 5.9663 10.9309 6.08193C10.6351 6.38384 10.2268 6.563 9.73105 6.60806C9.63069 6.61718 9.43411 6.6205 9.34122 6.61359V6.61387ZM14.2389 6.61387C13.66 6.57876 13.1458 6.34569 12.7615 5.94314C12.4278 5.59396 12.1988 5.12174 12.093 4.56631C12.0145 4.13255 12.0039 3.68922 12.0617 3.25223C12.1372 2.70094 12.3349 2.20633 12.6318 1.82646C12.6965 1.74324 12.8369 1.59422 12.9146 1.52455C13.2282 1.2452 13.6149 1.06105 14.0294 0.993717C14.1773 0.968834 14.2475 0.963306 14.4192 0.963306C14.5854 0.963306 14.6396 0.967729 14.767 0.9904C15.172 1.06367 15.5727 1.28789 15.8751 1.60915L15.9149 1.65062L15.8978 1.67218C15.8889 1.68324 15.7745 1.81871 15.644 1.97188L15.4062 2.2525L15.3482 2.19721C15.1126 1.9763 14.892 1.86046 14.6243 1.8165C14.5456 1.80268 14.3457 1.80185 14.2649 1.81291C13.9655 1.85576 13.7195 1.9799 13.511 2.19168C13.1383 2.57044 12.9484 3.1856 12.9774 3.91936C12.9926 4.31361 13.0584 4.63598 13.1792 4.91439C13.3523 5.31112 13.6243 5.58152 13.9721 5.70316C14.1134 5.75293 14.2398 5.77201 14.4095 5.77201C14.673 5.77201 14.8889 5.7145 15.1029 5.58594C15.2152 5.51848 15.3664 5.39103 15.4668 5.27933C15.4793 5.26374 15.4938 5.2498 15.5099 5.23786C15.5176 5.24118 16.0164 5.8226 16.0164 5.82813C16.0164 5.84057 15.7767 6.08304 15.7067 6.14165C15.2865 6.49084 14.8016 6.6476 14.2387 6.61387H14.2389ZM18.6398 0.963306C18.4389 0.963306 18.3664 0.968835 18.2066 0.99593C17.1256 1.18531 16.4322 2.09353 16.3382 3.44714C16.3222 3.68021 16.3252 3.95309 16.3471 4.18975C16.401 4.77228 16.576 5.29841 16.8502 5.69653C17.1773 6.17317 17.6503 6.48088 18.2088 6.58124C18.2918 6.59562 18.4411 6.61387 18.5157 6.61608C19.3612 6.65091 20.0535 6.28459 20.4864 5.57239C20.567 5.43175 20.6378 5.2857 20.6982 5.13529C20.8547 4.71367 20.9249 4.29674 20.9249 3.77283C20.926 3.49912 20.9141 3.33102 20.8796 3.10791C20.7004 1.94589 20.0427 1.1773 19.0739 0.999247C18.9141 0.96994 18.8361 0.963306 18.6398 0.963306V0.963306ZM18.631 1.80296C18.6473 1.80296 18.6633 1.80406 18.6797 1.80406C18.9625 1.8165 19.2044 1.91465 19.4118 2.10044C19.4864 2.1679 19.5284 2.21545 19.5923 2.30448C19.8287 2.63127 19.9531 3.06174 19.9758 3.62298C20.0015 4.2843 19.861 4.87485 19.5868 5.26136C19.3913 5.53645 19.1463 5.69764 18.8353 5.75735C18.7737 5.76979 18.5423 5.77394 18.4787 5.7662C18.049 5.70538 17.7228 5.44052 17.5102 4.98102C17.3697 4.67883 17.2973 4.33849 17.281 3.90802C17.2464 3.03022 17.4983 2.32936 17.9625 2.0081C18.1588 1.87237 18.3923 1.80071 18.631 1.80296V1.80296ZM21.9575 1.06256V6.51793H22.8829V4.38245L23.2771 4.38466L23.6725 4.38577L24.2329 5.45185L24.7922 6.51793H25.312C25.8041 6.51793 25.8301 6.51793 25.8248 6.5077C25.8215 6.50217 25.5428 5.98931 25.2039 5.36974C24.9984 4.99426 24.7939 4.61825 24.5904 4.24173C24.5915 4.24034 24.6216 4.2268 24.6595 4.21214C25.1931 3.99594 25.5171 3.58787 25.6056 3.01888C25.6249 2.88922 25.6305 2.79688 25.6272 2.62353C25.6216 2.3877 25.6012 2.24918 25.5417 2.06422C25.3711 1.53229 24.9296 1.20328 24.2492 1.0985C24.0278 1.06477 24.0839 1.06588 22.9791 1.06367L21.9575 1.06256V1.06256ZM22.8829 1.83779L23.3667 1.84C23.8906 1.84221 23.9141 1.84332 24.0772 1.87843C24.2124 1.90663 24.3388 1.95723 24.4284 2.02026C24.5149 2.07998 24.599 2.18366 24.6432 2.28623C24.7275 2.47783 24.7372 2.78333 24.6681 3.01087C24.6351 3.1278 24.5735 3.23468 24.4889 3.3219C24.3302 3.48778 24.1054 3.57902 23.7881 3.60722C23.7458 3.61054 23.5384 3.61275 23.2987 3.61275H22.8829V1.83779V1.83779ZM26.7093 1.06256V6.51904L27.5462 6.51683C28.4469 6.51461 28.4265 6.51461 28.6446 6.48199C28.8602 6.45004 29.0711 6.39135 29.2722 6.30726C29.3714 6.26441 29.3994 6.24865 29.3952 6.23731C29.3895 6.21918 29.3849 6.20071 29.3814 6.18202C29.3607 6.0999 29.3551 6.04101 29.3593 5.9354C29.3629 5.82592 29.3725 5.77201 29.4038 5.67939C29.5041 5.3808 29.7527 5.16459 30.0529 5.11262C30.1469 5.09686 30.2763 5.10156 30.3844 5.12644C30.4049 5.13059 30.4016 5.13639 30.4491 5.00562C30.6048 4.56824 30.6684 3.98461 30.6241 3.4054C30.542 2.33378 30.0767 1.60224 29.2622 1.2677C29.0623 1.18613 28.8529 1.12966 28.6391 1.09961C28.4168 1.06588 28.4417 1.06698 27.5431 1.06477L26.7093 1.06256V1.06256ZM27.6338 1.8447H27.8735C28.192 1.8447 28.3239 1.85466 28.4956 1.88977C29.1038 2.01584 29.4815 2.417 29.6241 3.08413C29.6977 3.43138 29.7085 3.92489 29.6501 4.30476C29.6078 4.58068 29.5268 4.83006 29.4157 5.02359C29.3466 5.14524 29.2221 5.29868 29.1229 5.38301C28.9017 5.57239 28.6175 5.68519 28.2686 5.72113C28.2136 5.72666 28.0831 5.73247 27.9081 5.73496L27.6338 5.738V1.84443V1.8447Z" fill="white" stroke="white" stroke-width="0.339932"/>
<path d="M30.905 5.96915C30.905 6.38607 30.5821 6.72309 30.1845 6.72309C29.7861 6.72309 29.4629 6.38607 29.4629 5.96915C29.4629 5.55223 29.7861 5.21521 30.1845 5.21521C30.5821 5.21521 30.905 5.55223 30.905 5.96915Z" fill="#499A6C" stroke="white" stroke-width="0.339932"/>
<path d="M30.084 7.59426C29.7559 7.56717 29.4316 7.42285 29.1747 7.1895C29.016 7.04657 28.8808 6.85829 28.8076 6.67803C28.7763 6.60034 28.7741 6.58209 28.7946 6.57988C28.841 6.57435 29.0127 6.53703 29.1001 6.51463C29.2167 6.48422 29.272 6.46487 29.3765 6.41648C29.4468 6.38607 29.4512 6.38386 29.4575 6.3952C29.5401 6.54659 29.6656 6.67012 29.8183 6.75019C29.9428 6.81322 30.0462 6.83811 30.1844 6.83811C30.3171 6.83811 30.4244 6.81322 30.5388 6.75572C30.7492 6.65093 30.8982 6.47399 30.9751 6.23954C30.9889 6.19807 31.0182 6.04905 31.029 5.97026C31.0453 5.84529 31.0464 5.72917 31.0464 3.89118V2.0001H31.9428V3.91468C31.9428 5.17567 31.9406 5.85884 31.9361 5.91386C31.9112 6.27465 31.8098 6.60587 31.6436 6.87322C31.5786 6.97662 31.5214 7.04988 31.4374 7.1378C31.1836 7.40156 30.854 7.55362 30.4631 7.58846C30.3608 7.59758 30.1562 7.6009 30.0843 7.59398L30.084 7.59426ZM33.8446 7.58846C33.2436 7.53718 32.6785 7.28096 32.2438 6.86271L32.178 6.79968L32.2051 6.76595C32.2203 6.74659 32.3401 6.59923 32.4697 6.43805L32.7075 6.14499L32.7711 6.2036C33.0863 6.48975 33.4612 6.67913 33.8391 6.74217C33.9494 6.76014 34.188 6.76152 34.2925 6.74438C34.6146 6.69268 34.8206 6.55859 34.9212 6.33658C34.9547 6.26332 34.971 6.18563 34.9751 6.08748C34.9851 5.77507 34.8598 5.59508 34.5079 5.41482C34.4482 5.38441 34.3597 5.34156 34.3121 5.3211C33.9692 5.16655 33.6276 5.00914 33.2873 4.84888C32.799 4.59314 32.5043 4.21216 32.4288 3.74243C32.2873 2.85993 32.8889 2.11041 33.8477 1.97411C34.0815 1.94236 34.3189 1.94843 34.5507 1.99208C34.9889 2.07642 35.3925 2.2882 35.7108 2.60087L35.7528 2.64124L35.525 2.93651C35.3998 3.0977 35.2917 3.23649 35.2862 3.24202C35.2754 3.25307 35.2754 3.25308 35.2452 3.22736C35.0944 3.09557 34.9244 2.98761 34.741 2.90721C34.5565 2.82923 34.3579 2.79017 34.1576 2.79247C33.9956 2.79247 33.8974 2.80574 33.7808 2.84417C33.5507 2.92075 33.4048 3.06839 33.3522 3.27906C33.3326 3.35814 33.3304 3.482 33.3467 3.55526C33.3898 3.75017 33.5181 3.88979 33.7808 4.02748C33.8684 4.07365 33.919 4.09743 34.0854 4.16959C34.807 4.48062 35.0835 4.61001 35.227 4.70373C35.6306 4.96832 35.838 5.29179 35.8988 5.75378C35.9115 5.84861 35.9126 6.08527 35.9019 6.16987C35.8565 6.51353 35.7227 6.80078 35.4957 7.03855C35.1888 7.36313 34.77 7.5456 34.2386 7.58873C34.1523 7.59647 33.932 7.59537 33.8446 7.58873V7.58846Z" fill="#33B5E5" stroke="white" stroke-width="0.339932"/>
</svg>
