<svg width="28" height="28" viewBox="0 0 28 28" fill="none" xmlns="http://www.w3.org/2000/svg">
<path d="M8.72548 17.2971H8.36444V15.2294C8.36444 15.0661 8.37515 14.8673 8.39444 14.6327H8.38629C8.35244 14.7698 8.32137 14.8692 8.29416 14.9307L7.24382 17.2971H7.06791L6.01565 14.9479C5.98608 14.8823 5.95501 14.7767 5.92351 14.6327H5.9158C5.92694 14.7561 5.93315 14.956 5.93315 15.2335V17.2971H5.58476V14.2179H6.0615L7.0062 16.365C7.07734 16.5266 7.12341 16.6496 7.14569 16.7336H7.16047C7.20593 16.6063 7.25509 16.4804 7.30789 16.356L8.27316 14.2179H8.72526V17.2971H8.72548V17.2971ZM9.8371 17.2971H9.48591V15.0981H9.8371V17.2971ZM9.89773 14.3098C9.89773 14.3747 9.87502 14.4287 9.82981 14.4733C9.80853 14.495 9.78303 14.5121 9.75488 14.5236C9.72672 14.5351 9.69651 14.5407 9.66611 14.5401C9.63616 14.5406 9.6064 14.5351 9.57857 14.5241C9.55073 14.513 9.52536 14.4965 9.50391 14.4756C9.48172 14.4542 9.46428 14.4284 9.45273 14.3998C9.44117 14.3713 9.43576 14.3406 9.43684 14.3098C9.43684 14.2464 9.45913 14.1922 9.50391 14.1482C9.54869 14.1043 9.60333 14.0829 9.66611 14.0829C9.73039 14.0829 9.78546 14.1041 9.82981 14.1482C9.87502 14.1922 9.89773 14.2464 9.89773 14.3098ZM12.0314 17.1953C11.863 17.2988 11.6616 17.35 11.4289 17.35C11.1135 17.35 10.86 17.2455 10.6659 17.0363C10.4775 16.8334 10.3828 16.5716 10.3828 16.2506C10.3828 15.8904 10.4857 15.5988 10.6935 15.377C10.9001 15.1551 11.178 15.0443 11.5274 15.0443C11.7186 15.0443 11.8881 15.0816 12.0363 15.1559V15.5174C11.8722 15.4021 11.6986 15.3449 11.5124 15.3449C11.2885 15.3449 11.1062 15.4231 10.965 15.5791C10.8178 15.7387 10.7434 15.9524 10.7434 16.2187C10.7434 16.4745 10.8114 16.6772 10.9466 16.8266C11.0822 16.9753 11.2628 17.0498 11.4904 17.0498C11.6826 17.0498 11.8628 16.9866 12.0312 16.8608V17.1953H12.0314V17.1953ZM13.7113 15.4548C13.6493 15.407 13.56 15.3839 13.4423 15.3839C13.2992 15.3839 13.179 15.4478 13.0817 15.577C12.9712 15.7212 12.9165 15.9206 12.9165 16.1758V17.2969H12.5643V15.0981H12.9165V15.5515H12.9249C12.9765 15.391 13.0565 15.2676 13.1632 15.1801C13.258 15.102 13.3771 15.0595 13.5 15.0599C13.5938 15.0599 13.6633 15.07 13.7108 15.0899L13.7113 15.4548V15.4548ZM15.6727 16.2015C15.6727 15.9202 15.6092 15.7051 15.482 15.5575C15.3588 15.4156 15.1863 15.3449 14.9643 15.3449C14.7455 15.3449 14.5698 15.4165 14.4387 15.5598C14.3001 15.713 14.2306 15.9294 14.2306 16.2101C14.2306 16.4732 14.2966 16.6798 14.4299 16.827C14.5623 16.9753 14.7406 17.0496 14.9643 17.0496C15.1957 17.0496 15.3729 16.9742 15.4944 16.8244C15.6133 16.6779 15.6727 16.4705 15.6727 16.2015ZM16.0337 16.1893C16.0337 16.5397 15.9347 16.8212 15.7376 17.0323C15.5396 17.2442 15.2733 17.35 14.9384 17.35C14.6084 17.35 14.3455 17.2442 14.1531 17.0323C13.9643 16.8281 13.8696 16.5585 13.8696 16.2232C13.8696 15.8405 13.9767 15.5457 14.1916 15.3363C14.3907 15.1422 14.6566 15.0443 14.99 15.0443C15.3178 15.0443 15.5741 15.1465 15.7586 15.349C15.9413 15.5525 16.0337 15.8328 16.0337 16.1893ZM17.7791 16.7087C17.7791 16.8887 17.712 17.0378 17.5773 17.1567C17.4301 17.2855 17.228 17.3498 16.9739 17.3498C16.7658 17.3498 16.5835 17.3063 16.4286 17.2174V16.839C16.6009 16.9791 16.7911 17.0496 17 17.0496C17.2788 17.0496 17.4183 16.947 17.4183 16.7424C17.4195 16.7023 17.4118 16.6626 17.3958 16.6259C17.3799 16.5892 17.356 16.5564 17.3259 16.53C17.264 16.4739 17.1436 16.4066 16.9649 16.328C16.7808 16.2474 16.6495 16.1647 16.5721 16.0788C16.4792 15.9768 16.4324 15.8446 16.4324 15.6815C16.4324 15.499 16.5055 15.3471 16.6497 15.2262C16.7943 15.1047 16.9801 15.0441 17.2081 15.0441C17.3827 15.0441 17.5393 15.0781 17.6782 15.1471V15.5015C17.5331 15.397 17.3673 15.3447 17.1792 15.3447C17.0626 15.3447 16.969 15.3738 16.8991 15.4302C16.8286 15.488 16.7933 15.5617 16.7933 15.6517C16.7933 15.7492 16.8228 15.8249 16.8815 15.8791C16.9338 15.929 17.0446 15.9903 17.2117 16.0616C17.3994 16.1403 17.5351 16.2219 17.6178 16.3053C17.7249 16.4111 17.7791 16.5454 17.7791 16.7087M19.9304 16.2015C19.9304 15.9202 19.8667 15.7051 19.7392 15.5575C19.616 15.4156 19.4433 15.3449 19.2218 15.3449C19.003 15.3449 18.8273 15.4165 18.6955 15.5598C18.5571 15.713 18.4879 15.9294 18.4879 16.2101C18.4879 16.4732 18.5541 16.6798 18.6859 16.827C18.82 16.9753 18.9985 17.0496 19.2218 17.0496C19.4536 17.0496 19.6302 16.9742 19.7519 16.8244C19.8708 16.6779 19.9304 16.4705 19.9304 16.2015M20.292 16.1893C20.292 16.5397 20.1922 16.8212 19.9946 17.0323C19.7975 17.2442 19.5312 17.35 19.1961 17.35C18.8657 17.35 18.603 17.2442 18.4103 17.0323C18.2216 16.8281 18.1269 16.5585 18.1269 16.2232C18.1269 15.8405 18.2349 15.5457 18.4487 15.3363C18.6475 15.1422 18.9139 15.0443 19.2475 15.0443C19.5755 15.0443 19.8314 15.1465 20.0154 15.349C20.1986 15.5525 20.292 15.8328 20.292 16.1893M21.8429 14.3509C21.7713 14.3117 21.6907 14.2918 21.6091 14.2931C21.3627 14.2931 21.2404 14.4482 21.2404 14.7591V15.0981H21.7557V15.3963H21.2404V17.2971H20.8879V15.3963H20.514V15.0981H20.8879V14.7415C20.8879 14.4996 20.962 14.3096 21.1129 14.1729C21.2421 14.0539 21.4 13.9948 21.5879 13.9948C21.6968 13.9948 21.7812 14.0079 21.8427 14.033V14.3509H21.8429ZM23.2322 17.275C23.1491 17.3226 23.0385 17.3464 22.9016 17.3464C22.5178 17.3464 22.3259 17.13 22.3259 16.6974V15.3968H21.9485V15.0981H22.3259V14.5615L22.6785 14.4473V15.0981H23.232V15.3968H22.6785V16.6376C22.6785 16.785 22.7025 16.8904 22.7531 16.9515C22.8039 17.0147 22.887 17.0455 23.0044 17.0455C23.0921 17.0455 23.1679 17.0222 23.2322 16.9746V17.275ZM4.20488 25.8793C4.20488 26.0518 4.1436 26.2007 4.01911 26.3265C3.96108 26.3873 3.89112 26.4354 3.81362 26.4679C3.73611 26.5003 3.65273 26.5164 3.56872 26.5151C3.48637 26.5163 3.40469 26.5001 3.329 26.4676C3.25332 26.4351 3.18533 26.387 3.12947 26.3265C3.07131 26.2676 3.02542 26.1978 2.99449 26.121C2.96355 26.0442 2.94818 25.9621 2.94927 25.8793C2.94927 25.7021 3.00905 25.5526 3.12947 25.4287C3.18563 25.3688 3.25374 25.3213 3.3294 25.2893C3.40506 25.2573 3.48658 25.2415 3.56872 25.243C3.74506 25.243 3.89526 25.3055 4.01911 25.4311C4.1436 25.5571 4.20488 25.7066 4.20488 25.8793ZM12.0858 26.3859H10.9378L6.77072 19.9506C6.6705 19.7901 6.58591 19.6204 6.5181 19.4438H6.48382C6.5136 19.6161 6.5286 19.9861 6.5286 20.5527V26.3859H5.5824V18.3123H6.81058L10.8527 24.646C11.0136 24.8974 11.1238 25.0773 11.1795 25.1858H11.2018C11.1643 24.9537 11.1448 24.5575 11.1448 23.9987V18.3123H12.0854V26.3859H12.0858ZM18.1526 26.3859H13.8735V18.3123H17.9668V19.1679H14.8192V21.8535H17.7358V22.7095H14.819V25.5301H18.1526V26.3859ZM24.6429 19.1679H22.3173V26.3861H21.3713V19.1679H19.0411V18.3119H24.6429V19.1679Z" fill="white"/>
<path fill-rule="evenodd" clip-rule="evenodd" d="M17.6759 10.471C17.7786 10.207 17.8949 9.94713 17.9817 9.67801C18.4719 8.15736 18.9575 6.63542 19.4398 5.1122C19.6251 4.52703 19.8282 3.95087 20.1929 3.44799C20.7697 2.65327 21.5732 2.23695 22.5241 2.09146C22.8987 2.03581 23.2768 2.00674 23.6555 2.00447C24.784 1.99376 25.913 2.00126 27.0417 2.00233C27.1017 2.00233 27.1617 2.00854 27.2468 2.01347C27.2192 2.07861 27.2042 2.12596 27.1802 2.1686C26.7613 2.91725 26.3505 3.6704 25.9192 4.41154C25.1682 5.70186 24.4159 6.99175 23.6413 8.26792C23.1444 9.08621 22.6056 9.87921 21.9943 10.6193C21.5432 11.1652 21.0684 11.6872 20.4631 12.0699C20.0506 12.3306 19.6101 12.4832 19.11 12.4806C17.3363 12.471 15.5626 12.4781 13.7889 12.4755C13.2616 12.4746 12.8101 12.2739 12.427 11.9177C11.8779 11.4076 11.55 10.7581 11.2818 10.0733C10.7924 8.82309 10.5183 7.51263 10.2038 6.21353C10.0564 5.60544 9.88882 5.00206 9.72919 4.39697C9.71891 4.35776 9.69877 4.32112 9.67563 4.26477L9.552 4.3809C8.86034 5.06806 8.25118 5.82528 7.70609 6.63028C7.5576 6.84969 7.50768 7.13895 7.42475 7.39971C7.11964 8.35748 6.84152 9.32447 6.51112 10.2732C6.19465 11.1822 5.62727 11.9051 4.74042 12.3323C4.22618 12.5816 3.66426 12.7172 3.09292 12.7298C2.24014 12.7487 1.38693 12.7508 0.533932 12.7585C0.32995 12.7605 0.320522 12.7437 0.37366 12.5464C0.739414 11.1884 1.20287 9.86506 1.78354 8.58418C2.3822 7.26279 3.08735 6.00269 3.9757 4.85186C4.58058 4.06829 5.24866 3.34535 6.08473 2.79876C6.50876 2.52171 6.95958 2.30273 7.47254 2.24509C7.55696 2.23545 7.64245 2.22945 7.7273 2.22945C9.54385 2.22859 11.3604 2.24702 13.1767 2.22109C14.151 2.20717 14.8564 2.61856 15.3846 3.40278C15.713 3.89045 15.9481 4.4229 16.1458 4.97292C16.5446 6.0824 16.7925 7.2328 17.0725 8.37505C17.2328 9.02878 17.4113 9.67801 17.5823 10.3292C17.5951 10.378 17.6159 10.4247 17.6333 10.4723L17.6759 10.471V10.471Z" fill="white"/>
</svg>
