<svg width="32" height="32" viewBox="0 0 32 32" fill="none" xmlns="http://www.w3.org/2000/svg">
<path d="M30.8361 14.9152L17.5025 1.58235C16.7351 0.814511 15.4898 0.814511 14.7212 1.58235L11.953 4.3513L15.4651 7.86341C16.2815 7.58787 17.2173 7.77269 17.8678 8.4232C18.1778 8.73348 18.3942 9.12475 18.4923 9.55225C18.5904 9.97976 18.5662 10.4262 18.4225 10.8406L21.8073 14.226C22.6262 13.9437 23.5714 14.1261 24.225 14.7812C25.1395 15.6949 25.1395 17.1761 24.225 18.0903C24.0077 18.3077 23.7497 18.4802 23.4657 18.5979C23.1817 18.7155 22.8774 18.7761 22.57 18.7761C22.2626 18.7761 21.9582 18.7155 21.6742 18.5979C21.3902 18.4802 21.1322 18.3077 20.9149 18.0903C20.5884 17.7636 20.3659 17.3477 20.2753 16.8948C20.1846 16.4419 20.23 15.9723 20.4057 15.5451L17.2492 12.3884L17.2487 20.696C17.4777 20.8088 17.6868 20.9581 17.8678 21.1382C18.782 22.0519 18.782 23.5327 17.8678 24.4483C16.9536 25.362 15.4719 25.362 14.5586 24.4483C13.6447 23.5329 13.5697 22.0522 14.4834 21.1382C14.7093 20.9125 14.9321 20.7419 15.1741 20.6278V12.2433C14.9321 12.1291 14.7096 11.9597 14.4831 11.7326C13.791 11.0407 13.6616 10.0247 14.0167 9.1741L10.5736 5.71158L1.44034 14.8535C0.672266 15.6221 0.677105 16.8675 1.44518 17.6355L14.7809 30.9684C15.5485 31.7362 16.7949 31.7362 17.5637 30.9684L30.8351 17.6975C31.6032 16.9291 31.6039 15.683 30.8361 14.9152V14.9152Z" fill="white"/>
</svg>
