<svg width="28" height="21" viewBox="0 0 28 21" fill="none" xmlns="http://www.w3.org/2000/svg">
<path d="M27.7676 13.5979C27.4634 11.7031 26.2279 10.1116 22.5682 8.62763C21.2968 8.04339 19.8795 7.62503 19.4572 6.66158C19.3072 6.10089 19.2873 5.78504 19.3822 5.44565C19.6546 4.34418 20.9694 4.0008 22.0115 4.31664C22.6826 4.54158 23.318 5.0588 23.7012 5.88391C25.4934 4.72339 25.4897 4.73102 26.7411 3.93345C26.283 3.22313 26.0385 2.89534 25.7385 2.59144C24.6606 1.38746 23.1919 0.767384 20.843 0.814827L19.6194 0.973079C18.4469 1.26935 17.3296 1.88478 16.6743 2.70989C14.7083 4.94069 15.2689 8.84494 17.6613 10.4517C20.0182 12.2207 23.4805 12.6231 23.9228 14.2773C24.3531 16.3024 22.4345 16.958 20.5275 16.7251C19.1221 16.4328 18.3405 15.7185 17.4954 14.4196C15.9401 15.3197 15.9401 15.3197 14.341 16.2394C14.7202 17.0685 15.1187 17.4437 15.7543 18.162C18.7628 21.2136 26.2913 21.0636 27.6416 16.4448C27.6963 16.2862 28.0599 15.2285 27.7676 13.5979V13.5979ZM12.2127 1.05934H8.32802L8.3121 11.1026C8.3121 13.2385 8.42258 15.1966 8.07522 15.7968C7.5069 16.9772 6.03418 16.8309 5.36301 16.602C4.6799 16.2663 4.33254 15.7888 3.93011 15.114C3.81963 14.9203 3.73669 14.7703 3.70882 14.7587L0.550385 16.6929C1.07557 17.7708 1.84926 18.7064 2.84025 19.3142C4.3206 20.2027 6.31021 20.4751 8.39106 19.9973C9.74534 19.6029 10.9138 18.7857 11.5256 17.5419C12.4101 15.9113 12.2203 13.9376 12.2124 11.7545C12.2323 8.19302 12.2127 4.63215 12.2127 1.05934V1.05934Z" fill="white"/>
</svg>
