<svg width="38" height="38" viewBox="0 0 38 38" fill="none" xmlns="http://www.w3.org/2000/svg">
<path d="M22.1068 5.07621C22.0501 5.09323 21.7523 5.1925 21.4374 5.29461C19.7526 5.84487 18.5585 6.48307 18.2635 6.99079C18.15 7.18366 18.1302 7.3425 18.1954 7.4985C18.2692 7.67436 18.4053 7.81051 18.7797 8.0743C18.9556 8.1991 19.2534 8.45437 19.4491 8.64725C20.3766 9.57192 20.8248 10.7065 20.7737 11.9885C20.717 13.4323 20.0391 14.876 18.7457 16.3169C18.2947 16.8218 17.8295 17.2416 16.9417 17.9535C16.2014 18.5463 15.7986 18.9321 15.5235 19.3037C14.6811 20.4496 14.908 21.4707 16.1901 22.3244C17.3218 23.0789 19.3158 23.7058 21.67 24.0461C22.4585 24.1596 23.3492 24.2333 23.5647 24.2021L23.7151 24.1795L23.9505 23.754C25.1446 21.6068 25.7459 19.5788 25.8197 17.4827C25.8509 16.5467 25.7346 15.4405 25.5332 14.7938C25.4963 14.6775 25.4708 14.5782 25.4737 14.5754C25.4765 14.5725 25.8112 14.4704 26.214 14.3513C28.3384 13.7188 30.3948 13.2195 32.0938 12.9246C32.4257 12.8678 32.7065 12.8083 32.7207 12.7941C32.8115 12.7062 32.5477 12.292 32.1165 11.8496C30.5281 10.2101 27.7201 8.96209 24.4242 8.42885C23.7888 8.32674 23.7122 8.28986 23.4768 7.97786C23.1024 7.48149 22.7507 6.63623 22.2713 5.08472C22.2572 5.03366 22.243 5.03366 22.1068 5.07621V5.07621ZM22.3252 5.66051C22.5096 6.16539 22.6231 6.55965 22.6231 6.69864V6.80926L22.4671 6.79224C21.619 6.69296 20.2632 6.48307 19.9738 6.40648C19.9001 6.38663 19.8576 6.35827 19.8717 6.33557C19.8944 6.30154 20.1809 6.16255 21.0375 5.77396C21.8345 5.4109 22.138 5.27759 22.1636 5.27476C22.1749 5.27192 22.2458 5.44778 22.3252 5.66051ZM20.5298 6.72416C21.5651 6.94257 22.3224 7.07871 22.4869 7.07871C22.6486 7.07871 22.6316 7.0929 21.8686 7.55807C21.2814 7.91546 21.2134 7.94949 21.0659 7.94949H20.9042L20.4674 7.50985C19.9398 6.9766 19.5824 6.58518 19.5824 6.5398C19.5824 6.52278 19.5938 6.5171 19.6079 6.52561C19.6221 6.52845 20.0391 6.61922 20.5298 6.72416V6.72416ZM19.7639 7.21486C20.0192 7.51269 20.2149 7.76229 20.2036 7.7708C20.1809 7.79065 19.4548 7.61196 19.0123 7.47581C18.6237 7.35668 18.5783 7.31697 18.6804 7.18366C18.7485 7.09573 19.2477 6.67878 19.2846 6.67594C19.2959 6.67594 19.5087 6.91704 19.7639 7.21486V7.21486ZM23.0712 7.82753C23.1733 8.06862 23.2499 8.26434 23.2471 8.26717C23.2414 8.27001 21.8799 8.06011 21.7608 8.03742C21.7353 8.03175 21.965 7.87575 22.277 7.68571C22.589 7.49567 22.85 7.35385 22.8641 7.36803C22.8783 7.38221 22.9691 7.58643 23.0712 7.82753V7.82753ZM20.1015 8.28703C20.127 8.31255 20.4532 9.35919 20.439 9.37337C20.4333 9.37905 20.2802 9.20035 20.0958 8.97344C19.9114 8.74653 19.6335 8.42601 19.4718 8.2615L19.1825 7.958L19.6306 8.11401C19.8802 8.19626 20.0901 8.27568 20.1015 8.28703V8.28703ZM21.4034 8.42601C21.9678 8.50543 22.4359 8.57918 22.4444 8.58769C22.4529 8.5962 22.1097 8.86282 21.687 9.17766C21.2616 9.4925 20.9127 9.74778 20.907 9.74211C20.9014 9.73643 20.8588 9.60596 20.8106 9.44712C20.7624 9.29112 20.6432 8.96493 20.544 8.721C20.4447 8.47707 20.3653 8.27852 20.3709 8.27852C20.3738 8.27852 20.839 8.34659 21.4034 8.42601V8.42601ZM22.8216 8.877C22.9464 9.16915 22.9946 9.44712 23.0145 10.0059C23.0258 10.3066 23.0258 10.5505 23.0173 10.5505C23.006 10.5505 22.8273 10.4881 22.6202 10.4143C22.2061 10.264 21.3949 9.99738 21.2984 9.97753C21.2559 9.96902 21.4516 9.78182 21.9678 9.33934C22.3678 8.99329 22.7081 8.71249 22.7252 8.71249C22.7393 8.71249 22.7819 8.78624 22.8216 8.877V8.877ZM24.2767 8.94791C24.9007 9.07555 25.4481 9.18901 25.4907 9.20035C25.5531 9.21453 25.4027 9.30814 24.7419 9.6712C24.288 9.9208 23.7718 10.2044 23.5959 10.3037C23.4201 10.403 23.2726 10.4796 23.2698 10.4767C23.2669 10.4739 23.2839 10.3803 23.3095 10.2697C23.4031 9.86407 23.3435 9.35919 23.1563 8.95642C23.1024 8.84013 23.057 8.73518 23.057 8.72951C23.0599 8.69831 23.1733 8.721 24.2767 8.94791V8.94791ZM25.9814 9.71091C25.9502 9.85273 25.8793 10.0938 25.8254 10.2498C25.7062 10.593 25.2694 11.4865 25.2099 11.5092C25.1872 11.5177 24.9801 11.4241 24.756 11.2993C24.532 11.1745 24.2058 11.01 24.0356 10.9334L23.7236 10.7944L24.8667 10.0598C25.814 9.45279 26.0126 9.3365 26.0239 9.39039C26.0324 9.42726 26.0126 9.56909 25.9814 9.71091V9.71091ZM26.8181 9.44996C28.0037 9.79033 29.2574 10.2498 29.1837 10.3179C29.1695 10.3321 29.0135 10.3831 28.8405 10.4314C27.9442 10.6838 26.699 11.1149 26.1175 11.373C25.936 11.4525 25.78 11.512 25.7715 11.5007C25.763 11.4922 25.8339 11.2312 25.9303 10.9192C26.1175 10.3066 26.3359 9.48116 26.3359 9.37621C26.3359 9.33083 26.3529 9.31381 26.3955 9.32515C26.4238 9.3365 26.6139 9.39323 26.8181 9.44996V9.44996ZM21.7154 10.681C21.9849 10.7689 22.3025 10.8909 22.4188 10.9504C22.6287 11.0554 22.6316 11.0582 22.572 11.1234C22.4642 11.2426 21.2871 12.3403 21.2531 12.3516C21.236 12.3573 21.2219 12.1928 21.2219 11.9517C21.2219 11.5347 21.1736 10.7802 21.1368 10.6129C21.1084 10.4852 21.1311 10.4881 21.7154 10.681V10.681ZM29.2489 10.8994C28.9908 11.3277 28.5625 11.9375 28.2562 12.3232C27.9413 12.7175 27.2748 13.4578 27.2351 13.4578C27.2209 13.4578 27.1244 13.3387 27.0195 13.1912C26.6394 12.6494 26.1998 12.1814 25.814 11.9091C25.7771 11.8836 25.7545 11.8552 25.763 11.8467C25.7715 11.8382 26.404 11.6056 27.167 11.3277C28.71 10.7689 29.3907 10.542 29.4333 10.5703C29.439 10.5732 29.3567 10.7207 29.2489 10.8994V10.8994ZM30.2133 10.8256C31.2798 11.5688 32.0031 12.1701 32.264 12.5303C32.3293 12.6211 32.3775 12.6976 32.3718 12.7033C32.3661 12.709 32.0229 12.7459 31.6088 12.7884C29.9552 12.9501 28.7781 13.1174 28.1541 13.2763C27.9867 13.3188 27.8477 13.35 27.8449 13.3472C27.8421 13.3444 27.9527 13.2082 28.0917 13.0409C28.8121 12.1757 29.4645 11.2766 29.7056 10.8086C29.7708 10.6838 29.8332 10.5845 29.8446 10.5845C29.8587 10.5845 30.0233 10.6923 30.2133 10.8256V10.8256ZM24.2455 11.7475C24.4497 11.8581 24.6057 11.9573 24.5972 11.9744C24.5802 12.0056 22.7847 12.9898 22.7677 12.9756C22.7649 12.9728 22.8556 12.6778 22.9748 12.3176C23.0939 11.9573 23.2074 11.5659 23.23 11.4468L23.2698 11.2284L23.5733 11.3901C23.7406 11.478 24.0413 11.6368 24.2455 11.7475V11.7475ZM22.7393 11.8042C22.5663 12.4055 22.2146 13.1827 22.0529 13.316C22.0161 13.3472 21.9423 13.3046 21.7069 13.1118C21.5395 12.9785 21.3694 12.8451 21.324 12.8139C21.2814 12.7827 21.2474 12.7515 21.2559 12.743C21.3807 12.6211 22.8103 11.4666 22.8188 11.4837C22.8216 11.495 22.7876 11.6397 22.7393 11.8042V11.8042ZM25.9955 12.8508C26.265 13.0323 26.8663 13.5684 26.8351 13.6025C26.8266 13.611 26.2168 13.8095 25.4822 14.0421C24.7475 14.2747 23.9278 14.5385 23.6612 14.6264C23.3946 14.7172 23.1733 14.7852 23.1705 14.7824C23.1676 14.7796 23.3548 14.5668 23.5846 14.3087C24.1859 13.6365 24.8043 12.9189 25.0255 12.6352L25.2155 12.3913L25.4623 12.5246C25.5956 12.5984 25.8367 12.7459 25.9955 12.8508V12.8508ZM24.6029 12.4651C24.5859 12.4878 24.4242 12.692 24.2426 12.9217C24.0611 13.1515 23.6243 13.7102 23.2726 14.1641L22.6316 14.9895L22.6117 14.8505C22.572 14.581 22.4273 14.0506 22.3451 13.8719L22.2628 13.6904L22.6713 13.4862C23.0911 13.2763 23.9704 12.7998 24.3816 12.5587C24.6341 12.4112 24.6511 12.4027 24.6029 12.4651V12.4651ZM21.1992 13.4635C21.3665 13.5486 21.5225 13.662 21.5225 13.6961C21.5225 13.75 20.4362 14.5895 20.405 14.5583C20.3993 14.5498 20.4957 14.357 20.6234 14.1272C20.751 13.8975 20.8787 13.6393 20.9099 13.5514C20.9411 13.4635 20.9864 13.3926 21.012 13.3926C21.0375 13.3897 21.1198 13.4238 21.1992 13.4635V13.4635ZM22.1238 14.4959C22.1976 14.6434 22.277 15.0547 22.2373 15.0916C22.2203 15.1058 21.7721 15.3185 21.2389 15.5653C20.7056 15.8092 20.0107 16.1382 19.693 16.2971C19.3754 16.4559 19.1343 16.5665 19.1598 16.5467C19.1825 16.5268 19.5314 16.2318 19.937 15.8971C20.7198 15.2476 21.6105 14.4704 21.7721 14.2974L21.8714 14.1924L21.9678 14.2832C22.0189 14.3343 22.0898 14.4307 22.1238 14.4959V14.4959ZM21.2474 14.4874C21.1708 14.5583 20.751 14.9214 20.3199 15.2958C19.8888 15.6702 19.3697 16.1212 19.1683 16.2971C18.7599 16.6516 18.7599 16.6516 19.2818 15.9737C19.6845 15.449 19.8944 15.2533 20.4731 14.8647C20.7539 14.6775 21.3126 14.3598 21.3694 14.3598C21.3779 14.3598 21.324 14.4165 21.2474 14.4874ZM25.295 14.8448C25.3148 14.9554 25.3432 15.2986 25.3545 15.605L25.3744 16.1637L25.2439 16.1042C24.7957 15.8971 23.5364 15.188 23.5846 15.1682C23.8597 15.0575 25.2184 14.6066 25.2354 14.6236C25.2467 14.6349 25.2751 14.7342 25.295 14.8448ZM24.2285 15.8461C24.7532 16.1552 25.1872 16.4105 25.1928 16.4162C25.1985 16.4219 25.1304 16.4786 25.0454 16.541C24.878 16.663 23.1024 17.582 23.0769 17.5593C23.0684 17.5508 23.0939 17.3976 23.1308 17.2217C23.2045 16.8643 23.2669 15.7978 23.2386 15.4603C23.2272 15.3412 23.2329 15.2561 23.2499 15.2674C23.2612 15.276 23.7037 15.5369 24.2285 15.8461V15.8461ZM22.7791 15.6192C22.8188 15.951 22.7705 16.6176 22.6798 16.9665C22.5748 17.3749 22.5124 17.5451 22.4671 17.5593C22.4047 17.5791 22.0161 17.2274 21.7806 16.9324C21.5424 16.6346 21.2275 16.0758 21.2758 16.0304C21.3041 16.0021 22.6883 15.432 22.7337 15.432C22.745 15.4291 22.7649 15.5142 22.7791 15.6192V15.6192ZM21.08 16.4531C21.2275 16.7566 21.5622 17.1934 21.9281 17.5649C22.1636 17.8032 22.2231 17.8798 22.1862 17.9053C22.0217 18.0159 21.2843 18.362 20.8191 18.5435C20.2546 18.7647 19.52 19.02 19.503 18.9973C19.4973 18.9888 19.6647 18.6825 19.8774 18.3166C20.3369 17.5196 20.9184 16.3878 20.9184 16.2942C20.9212 16.1779 20.9694 16.2261 21.08 16.4531V16.4531ZM20.2093 16.4729C20.2008 16.4956 20.1298 16.6715 20.0533 16.8643C19.7271 17.6926 19.0917 18.8186 18.9499 18.8186C18.8393 18.8186 18.6776 18.1634 18.6322 17.5337L18.6095 17.2161L19.3867 16.8246C19.815 16.6091 20.1781 16.4332 20.1951 16.4332C20.2121 16.4304 20.2178 16.4502 20.2093 16.4729ZM25.3971 17.2387C25.3999 17.7153 25.2014 18.8697 25.0936 18.986C25.0482 19.0342 24.5575 18.8527 24.1122 18.6229C23.7151 18.4187 23.0599 18.0131 23.0599 17.9705C23.0599 17.9592 23.1591 17.9081 23.2839 17.8571C23.5194 17.7578 24.6171 17.1707 25.0822 16.8955L25.3488 16.7367L25.3715 16.8587C25.3829 16.9267 25.3942 17.0998 25.3971 17.2387V17.2387ZM18.0763 17.789C18.1217 18.1663 18.238 18.6286 18.3826 18.9945C18.4422 19.1448 18.4847 19.2753 18.4762 19.281C18.4195 19.332 16.0851 19.9759 15.776 20.0241L15.6285 20.0468L15.6512 19.9333C15.6824 19.7717 15.9093 19.3122 16.0766 19.0626C16.2865 18.7534 16.8027 18.2343 17.1431 17.9932C17.3984 17.8145 18.011 17.4543 18.0281 17.477C18.0394 17.4798 18.0564 17.6188 18.0763 17.789V17.789ZM23.3719 18.586C24.0923 18.9321 24.3646 19.0512 24.7107 19.1703L24.9744 19.2611L24.8071 19.3462C23.8626 19.8256 22.1891 20.5063 21.7579 20.5914C21.6615 20.6112 21.6473 20.6056 21.6672 20.5574C21.7409 20.3645 22.7393 18.3024 22.7592 18.3024C22.7705 18.3024 23.0485 18.43 23.3719 18.586V18.586ZM22.104 18.5095C22.0529 18.7534 21.7778 19.5391 21.619 19.8965C21.48 20.2085 21.1595 20.8126 21.1027 20.8694C21.0772 20.8949 20.5071 20.5744 20.2376 20.3815C19.9341 20.1659 19.2704 19.5249 19.2903 19.4653C19.2988 19.4426 19.7015 19.2866 20.1894 19.1193C21.2162 18.7647 21.7891 18.552 21.9565 18.4641C22.1153 18.379 22.1295 18.3847 22.104 18.5095V18.5095ZM24.9744 19.593C24.9659 19.6639 24.9064 19.9731 24.844 20.2879C24.6483 21.2693 24.41 21.9415 24.2597 21.9415C24.0498 21.9415 22.6202 21.5955 22.1579 21.431C21.843 21.3203 21.5736 21.1927 21.4828 21.1161C21.4261 21.0679 21.4573 21.0509 21.8657 20.8835C23.1875 20.3446 24.7135 19.6554 24.878 19.5249C24.9773 19.4455 24.9915 19.4568 24.9744 19.593V19.593ZM18.2805 19.8936C18.1302 20.1631 17.8238 20.6056 17.2367 21.3969L16.7375 22.072L16.5872 21.9642C16.3773 21.8139 16.0426 21.4508 15.9036 21.2211C15.7533 20.9743 15.6512 20.668 15.6398 20.4354L15.6313 20.2539L15.8781 20.2283C16.2128 20.1943 17.1516 20.0014 17.8182 19.8256C18.1217 19.7461 18.3741 19.6866 18.3798 19.6894C18.3826 19.6979 18.3401 19.7887 18.2805 19.8936V19.8936ZM19.7356 20.5886C19.9029 20.7077 20.1327 20.8608 20.249 20.9289L20.4617 21.0537L20.3653 21.0934C20.3114 21.1161 19.5342 21.3998 18.6351 21.7231C17.1006 22.2762 17.0013 22.3103 16.9587 22.2535C16.9332 22.2195 16.9162 22.1855 16.919 22.1741C16.9219 22.1628 17.336 21.6267 17.8409 20.9828L18.757 19.8114L19.0946 20.0922C19.2846 20.2482 19.5682 20.4694 19.7356 20.5886ZM20.1128 22.35C19.7781 22.852 19.4945 23.2746 19.4831 23.286C19.4576 23.32 18.9215 23.1952 18.5216 23.0591C18.1018 22.9172 17.5827 22.6563 17.3785 22.4804L17.231 22.3528L17.5629 22.262C18.9159 21.8933 20.7056 21.4196 20.7141 21.4253C20.7198 21.431 20.4475 21.8479 20.1128 22.35V22.35ZM21.7211 21.5898C22.4387 21.8366 23.0911 21.9756 23.9391 22.0663L24.1717 22.0919L23.5392 22.3188C21.9622 22.8889 20.6829 23.2888 20.0419 23.4136C19.8604 23.4477 19.6959 23.4789 19.6789 23.4789C19.6618 23.4789 19.7895 23.303 19.9653 23.0874C20.4475 22.5003 20.9694 21.8309 21.1084 21.6238C21.1765 21.5246 21.2446 21.4395 21.2587 21.4395C21.2758 21.4423 21.4828 21.5075 21.7211 21.5898V21.5898ZM24.0725 22.9172C23.8002 23.6178 23.6016 24.0461 23.5335 24.0717C23.4002 24.1227 21.5367 23.8504 20.9666 23.6944C20.5893 23.5923 20.3483 23.493 20.4192 23.4675C20.4475 23.459 20.717 23.3938 21.0205 23.3257C22.0047 23.1044 23.508 22.6478 24.132 22.3812C24.2114 22.3471 24.2824 22.3216 24.288 22.3273C24.2937 22.3329 24.1973 22.5967 24.0725 22.9172V22.9172ZM13.053 23.5101C12.9197 23.5668 12.8573 23.6774 12.8431 23.8845C12.8289 24.0773 12.8289 24.0802 12.7325 24.0802C12.636 24.0802 12.6332 24.0858 12.6446 24.222C12.6531 24.3496 12.6644 24.3638 12.7467 24.3752L12.8374 24.3865V25.4246L12.9934 25.4105L13.1523 25.3991L13.1636 24.8886L13.175 24.378H13.6401V24.7524C13.6401 25.2176 13.6884 25.3395 13.8897 25.4076C13.9805 25.4388 14.0656 25.4445 14.1564 25.4246C14.284 25.3991 14.2897 25.3906 14.301 25.2544L14.3124 25.1098L14.2017 25.1296C14.0089 25.1637 13.9975 25.141 14.0032 24.6701L14.006 24.3808H14.1025C14.2698 24.3808 14.3067 24.3496 14.3067 24.2106V24.0802H14.006V23.9554C14.006 23.771 13.9748 23.7398 13.8018 23.7512L13.6543 23.7597L13.643 23.9185L13.6316 24.0773H13.1693V23.9639C13.1693 23.8079 13.2515 23.7313 13.3934 23.7597C13.5011 23.7795 13.504 23.7795 13.504 23.6689C13.504 23.6093 13.4841 23.5384 13.4643 23.5157C13.4189 23.476 13.1523 23.4703 13.053 23.5101V23.5101ZM5.6613 23.5639C5.51664 23.6661 5.58755 23.8788 5.76909 23.8788C5.95629 23.8788 5.99033 23.8533 5.99033 23.7086C5.98749 23.5242 5.82298 23.4505 5.6613 23.5639ZM3.20497 23.6547C3.15391 23.6916 3.14824 23.7767 3.15675 24.5482L3.16526 25.3991L3.3241 25.4105L3.48294 25.4218V24.6815C3.48294 24.2731 3.49144 23.9469 3.49995 23.9554C3.5113 23.9639 3.60774 24.2333 3.71836 24.5539C3.82898 24.8744 3.94243 25.2006 3.9708 25.28L4.02469 25.4246L4.19204 25.4105L4.35939 25.3991L4.61466 24.69L4.86994 23.9809L4.88696 24.69C4.89831 25.0814 4.90965 25.4048 4.91249 25.4105C4.91532 25.4161 4.99191 25.4161 5.077 25.4105L5.23584 25.3991L5.24435 24.551C5.25002 23.9525 5.24151 23.6887 5.21315 23.6547C5.15358 23.581 4.77634 23.5951 4.70827 23.6717C4.6799 23.7058 4.56077 23.9809 4.44732 24.2816C4.33386 24.5822 4.23175 24.8403 4.2204 24.8545C4.20906 24.8687 4.10978 24.6276 3.99916 24.3213C3.88854 24.0093 3.76658 23.7313 3.72403 23.6888C3.66447 23.6292 3.61341 23.6122 3.45457 23.6122C3.34962 23.6122 3.23617 23.632 3.20497 23.6547V23.6547ZM6.6427 24.0802C6.39877 24.1596 6.25411 24.412 6.25411 24.7666C6.25411 25.1637 6.40444 25.3793 6.72212 25.4331C6.86678 25.4587 7.11355 25.4019 7.19864 25.3254C7.25537 25.2743 7.28089 25.0843 7.23551 25.0417C7.22417 25.0304 7.16176 25.0502 7.09653 25.0871C6.85543 25.2176 6.67674 25.1438 6.62001 24.8914C6.58314 24.724 6.62285 24.5085 6.71077 24.4149C6.78168 24.3383 6.95754 24.3326 7.09369 24.4035C7.22133 24.4688 7.2582 24.4461 7.2582 24.2986C7.2582 24.2163 7.23835 24.1709 7.17878 24.1341C7.07667 24.0632 6.77601 24.0376 6.6427 24.0802V24.0802ZM7.94461 24.1483C7.82832 24.2504 7.82832 24.2504 7.81698 24.1738C7.80847 24.1085 7.78577 24.0944 7.66381 24.0858L7.52199 24.0745V25.4133H7.85669V24.9992C7.85669 24.5851 7.85669 24.5851 7.95596 24.4773C8.03822 24.3893 8.07509 24.3723 8.17436 24.3837C8.29917 24.3979 8.32469 24.3695 8.32469 24.2135C8.32469 24.0206 8.13182 23.9866 7.94461 24.1483V24.1483ZM8.86928 24.0858C8.59983 24.1653 8.43531 24.4801 8.46935 24.8517C8.50055 25.1949 8.67641 25.3906 8.99409 25.436C9.5557 25.5126 9.92159 25.0531 9.76276 24.4744C9.66632 24.1341 9.28056 23.9639 8.86928 24.0858V24.0858ZM9.26071 24.3468C9.43657 24.4404 9.48195 24.8488 9.33729 25.0417C9.24653 25.1608 9.04514 25.1835 8.92318 25.0871C8.84943 25.0275 8.84376 24.9992 8.84376 24.7496C8.84376 24.4915 8.84943 24.4716 8.93736 24.395C9.0338 24.3099 9.1586 24.2929 9.26071 24.3468V24.3468ZM10.2478 24.0944C10.0776 24.1681 10.0152 24.2674 10.0152 24.4517C10.0152 24.6503 10.0776 24.724 10.3754 24.8659C10.5456 24.9481 10.5825 24.9793 10.5825 25.0502C10.5825 25.1098 10.557 25.1438 10.4889 25.1665C10.4038 25.1949 10.3244 25.1807 10.0549 25.0956C10.0039 25.0786 9.99534 25.0928 10.0039 25.2062C10.0124 25.314 10.0322 25.3452 10.1145 25.3849C10.2535 25.453 10.5882 25.4473 10.7271 25.3736C10.9285 25.2658 10.9909 24.9396 10.8434 24.7751C10.8094 24.7382 10.6874 24.6616 10.5655 24.6049C10.3442 24.5 10.2903 24.4234 10.3669 24.3326C10.418 24.2731 10.5683 24.2731 10.7186 24.3355C10.8179 24.378 10.8378 24.378 10.8548 24.3383C10.8888 24.2475 10.8491 24.1397 10.7668 24.0972C10.6562 24.0376 10.3726 24.0376 10.2478 24.0944V24.0944ZM11.6008 24.0717C11.3058 24.1766 11.1725 24.3553 11.1441 24.673C11.1101 25.0644 11.2519 25.314 11.5582 25.4048C12.0716 25.5551 12.4715 25.2573 12.4687 24.7269C12.4659 24.4064 12.3212 24.1709 12.0716 24.0858C11.9553 24.0461 11.6915 24.0376 11.6008 24.0717V24.0717ZM11.9893 24.395C12.0773 24.4688 12.0829 24.4915 12.0829 24.7269C12.0829 24.9481 12.0744 24.9878 12.0007 25.0644C11.8957 25.175 11.6972 25.1835 11.5979 25.0843C11.5128 24.9992 11.4873 24.8886 11.5071 24.6588C11.5185 24.5085 11.5412 24.4574 11.6121 24.3922C11.7312 24.2901 11.8702 24.2929 11.9893 24.395V24.395ZM5.62726 24.7382L5.63577 25.4019H5.97047V24.0972L5.79461 24.0887L5.61876 24.0773L5.62726 24.7382ZM4.03036 26.2359C3.60206 26.3295 3.27871 26.5649 3.10853 26.9138C3.00358 27.1265 2.99791 27.1577 2.99791 27.5037C2.99791 27.8384 3.00642 27.8895 3.08867 28.0597C3.26737 28.4256 3.59639 28.6837 4.2828 28.9957C5.03162 29.336 5.23584 29.5459 5.23584 29.9799C5.23584 30.3742 5.05147 30.6096 4.64587 30.7344C4.24309 30.8592 3.84032 30.7996 3.31842 30.5387C3.1454 30.4508 2.9894 30.3742 2.97805 30.3685C2.96387 30.3628 2.93267 30.3827 2.90147 30.411C2.83907 30.4763 2.82772 30.7996 2.88729 30.9074C3.01209 31.1428 3.6673 31.3612 4.23742 31.3612C5.30959 31.3612 6.00167 30.7231 5.94494 29.7842C5.9336 29.58 5.90807 29.4807 5.82298 29.3105C5.65563 28.973 5.44006 28.7971 4.78485 28.4766C4.48135 28.3291 4.14949 28.1504 4.04455 28.0795C3.63043 27.8016 3.53399 27.3279 3.82614 26.9988C3.98782 26.8145 4.15233 26.7549 4.48986 26.7521C4.81038 26.7521 4.94085 26.7861 5.30959 26.9733C5.62726 27.135 5.65563 27.1208 5.65563 26.806C5.65563 26.5223 5.63861 26.4968 5.3493 26.3635C4.96638 26.1961 4.45299 26.1451 4.03036 26.2359V26.2359ZM8.50055 26.216C7.86803 26.3181 7.38017 26.6244 7.05398 27.1265C6.88947 27.3818 6.7987 27.62 6.71361 28.0228C6.62001 28.4624 6.6427 29.441 6.75332 29.8438C7.02562 30.8337 7.63544 31.3102 8.67925 31.3556C9.22951 31.3783 9.44224 31.3386 9.98116 31.1088C10.001 31.1003 10.0918 31.157 10.1825 31.2336C10.5286 31.5343 11.2887 31.9654 11.5554 32.0165C11.7199 32.0477 11.7653 31.9938 11.7653 31.7612C11.7653 31.6534 11.7568 31.5428 11.7454 31.5116C11.7341 31.4804 11.5752 31.3811 11.388 31.2875C11.1015 31.1457 10.5286 30.7769 10.5286 30.7344C10.5286 30.7259 10.5825 30.6521 10.6449 30.5671C10.9143 30.2153 11.076 29.7246 11.1327 29.0893C11.1753 28.6043 11.1356 28.0852 11.025 27.6824C10.8236 26.9535 10.3329 26.4514 9.64079 26.2642C9.41104 26.2075 8.75299 26.1763 8.50055 26.216V26.216ZM9.50464 26.8542C9.90174 27.0017 10.1655 27.3023 10.3187 27.7703C10.3953 28.0058 10.4095 28.1136 10.4236 28.6128C10.4435 29.2822 10.3924 29.6055 10.2166 29.9799C9.93578 30.5812 9.32027 30.8819 8.60266 30.7713C7.71203 30.6351 7.3206 29.9629 7.36599 28.644C7.39151 27.8866 7.52766 27.4895 7.87938 27.1548C8.08643 26.9563 8.23676 26.8684 8.47786 26.8088C8.75583 26.7351 9.24936 26.7577 9.50464 26.8542V26.8542ZM17.5402 26.2387C17.1289 26.338 16.78 26.5932 16.6297 26.8996C16.4595 27.2513 16.4539 27.7477 16.6155 28.0682C16.8056 28.4454 17.0608 28.6411 17.855 29.0184C18.4564 29.3048 18.6577 29.4722 18.74 29.753C18.8364 30.0849 18.7116 30.4309 18.4337 30.6124C17.9997 30.8932 17.3814 30.8479 16.7205 30.4876C16.4227 30.326 16.3801 30.343 16.3801 30.6295C16.3801 30.8961 16.417 30.9755 16.5985 31.0804C17.1573 31.4095 18.0876 31.452 18.6663 31.1797C19.364 30.8507 19.6789 29.9856 19.3498 29.2992C19.3073 29.2112 19.1882 29.0581 19.0804 28.9531C18.9159 28.7915 18.7854 28.712 18.2351 28.4426C17.3218 27.9944 17.1403 27.8015 17.1942 27.3449C17.2225 27.118 17.3417 26.9506 17.5515 26.8457C17.6962 26.7719 17.7756 26.7577 17.9969 26.7577C18.3259 26.7577 18.4592 26.7918 18.7911 26.962C19.0747 27.1066 19.1343 27.118 19.1655 27.0386C19.2052 26.9393 19.1853 26.6074 19.1371 26.5365C19.0719 26.4457 18.74 26.2983 18.4592 26.2387C18.1784 26.1791 17.7926 26.1763 17.5402 26.2387ZM12.3411 26.2926C12.3099 26.3238 12.3013 26.9109 12.3013 28.7319V31.1315L12.3836 31.2138L12.4659 31.296H13.6515C14.5591 31.296 14.8428 31.2847 14.8711 31.2535C14.9222 31.1882 14.9449 30.9925 14.9165 30.862L14.891 30.7457L13.9408 30.7287L12.9906 30.7117L12.9821 28.5078C12.9764 26.7975 12.9651 26.2983 12.9339 26.2784C12.863 26.2387 12.3864 26.2472 12.3411 26.2926V26.2926ZM21.2559 27.5463C21.0942 27.5718 20.7709 27.6994 20.6376 27.7902C20.3171 28.0086 20.0901 28.3575 19.9625 28.8255C19.8831 29.1233 19.8831 29.8579 19.9625 30.1614C20.127 30.7826 20.4901 31.1599 21.0687 31.313C21.3211 31.3783 21.9593 31.3783 22.2713 31.313C22.5663 31.2506 22.8727 31.1372 22.9294 31.0719C22.9833 31.0095 22.9804 30.672 22.9266 30.6181C22.8982 30.5897 22.8103 30.6096 22.5748 30.689C21.67 30.9954 20.9723 30.862 20.7028 30.3316C20.6234 30.1756 20.5496 29.8636 20.5496 29.6878V29.5942H21.6984C22.4245 29.5942 22.884 29.58 22.9492 29.5573C23.0967 29.5062 23.1364 29.3786 23.1109 29.0496C23.0599 28.3972 22.8415 27.9888 22.4132 27.7306C22.1409 27.5661 21.636 27.4839 21.2559 27.5463V27.5463ZM21.8686 28.071C22.2089 28.1731 22.4188 28.4624 22.45 28.8624L22.4671 29.0921H20.544L20.5667 28.9531C20.6262 28.6071 20.7709 28.349 20.995 28.1958C21.2474 28.0228 21.5622 27.9774 21.8686 28.071V28.071ZM25.156 27.5548C24.9971 27.6058 24.7674 27.7902 24.6029 27.9973L24.444 28.2015L24.427 27.9037L24.41 27.6058L24.2114 27.5945C24.1008 27.5888 23.9789 27.5917 23.9363 27.603L23.8597 27.62V29.4382C23.8597 31.0663 23.8654 31.2563 23.9136 31.2762C23.9817 31.3017 24.376 31.3017 24.4412 31.2762C24.4894 31.2591 24.4951 31.1202 24.4951 30.0707V28.8851L24.6426 28.678C24.844 28.3944 25.1049 28.1646 25.2552 28.1362C25.3347 28.1221 25.4595 28.1334 25.607 28.1703C25.7516 28.2072 25.8481 28.2157 25.8679 28.1958C25.8849 28.1788 25.8963 28.0426 25.8906 27.9008C25.8821 27.6455 25.8764 27.6342 25.7828 27.5917C25.6665 27.5349 25.2836 27.5122 25.156 27.5548V27.5548ZM30.9082 27.5576C30.6444 27.603 30.27 27.7959 30.0771 27.9888C29.7113 28.3546 29.5581 28.8595 29.5836 29.6083C29.6063 30.2834 29.7311 30.6181 30.0857 30.95C30.4232 31.2705 30.7806 31.3754 31.4273 31.3556C31.901 31.3386 32.3264 31.245 32.5221 31.1145C32.6186 31.0492 32.6299 31.0237 32.6384 30.8592C32.6441 30.7599 32.6328 30.655 32.6157 30.6266C32.5817 30.5727 32.6101 30.5671 32.0456 30.7457C31.8159 30.8167 31.6939 30.8337 31.4103 30.8365C30.8487 30.8393 30.5593 30.689 30.3693 30.3033C30.2899 30.1416 30.2615 30.0281 30.2473 29.8409L30.2303 29.5942L31.433 29.5857C32.8767 29.5743 32.7803 29.6055 32.7774 29.1602C32.7746 28.3773 32.437 27.8328 31.8272 27.62C31.606 27.5463 31.1607 27.5151 30.9082 27.5576V27.5576ZM31.5379 28.0738C31.8698 28.1731 32.0882 28.4681 32.1335 28.8851L32.1562 29.0921H30.2332L30.253 28.9248C30.3012 28.5163 30.582 28.1646 30.9451 28.054C31.0841 28.0114 31.3564 28.0228 31.5379 28.0738V28.0738ZM34.8508 27.5519C34.6353 27.6229 34.3374 27.8725 34.1729 28.1192C34.119 28.2015 34.1162 28.1958 34.1162 27.9349C34.1162 27.7703 34.102 27.6512 34.0765 27.6285C34.0226 27.5746 33.6085 27.5746 33.5546 27.6285C33.4979 27.6853 33.4979 31.1996 33.5546 31.2563C33.6085 31.3102 34.0878 31.3102 34.1417 31.2563C34.1701 31.2279 34.1814 30.9103 34.1814 30.0452V28.8737L34.3062 28.6893C34.4906 28.4142 34.7232 28.1986 34.8849 28.1504C35.0239 28.1079 35.0777 28.1136 35.4493 28.21C35.5543 28.2384 35.5855 28.1788 35.5855 27.9547C35.5855 27.7051 35.5628 27.637 35.4578 27.5888C35.35 27.5406 34.9615 27.5151 34.8508 27.5519V27.5519ZM25.9672 27.6399C25.9331 27.6824 26.0353 27.9944 26.5515 29.4353C26.8947 30.394 27.2039 31.2081 27.2379 31.245C27.3655 31.3754 27.9981 31.3442 28.0548 31.2052C28.0973 31.0946 29.2688 27.8413 29.2915 27.7647C29.3312 27.6314 29.2603 27.5917 28.9738 27.5917C28.8064 27.5917 28.7015 27.6058 28.6816 27.6342C28.6646 27.6569 28.4264 28.3348 28.1541 29.1403C27.8818 29.9459 27.6492 30.5926 27.635 30.5756C27.6208 30.5614 27.3882 29.9033 27.1188 29.112C26.8493 28.3206 26.6111 27.6569 26.5912 27.6314C26.5401 27.5661 26.0182 27.5746 25.9672 27.6399V27.6399Z" fill="white"/>
</svg>
