<svg width="34" height="34" viewBox="0 0 34 34" fill="none" xmlns="http://www.w3.org/2000/svg">
<g id="Logos/nodejs-original">
<path id="Vector" d="M29.8945 8.03345L18.4176 1.36935C17.6938 0.957085 16.7514 0.957085 16.0219 1.36935L4.42232 8.03345C3.67536 8.46315 3.14676 9.27076 3.14676 10.1346V23.4451C3.14676 24.3089 3.68915 25.1168 4.43612 25.5488L7.50075 27.2895C8.96552 28.0109 9.48319 28.0109 10.1497 28.0109C12.3185 28.0109 13.5574 26.6995 13.5574 24.412V11.2712C13.5574 11.0856 13.4608 10.8095 13.2787 10.8095H11.8152C11.6299 10.8095 11.215 11.0856 11.215 11.2709V24.4117C11.215 25.4257 10.2978 26.4348 8.58371 25.5777L5.41706 23.7525C5.30671 23.6926 5.22889 23.5721 5.22889 23.4451V10.1346C5.22889 10.0091 5.37333 9.88316 5.48447 9.81888L17.0465 3.16622C17.1545 3.10506 17.3133 3.10506 17.421 3.16622L28.842 9.81732C28.9513 9.88316 28.9128 10.0052 28.9128 10.1346V23.4451C28.9128 23.5721 28.9605 23.6957 28.8524 23.7569L17.3784 30.4135C17.28 30.4725 17.1579 30.4725 17.0502 30.4135L14.1073 28.6569C14.0186 28.6054 13.9132 28.5869 13.8281 28.6345C13.0093 29.0986 12.8583 29.1603 12.0903 29.4265C11.9013 29.4924 11.6226 29.6066 12.197 29.9286L16.0484 32.207C16.4161 32.4193 16.8332 32.5312 17.2579 32.5312C17.6852 32.5312 18.1037 32.4204 18.4725 32.207L29.8943 25.5488C30.6412 25.1137 30.9952 24.3089 30.9952 23.4451V10.1346C30.9952 9.27076 30.6413 8.46524 29.8945 8.03345ZM20.8214 21.3359C17.7695 21.3359 17.0973 20.4939 16.8732 18.9763C16.8472 18.8129 16.7084 18.6174 16.5421 18.6174H15.0505C14.866 18.6174 14.7177 18.8413 14.7177 19.025C14.7177 20.9682 15.7741 23.3225 20.8217 23.3225C24.4756 23.3225 26.5704 21.9028 26.5704 19.3902C26.5704 16.8989 24.8873 16.2451 21.3438 15.7761C17.762 15.3027 17.3981 15.0635 17.3981 14.2244C17.3981 13.5326 17.7063 12.61 20.3584 12.61C22.7281 12.61 23.6016 13.1185 23.961 14.7158C23.9917 14.866 24.1289 14.9737 24.2837 14.9737H25.7813C25.8734 14.9737 25.9614 14.9365 26.026 14.8706C26.0884 14.7998 26.1215 14.7111 26.1131 14.6158C25.8812 11.8653 24.0539 10.5835 20.3581 10.5835C17.0707 10.5835 15.1096 11.9718 15.1096 14.2988C15.1096 16.8229 17.0608 17.5204 20.2166 17.8325C23.9917 18.2026 24.2853 18.7543 24.2853 19.4969C24.2853 20.7865 23.25 21.3359 20.8214 21.3359Z" fill="white"/>
</g>
</svg>
