<svg width="32" height="32" viewBox="0 0 32 32" fill="none" xmlns="http://www.w3.org/2000/svg">
<path d="M16.4289 19.1303C17.952 19.1303 19.1867 17.8955 19.1867 16.3724C19.1867 14.8493 17.952 13.6146 16.4289 13.6146C14.9058 13.6146 13.6711 14.8493 13.6711 16.3724C13.6711 17.8955 14.9058 19.1303 16.4289 19.1303Z" fill="white"/>
<path d="M26.9038 11.8245C26.3716 11.6309 25.8152 11.4374 25.2346 11.2681C25.3797 10.6875 25.5007 10.1069 25.5975 9.55046C26.1055 6.3572 25.5491 4.1074 24.0008 3.2365C23.5412 2.9704 23.0332 2.84944 22.4526 2.84944C20.7592 2.84944 18.6062 4.1074 16.4289 6.21205C14.2517 4.1074 12.0987 2.84944 10.4053 2.84944C9.82467 2.84944 9.31665 2.9704 8.85701 3.2365C7.30876 4.13159 6.75236 6.38139 7.26038 9.55046C7.35714 10.1069 7.4781 10.6875 7.62325 11.2681C7.04265 11.4374 6.48625 11.6067 5.95404 11.8245C2.93011 12.9856 1.2851 14.5823 1.2851 16.3724C1.2851 18.1626 2.9543 19.7592 5.95404 20.9204C6.48625 21.114 7.04265 21.3075 7.62325 21.4768C7.4781 22.0574 7.35714 22.638 7.26038 23.1944C6.75236 26.3877 7.30876 28.6375 8.85701 29.5084C9.31665 29.7745 9.82467 29.8955 10.4053 29.8955C12.1229 29.8955 14.2759 28.6375 16.4289 26.5328C18.6062 28.6375 20.7592 29.8955 22.4526 29.8955C23.0332 29.8955 23.5412 29.7745 24.0008 29.5084C25.5491 28.6133 26.1055 26.3635 25.5975 23.1944C25.5007 22.638 25.3797 22.0574 25.2346 21.4768C25.8152 21.3075 26.3716 21.1382 26.9038 20.9204C29.9277 19.7592 31.5728 18.1626 31.5728 16.3724C31.5728 14.5823 29.9277 12.9856 26.9038 11.8245V11.8245ZM23.3235 4.44608C24.3153 5.02667 24.654 6.81683 24.2428 9.35693C24.1702 9.86495 24.0492 10.3972 23.9041 10.9536C22.6461 10.6633 21.3156 10.4697 19.9125 10.3488C19.09 9.18759 18.2433 8.14736 17.3966 7.2039C19.1867 5.43792 21.0011 4.22835 22.4768 4.22835C22.7913 4.22835 23.0816 4.30093 23.3235 4.44608V4.44608ZM20.614 18.7916C20.1786 19.5657 19.6706 20.3398 19.1384 21.114C18.2433 21.1865 17.3482 21.2107 16.4289 21.2107C15.4855 21.2107 14.5904 21.1865 13.7195 21.114C13.1873 20.3398 12.7034 19.5657 12.268 18.7916C11.8084 17.9933 11.3729 17.1708 10.9859 16.3724C11.3729 15.5741 11.8084 14.7516 12.268 13.9533C12.7034 13.1792 13.2115 12.4051 13.7437 11.6309C14.6388 11.5584 15.5338 11.5342 16.4531 11.5342C17.3966 11.5342 18.2917 11.5584 19.1626 11.6309C19.6948 12.4051 20.1786 13.1792 20.614 13.9533C21.0737 14.7516 21.5091 15.5741 21.8962 16.3724C21.4849 17.1708 21.0737 17.9691 20.614 18.7916ZM22.6219 17.9933C22.9848 18.84 23.2751 19.6625 23.5412 20.485C22.7187 20.6785 21.8478 20.8237 20.9285 20.9446C21.2188 20.485 21.5333 20.0012 21.7994 19.4931C22.0897 18.9851 22.3558 18.4771 22.6219 17.9933ZM16.4289 24.5491C15.8483 23.9202 15.2919 23.2428 14.7597 22.5413C15.3161 22.5655 15.8725 22.5896 16.4289 22.5896C16.9853 22.5896 17.5417 22.5655 18.0981 22.5413C17.5659 23.2428 17.0095 23.9202 16.4289 24.5491ZM11.9293 20.9204C11.01 20.7995 10.1392 20.6543 9.31665 20.4608C9.58275 19.6625 9.87305 18.8158 10.2359 17.9691C10.502 18.4529 10.7681 18.9609 11.0584 19.4448C11.3487 19.977 11.639 20.4366 11.9293 20.9204V20.9204ZM10.2359 14.7516C9.87305 13.9049 9.58275 13.0824 9.31665 12.2599C10.1392 12.0664 11.01 11.9212 11.9293 11.8003C11.639 12.2599 11.3245 12.7437 11.0584 13.2518C10.7681 13.7598 10.502 14.2678 10.2359 14.7516V14.7516ZM16.4289 8.19575C17.0095 8.82472 17.5659 9.50208 18.0981 10.2036C17.5417 10.1794 16.9853 10.1553 16.4289 10.1553C15.8725 10.1553 15.3161 10.1794 14.7597 10.2036C15.2919 9.50208 15.8483 8.82472 16.4289 8.19575ZM21.7994 13.2759L20.9285 11.8245C21.8478 11.9454 22.7187 12.0906 23.5412 12.2841C23.2751 13.0824 22.9848 13.9291 22.6219 14.7758C22.3558 14.2678 22.0897 13.7598 21.7994 13.2759ZM8.6151 9.35693C8.20384 6.81683 8.54252 5.02667 9.53437 4.44608C9.77628 4.30093 10.0666 4.22835 10.3811 4.22835C11.8326 4.22835 13.6469 5.41373 15.4613 7.2039C14.6146 8.12317 13.7679 9.18759 12.9454 10.3488C11.5423 10.4697 10.2117 10.6875 8.95378 10.9536C8.80863 10.3972 8.71186 9.86495 8.6151 9.35693V9.35693ZM2.63981 16.3724C2.63981 15.2354 4.01873 14.0259 6.43787 13.1308C6.9217 12.9373 7.45391 12.7679 7.98612 12.6228C8.37318 13.8323 8.85701 15.1145 9.4376 16.3966C8.85701 17.6788 8.34899 18.9367 7.98612 20.1463C4.6477 19.1787 2.63981 17.7272 2.63981 16.3724ZM9.53437 28.2988C8.54252 27.7182 8.20384 25.9281 8.6151 23.388C8.68767 22.8799 8.80863 22.3477 8.95378 21.7913C10.2117 22.0816 11.5423 22.2752 12.9454 22.3961C13.7679 23.5573 14.6146 24.5975 15.4613 25.541C13.6711 27.307 11.8567 28.5165 10.3811 28.5165C10.0666 28.5165 9.77628 28.444 9.53437 28.2988ZM24.2428 23.388C24.654 25.9281 24.3153 27.7182 23.3235 28.2988C23.0816 28.444 22.7913 28.5165 22.4768 28.5165C21.0253 28.5165 19.2109 27.3312 17.3966 25.541C18.2433 24.6217 19.09 23.5573 19.9125 22.3961C21.3156 22.2752 22.6461 22.0574 23.9041 21.7913C24.0492 22.3477 24.146 22.8799 24.2428 23.388V23.388ZM26.42 19.6141C25.9362 19.8076 25.4039 19.977 24.8717 20.1221C24.4847 18.9125 24.0008 17.6304 23.4202 16.3483C24.0008 15.0661 24.5089 13.8082 24.8717 12.5986C28.2101 13.5662 30.218 15.0177 30.218 16.3724C30.218 17.5094 28.8149 18.719 26.42 19.6141Z" fill="white"/>
</svg>
