<svg width="30" height="39" viewBox="0 0 30 39" fill="none" xmlns="http://www.w3.org/2000/svg">
<path d="M0.976791 20.691C0.976791 19.1575 1.2599 17.6594 1.82612 16.1967C2.41593 14.7104 3.26525 13.3656 4.3741 12.1624C5.48294 10.9592 6.82771 10.0037 8.4084 9.2959C10.0127 8.56453 11.8175 8.19885 13.8229 8.19885C16.2293 8.19885 18.329 8.70609 20.122 9.72056C21.915 10.7114 23.248 12.0326 24.1209 13.6841L18.848 17.4353C18.5413 16.6095 18.0931 15.9725 17.5033 15.5243C16.937 15.076 16.3118 14.7693 15.6277 14.6042C14.9671 14.4154 14.3183 14.3211 13.6813 14.3211C12.6904 14.3211 11.8293 14.5216 11.0979 14.9227C10.3902 15.3002 9.80035 15.8074 9.3285 16.4444C8.88024 17.0814 8.53815 17.7892 8.30223 18.5677C8.0899 19.3463 7.98373 20.1248 7.98373 20.9034C7.98373 21.7763 8.11349 22.6138 8.37301 23.4159C8.63252 24.2181 9.01 24.9377 9.50544 25.5747C10.0009 26.1881 10.6025 26.6717 11.3103 27.0256C12.0416 27.3795 12.8556 27.5564 13.7521 27.5564C14.3891 27.5564 15.0379 27.462 15.6984 27.2733C16.359 27.061 16.9606 26.7307 17.5033 26.2824C18.0459 25.8342 18.4588 25.2326 18.7419 24.4776L24.3687 27.8395C23.8732 29.0663 23.0475 30.1162 21.8915 30.9891C20.7354 31.862 19.426 32.5344 17.9633 33.0063C16.5006 33.4545 15.0497 33.6786 13.6105 33.6786C11.7467 33.6786 10.0363 33.313 8.47917 32.5816C6.94567 31.8266 5.6127 30.8358 4.48026 29.609C3.37142 28.3586 2.5103 26.9666 1.89689 25.4331C1.28349 23.876 0.976791 22.2953 0.976791 20.691Z" fill="white"/>
<path d="M25.4126 18.1606V23.9112" stroke="white" stroke-width="1.32707"/>
<path d="M27.6245 18.1606V23.9112" stroke="white" stroke-width="1.32707"/>
<path d="M23.8643 22.1418L29.1725 22.1418" stroke="white" stroke-width="1.32707"/>
<path d="M23.8643 19.9301L29.1725 19.9301" stroke="white" stroke-width="1.32707"/>
</svg>
