<svg width="44" height="44" viewBox="0 0 44 44" fill="none" xmlns="http://www.w3.org/2000/svg">
<path d="M18.3333 36.6666L12.8333 36.6666" stroke="white" stroke-width="2" stroke-linecap="round" stroke-linejoin="round"/>
<path d="M33 31.1666H29.3333" stroke="white" stroke-width="2" stroke-linecap="round" stroke-linejoin="round"/>
<path d="M23.8333 16.5H7.33333C6.32081 16.5 5.5 17.3208 5.5 18.3333V29.3333C5.5 30.3459 6.32081 31.1667 7.33333 31.1667H23.8333" stroke="white" stroke-width="2" stroke-linecap="round" stroke-linejoin="round"/>
<path d="M31.1667 12.8334H31.1703V12.837H31.1667V12.8334Z" stroke="white" stroke-width="2" stroke-linecap="round" stroke-linejoin="round"/>
<path d="M36.6667 7.33337H25.6667C24.6542 7.33337 23.8333 8.15419 23.8333 9.16671V34.8334C23.8333 35.8459 24.6542 36.6667 25.6667 36.6667H36.6667C37.6792 36.6667 38.5 35.8459 38.5 34.8334V9.16671C38.5 8.15419 37.6792 7.33337 36.6667 7.33337Z" stroke="white" stroke-width="2" stroke-linecap="round" stroke-linejoin="round"/>
</svg>
