<svg width="18" height="16" viewBox="0 0 18 16" fill="none" xmlns="http://www.w3.org/2000/svg">
<path d="M10.0822 6.35788C10.7441 5.95056 11.2787 5.51778 11.8896 5.28867C14.359 4.42311 16.8793 6.07785 17.0575 8.77634C17.1848 10.8129 17.083 12.8495 17.083 14.8861C17.083 15.4207 16.8538 15.6244 16.3192 15.6753C13.9517 15.9553 13.7989 15.828 13.7989 13.4605C13.7989 12.4931 13.7989 11.5003 13.7989 10.5329C13.7989 10.2274 13.7989 9.94738 13.748 9.64189C13.5444 8.34356 12.857 7.65621 11.8133 7.70712C10.7186 7.7835 9.98033 8.59814 9.95487 9.89647C9.92941 11.4748 9.92941 13.0277 9.95487 14.6061C9.98033 15.3444 9.75121 15.7008 8.96203 15.6753C6.00897 15.6498 6.56903 15.879 6.51812 13.3841C6.49266 11.093 6.49266 8.80179 6.51812 6.51063C6.51812 5.41596 6.56903 5.3905 7.68916 5.36504C8.02011 5.36504 8.37651 5.3905 8.70746 5.36504C9.44572 5.28867 10.0312 5.44141 10.0822 6.35788Z" fill="white"/>
<path d="M4.405 10.5583C4.405 11.9585 4.37954 13.3586 4.405 14.7588C4.405 15.4207 4.15043 15.6752 3.48853 15.6752C0.535471 15.6752 1.14645 15.828 1.09554 13.4604C1.07008 11.1693 1.07008 8.87811 1.09554 6.61239C1.09554 5.41589 1.12099 5.39044 2.31749 5.39044C4.71049 5.39044 4.37954 5.28861 4.37954 7.40158C4.405 8.44533 4.405 9.51454 4.405 10.5583Z" fill="white"/>
<path d="M2.85236 0.298828C3.92157 0.298828 4.65983 1.01164 4.65983 2.00448C4.65983 2.97186 3.87065 3.65921 2.80144 3.65921C1.78314 3.65921 0.943048 2.92095 0.917591 2.00448C0.892133 0.986182 1.68131 0.298828 2.85236 0.298828Z" fill="white"/>
</svg>
