<svg width="20" height="17" viewBox="0 0 20 17" fill="none" xmlns="http://www.w3.org/2000/svg">
<path d="M19.0453 0.740922C18.7711 2.15993 18.5131 3.54669 18.2551 4.94958C17.5618 8.57773 16.8684 12.222 16.175 15.8502C16.1589 15.9308 16.1589 16.0114 16.1427 16.092C15.9331 17.0596 15.4816 17.2369 14.6592 16.7048C13.6272 16.0275 12.6113 15.318 11.5955 14.6247C10.1281 13.6249 10.1281 13.6249 8.69294 14.6408C8.33819 14.8988 7.99956 15.1568 7.64481 15.3825C6.9998 15.8018 6.59667 15.6728 6.37092 14.931C6.03229 13.8023 5.67754 12.6735 5.46792 11.5125C5.29054 10.4966 4.83903 9.91612 3.82315 9.64199C2.77502 9.35174 1.74301 8.91636 0.74325 8.46486C0.436873 8.33586 0.0821201 8.01336 0.0176196 7.7231C-0.0952563 7.25547 0.356247 7.06197 0.74325 6.90072C6.41929 4.6432 12.0953 2.38569 17.7875 0.128167C18.5454 -0.17821 19.0614 0.0797921 19.0453 0.740922ZM17.1586 3.07907C17.0941 3.04682 17.0458 3.01457 16.9813 2.96619C14.2561 5.59459 11.5148 8.22298 8.69294 10.932C10.7731 12.3349 12.7726 13.6894 14.8527 15.1084C15.6429 10.9804 16.4008 7.02972 17.1586 3.07907ZM14.8044 3.06294C14.756 2.99844 14.7237 2.93394 14.6754 2.86944C10.7408 4.43358 6.79017 6.01384 2.85564 7.57798C2.85564 7.64248 2.87177 7.70698 2.87177 7.75535C3.50065 7.99723 4.09728 8.27136 4.74228 8.44873C5.82267 8.73899 6.58055 9.28724 6.66117 10.4966C6.66117 10.5611 6.72567 10.6256 6.79017 10.7546C9.48307 8.19073 12.1437 5.62684 14.8044 3.06294ZM7.5158 13.7055C7.98343 13.3669 8.35431 13.0928 8.82194 12.738C8.17693 12.3026 7.6448 11.9479 7.11268 11.5931C7.0643 11.6254 7.01593 11.6738 6.96755 11.706C7.14493 12.3349 7.30618 12.9638 7.5158 13.7055Z" fill="white"/>
</svg>
