<svg width="22" height="19" viewBox="0 0 22 19" fill="none" xmlns="http://www.w3.org/2000/svg">
<path d="M0.0580992 16.8367C2.40141 17.019 4.51232 16.4316 6.48768 14.892C4.45423 14.6084 3.05986 13.6158 2.30458 11.5496C2.94366 11.5496 3.50528 11.5496 4.04753 11.5496C4.0669 11.5091 4.08627 11.4686 4.10563 11.4281C2.01408 10.638 0.832747 9.15927 0.677817 6.7892C1.33627 6.97151 1.93662 7.13357 2.53697 7.31588C2.55634 7.27537 2.59507 7.23485 2.61444 7.19434C1.4331 6.24226 0.794015 4.98632 0.735916 3.44678C0.697184 2.57573 0.890845 1.76545 1.35563 0.934908C3.83451 3.93295 6.875 5.61429 10.6708 5.89789C10.6708 5.31043 10.6127 4.78375 10.6708 4.27732C10.8838 2.41367 11.8521 1.05645 13.5176 0.367713C15.1831 -0.321027 16.7711 -0.037428 18.1461 1.178C18.456 1.44134 18.7271 1.54262 19.0757 1.40082C19.7148 1.13748 20.3345 0.894394 20.9736 0.631052C21.0898 0.590538 21.1866 0.529768 21.3803 0.44874C21.0317 1.54262 20.412 2.31239 19.5986 2.9201C19.618 2.96061 19.6373 3.00113 19.6567 3.02138C20.3926 2.81881 21.1092 2.61624 22 2.37316C21.6514 2.83907 21.3803 3.22395 21.0704 3.56832C20.7799 3.89244 20.4701 4.1963 20.1408 4.45964C19.8697 4.68246 19.7729 4.90529 19.7729 5.26992C19.7535 9.2403 18.3785 12.6232 15.6866 15.3782C13.4208 17.6875 10.6708 18.8219 7.51409 18.9839C4.99648 19.1055 2.61443 18.5383 0.406688 17.2418C0.271125 17.1608 0.135563 17.0595 0 16.9785C0.0193662 16.9177 0.038733 16.8772 0.0580992 16.8367Z" fill="white"/>
</svg>
