<svg width="24" height="15" viewBox="0 0 24 15" fill="none" xmlns="http://www.w3.org/2000/svg">
<path d="M14.6023 11.1125C14.6023 11.8102 14.6023 12.5078 14.6023 13.1881C14.6023 14.1823 14.2879 14.6183 13.2922 14.8451C12.0344 15.1416 10.7941 14.9323 9.60626 14.5137C7.70216 13.8509 6.19985 12.6299 4.90716 11.1474C2.70609 8.6357 1.16884 5.75776 0.20806 2.5833C0.138185 2.35655 0.0857782 2.1298 0.0508407 1.90306C-0.176253 0.769323 0.365279 0.0716395 1.51822 0.0367554C2.30431 0.00187123 3.09041 0.0541974 3.8765 0.0193132C4.81982 -0.0155709 5.37882 0.437923 5.72819 1.29258C6.26972 2.60074 6.82872 3.9089 7.4576 5.18217C7.78951 5.87985 8.27863 6.49032 8.75029 7.22289C9.23941 5.67055 9.01232 3.31587 8.31357 2.09492C7.66722 0.99607 8.20876 0.0367553 9.50145 0.0193132C10.6893 0.00187117 11.8947 0.00187117 13.0825 0.0193132C14.1132 0.0367553 14.5674 0.455365 14.6023 1.50189C14.6373 2.75772 14.6023 3.99611 14.6023 5.25194C14.6023 5.53101 14.6373 5.81008 14.812 6.14148C15.1089 5.79264 15.4408 5.49613 15.6679 5.1124C16.4016 3.85657 17.1353 2.60074 17.7642 1.31003C18.2009 0.420481 18.8123 -0.033013 19.808 0.00187118C20.5592 0.0367553 21.3278 -0.0155709 22.079 0.0193132C23.197 0.0541974 23.7385 0.751881 23.4415 1.83329C23.2668 2.44376 22.9873 3.03679 22.6729 3.5775C22.0266 4.71123 21.3278 5.81008 20.6116 6.92638C19.8604 8.11244 19.7381 7.72871 20.8037 8.89733C21.5549 9.71711 22.2886 10.5369 22.9699 11.3915C23.3367 11.8625 23.6512 12.4032 23.8782 12.9788C24.2626 13.9555 23.7036 14.8625 22.6729 14.9323C21.6597 15.0021 20.6291 15.0544 19.6159 14.8974C19.0743 14.8102 18.5328 14.3741 18.0961 13.973C17.2925 13.2578 16.5938 12.4206 15.8251 11.6881C15.5282 11.3915 15.1439 11.1997 14.7945 10.9555C14.7421 11.0078 14.6722 11.0601 14.6023 11.1125ZM9.57132 1.41468C10.567 2.82749 10.3924 4.2403 10.3924 5.63566C10.3924 6.24613 10.4098 6.85661 10.3924 7.46708C10.3924 7.72871 10.3574 7.99034 10.2875 8.23453C10.043 8.98454 9.37916 9.2985 8.71535 8.87989C8.20876 8.56593 7.70216 8.14732 7.40519 7.6415C6.51429 6.14148 5.65832 4.62402 4.92463 3.05423C4.156 1.39724 4.22588 1.3798 2.37419 1.41468C1.4134 1.43212 1.361 1.50189 1.6405 2.42632C2.56634 5.4438 4.05119 8.16476 6.19985 10.4671C7.00341 11.3218 7.98166 12.0543 8.95991 12.6997C10.0255 13.3974 11.2658 13.6416 12.541 13.5892C13.0301 13.5718 13.2747 13.3625 13.2398 12.8218C13.2048 12.159 13.2223 11.4788 13.2572 10.816C13.3096 9.8392 13.8686 9.36827 14.8294 9.59501C15.371 9.71711 15.9474 9.97874 16.3667 10.345C17.2925 11.1474 18.131 12.0195 18.9695 12.909C19.4237 13.3799 19.8954 13.6765 20.5766 13.6067C21.0308 13.5718 21.5025 13.6241 21.9741 13.5892C22.5681 13.5544 22.638 13.4323 22.3235 12.8916C22.1488 12.595 21.9567 12.2985 21.7296 12.0369C20.9086 11.095 20.0701 10.1706 19.2316 9.24617C18.3756 8.3043 18.3581 7.85081 19.0394 6.7694C19.8779 5.47868 20.6989 4.17053 21.5025 2.86237C21.6772 2.56586 21.8344 2.2519 21.9741 1.9205C22.0964 1.60654 21.9741 1.41468 21.6248 1.39724C21.1007 1.3798 20.5766 1.41468 20.0526 1.3798C19.5111 1.34491 19.2141 1.55422 18.987 2.06004C18.5153 3.08912 17.9913 4.10076 17.3973 5.06007C16.8907 5.86241 16.2793 6.61242 15.6155 7.3101C15.1788 7.7636 14.6023 8.19965 13.9036 7.88569C13.1874 7.57173 13.2398 6.87405 13.2398 6.22869C13.2398 4.86821 13.2398 3.49029 13.2398 2.1298C13.2398 1.74608 13.2048 1.41468 12.7157 1.41468C11.7374 1.41468 10.7767 1.41468 9.57132 1.41468Z" fill="white"/>
</svg>
