<svg width="20" height="19" viewBox="0 0 20 19" fill="none" xmlns="http://www.w3.org/2000/svg">
<path d="M0 18.7552C0.378401 17.6867 0.712286 16.6183 1.13521 15.5721C1.51361 14.6595 1.46909 13.8805 1.04617 12.9456C-1.40231 7.64796 1.91427 1.41546 7.79062 0.213483C12.5095 -0.765909 17.2507 1.70483 18.8533 5.97854C20.9011 11.432 17.6291 17.2193 11.864 18.3768C9.88295 18.7774 7.94643 18.6439 6.09894 17.8203C5.40891 17.5087 4.76341 17.5309 4.05112 17.7758C2.80462 18.2209 1.53586 18.5993 0.267106 19C0.178071 18.8887 0.0890356 18.8219 0 18.7552ZM9.8607 1.3932C9.21519 1.48224 8.54742 1.54902 7.90191 1.68257C3.09399 2.79552 0.333884 8.18217 2.51526 12.3891C3.11625 13.5466 3.20528 14.5037 2.69333 15.6166C2.58203 15.8838 2.64881 16.2176 2.62655 16.5293C2.91592 16.507 3.22754 16.5293 3.47239 16.418C4.65211 15.8615 5.72054 15.9728 6.96704 16.507C9.97199 17.8203 13.5557 16.9967 15.8261 14.526C18.052 12.122 18.5417 9.31738 17.3397 6.29016C16.16 3.35199 13.1773 1.45998 9.8607 1.3932Z" fill="white"/>
<path d="M6.61089 4.73206C6.96704 4.82109 7.16737 4.82109 7.32318 4.93239C8.0132 5.33305 8.41386 7.31409 7.87965 7.89282C7.47899 8.36026 7.43447 8.76092 7.83513 9.13932C8.63645 9.94064 9.48229 10.6974 10.3504 11.432C10.8623 11.8549 11.3966 11.7659 11.775 11.1871C12.2201 10.4749 12.7766 10.5416 13.3776 10.92C13.5334 11.0091 13.7115 11.0981 13.8673 11.1871C14.268 11.4097 14.8022 11.521 14.7577 12.1665C14.7131 12.7898 14.4238 13.2127 13.8896 13.4798C13.2218 13.8359 12.5318 14.014 11.7527 13.7914C8.90356 12.9901 6.878 11.2094 5.54247 8.62736C4.98599 7.55894 4.8747 6.42373 5.67602 5.39982C5.94313 5.0882 6.36605 4.91013 6.61089 4.73206Z" fill="white"/>
</svg>
