<svg width="40" height="39" viewBox="0 0 40 39" fill="none" xmlns="http://www.w3.org/2000/svg">
<g clip-path="url(#clip0_308_508)">
<path d="M7.144 12.1808C6.91649 12.3156 6.53787 12.6972 6.08789 13.2507L6.50177 14.0358C6.79308 13.6188 7.08859 13.2422 7.38662 12.9213C7.41013 12.896 7.42104 12.8842 7.42104 12.8842C7.41013 12.896 7.39753 12.9095 7.38662 12.9213C7.29007 13.0274 6.99708 13.3711 6.5555 14.0518C6.98113 14.0307 7.63428 13.9431 8.16737 13.8521C8.32687 12.96 8.01206 12.5523 8.01206 12.5523C8.01206 12.5523 7.61245 11.9037 7.144 12.1808V12.1808Z" fill="white"/>
<path d="M5.75111 18.7758C5.69822 18.785 5.64449 18.7951 5.58824 18.8044C5.58824 18.8044 5.5874 18.8044 5.5874 18.8052C5.61595 18.801 5.64365 18.7968 5.67135 18.7926C5.69738 18.7867 5.72424 18.7817 5.75111 18.7758Z" fill="white"/>
<path opacity="0.35" d="M5.75111 18.7758C5.69822 18.785 5.64449 18.7951 5.58824 18.8044C5.58824 18.8044 5.5874 18.8044 5.5874 18.8052C5.61595 18.801 5.64365 18.7968 5.67135 18.7926C5.69738 18.7867 5.72424 18.7817 5.75111 18.7758Z" fill="white"/>
<path d="M5.89 18.0893C5.89 18.0893 5.89 18.0901 5.89 18.0893C5.88916 18.0893 5.88916 18.0893 5.88916 18.0901C5.89756 18.0893 5.90679 18.0876 5.91519 18.0859C5.95045 18.0808 5.98487 18.075 6.01845 18.0665C5.97647 18.0741 5.93449 18.0817 5.89 18.0893V18.0893Z" fill="white"/>
<path opacity="0.35" d="M5.89 18.0893C5.89 18.0893 5.89 18.0901 5.89 18.0893C5.88916 18.0893 5.88916 18.0893 5.88916 18.0901C5.89756 18.0893 5.90679 18.0876 5.91519 18.0859C5.95045 18.0808 5.98487 18.075 6.01845 18.0665C5.97647 18.0741 5.93449 18.0817 5.89 18.0893V18.0893Z" fill="white"/>
<path d="M5.27967 16.0651C5.4056 15.8283 5.5332 15.5975 5.66165 15.3734C5.79513 15.1393 5.93113 14.9135 6.06797 14.6945C6.07553 14.6818 6.08476 14.6684 6.09232 14.6557C6.22748 14.4409 6.36432 14.2337 6.50116 14.0366L6.08728 13.2515C6.05622 13.2894 6.02516 13.3281 5.99326 13.3686C5.87321 13.5185 5.7498 13.6786 5.62219 13.8496C5.47864 14.0416 5.33172 14.2472 5.18145 14.4628C5.04377 14.6616 4.90273 14.8697 4.76169 15.0862C4.64164 15.2698 4.52243 15.4585 4.40322 15.6523C4.39902 15.659 4.39482 15.6666 4.39062 15.6742L4.93043 16.744C5.04461 16.5124 5.16214 16.2858 5.27967 16.0651Z" fill="white"/>
<path d="M2.82145 22.0899C2.75009 22.2862 2.67789 22.4875 2.60653 22.6922C2.60569 22.6948 2.60486 22.6981 2.60318 22.7007C2.5931 22.7293 2.58219 22.7588 2.57295 22.7874C2.52426 22.9256 2.48229 23.0502 2.38574 23.3324C2.54441 23.4049 2.67202 23.597 2.79291 23.8143C2.78031 23.5894 2.68797 23.3779 2.51083 23.2145C3.2941 23.2499 3.96907 23.0511 4.3183 22.4766C4.34937 22.4252 4.37791 22.3721 4.40393 22.314C4.24527 22.5162 4.04798 22.6012 3.67775 22.581C3.67691 22.581 3.67608 22.5819 3.67524 22.5819C3.67608 22.5819 3.67691 22.581 3.67775 22.581C4.22344 22.3359 4.49628 22.1009 4.7389 21.7117C4.79599 21.619 4.85223 21.5188 4.90932 21.4067C4.43248 21.8979 3.88092 22.0377 3.29913 21.9315L2.86259 21.9796C2.84831 22.0166 2.83572 22.0529 2.82145 22.0899V22.0899Z" fill="white"/>
<path d="M3.02551 21.1101C3.11954 20.8658 3.21692 20.6182 3.31599 20.3688C3.41169 20.1296 3.50908 19.8887 3.60982 19.6477C3.71056 19.4068 3.81298 19.1634 3.91708 18.9207C4.02286 18.6739 4.13199 18.4279 4.24365 18.1828C4.35363 17.9402 4.46444 17.6993 4.57778 17.4617C4.61807 17.3758 4.66005 17.2899 4.70119 17.2048C4.77254 17.0574 4.84474 16.9108 4.91778 16.7659C4.92198 16.7583 4.92534 16.7499 4.92953 16.7423L4.38973 15.6725C4.38133 15.6868 4.3721 15.702 4.36286 15.7154C4.23693 15.9218 4.11185 16.1324 3.98928 16.3472C3.86503 16.5646 3.7433 16.7861 3.62409 17.011C3.52419 17.2006 3.42596 17.391 3.32942 17.5847C3.31011 17.6235 3.29164 17.6631 3.27233 17.7018C3.1548 17.9453 3.04902 18.1786 2.95248 18.4052C2.84334 18.6604 2.74764 18.9047 2.66452 19.1364C2.60912 19.2889 2.55958 19.4354 2.51341 19.577C2.47563 19.6974 2.44037 19.8187 2.40511 19.9392C2.32452 20.2222 2.25484 20.5053 2.19775 20.7866L2.74008 21.8607C2.81144 21.6686 2.88532 21.4732 2.96087 21.2761C2.98354 21.2196 3.00369 21.164 3.02551 21.1101V21.1101Z" fill="white"/>
<path d="M2.19171 20.823C2.12371 21.1667 2.07502 21.5087 2.05067 21.849C2.04983 21.8608 2.04899 21.8726 2.04815 21.8844C1.87857 21.6123 1.42607 21.3469 1.42691 21.3495C1.7518 21.8212 1.99778 22.2896 2.03388 22.7495C1.8601 22.7849 1.62252 22.7335 1.348 22.6324C1.63427 22.8969 1.84919 22.9694 1.93398 22.9896C1.67037 23.0064 1.39669 23.1876 1.12049 23.3965C1.52429 23.2314 1.85087 23.1657 2.08425 23.2187C1.71318 24.2717 1.34212 25.4342 0.970215 26.6692C1.08439 26.6355 1.15239 26.558 1.19017 26.4543C1.25649 26.2311 1.69556 24.7637 2.3848 22.8371C2.40494 22.7824 2.42425 22.7268 2.4444 22.672C2.44944 22.656 2.45532 22.6408 2.46119 22.6265C2.53339 22.4244 2.60979 22.218 2.68702 22.0074C2.70465 21.9594 2.72228 21.9113 2.74075 21.8633C2.74075 21.8625 2.74159 21.8616 2.74159 21.8608L2.19842 20.7867C2.19674 20.7977 2.19423 20.8103 2.19171 20.823Z" fill="white"/>
<path d="M5.01314 16.8317C4.99719 16.8637 4.98208 16.8957 4.96613 16.9277C4.91911 17.0246 4.8721 17.1231 4.82341 17.2242C4.77136 17.3337 4.71931 17.4449 4.66642 17.5595C4.63956 17.6168 4.61269 17.6749 4.58583 17.7339C4.50523 17.9099 4.4238 18.0919 4.34069 18.2798C4.23911 18.5097 4.13417 18.7498 4.02923 18.9992C3.92933 19.2367 3.82607 19.4818 3.72365 19.7362C3.62542 19.9772 3.52636 20.2265 3.42562 20.4826C3.33579 20.7109 3.24512 20.9468 3.15446 21.1885C3.15026 21.1995 3.14606 21.2121 3.14186 21.2231C3.0512 21.4631 2.95969 21.71 2.86818 21.9627C2.8665 21.9686 2.86398 21.9736 2.8623 21.9804L3.29885 21.9324C3.29046 21.9307 3.28122 21.9298 3.27283 21.9281C3.79417 21.8633 4.48844 21.4716 4.9359 20.9889C5.14242 20.7665 5.32964 20.5037 5.50258 20.1962C5.63102 19.9679 5.75275 19.7135 5.8686 19.433C5.96935 19.1878 6.06589 18.9217 6.15908 18.6344C6.03903 18.6976 5.90219 18.7448 5.75107 18.7768C5.72421 18.7827 5.69734 18.7877 5.66964 18.7928C5.64194 18.7978 5.61423 18.802 5.58569 18.8054C5.58569 18.8054 5.58653 18.8054 5.58653 18.8046C6.07345 18.6167 6.37987 18.2545 6.60234 17.8105C6.47473 17.8981 6.26653 18.0127 6.0172 18.0675C5.98362 18.0751 5.9492 18.0809 5.91394 18.0868C5.90554 18.0877 5.89631 18.0894 5.88791 18.0911H5.88875C5.88875 18.0911 5.88875 18.0911 5.88959 18.0911C6.05917 18.0203 6.20105 17.9403 6.32446 17.8468C6.35133 17.8265 6.37735 17.8063 6.40086 17.7844C6.43863 17.7516 6.47389 17.717 6.50915 17.6817C6.53098 17.6581 6.55197 17.6345 6.57296 17.61C6.62165 17.5519 6.66698 17.4896 6.70896 17.4222C6.72155 17.4011 6.73498 17.3809 6.74674 17.359C6.76353 17.3278 6.77864 17.2967 6.79375 17.2672C6.86175 17.1307 6.91632 17.0077 6.95913 16.9008C6.98096 16.8468 6.99943 16.798 7.01622 16.7508C7.02294 16.7323 7.02881 16.7146 7.03469 16.6969C7.05232 16.6455 7.06575 16.6 7.07667 16.5596C7.09346 16.4989 7.10353 16.4509 7.10857 16.4164C7.09178 16.429 7.07331 16.4425 7.05148 16.4551C6.90456 16.5436 6.65271 16.6228 6.44955 16.6607L6.85 16.6169L6.44955 16.6607C6.44703 16.6615 6.44367 16.6615 6.44031 16.6624C6.41933 16.6657 6.40002 16.6691 6.37903 16.6716C6.38239 16.6699 6.38575 16.6683 6.3891 16.6666L5.01818 16.8174C5.01818 16.8207 5.01566 16.8266 5.01314 16.8317V16.8317Z" fill="white"/>
<path d="M6.55633 14.0517C6.4346 14.2395 6.30196 14.4527 6.15756 14.6944C6.15001 14.7062 6.14161 14.7205 6.13489 14.7323C6.01149 14.9413 5.88052 15.1704 5.74116 15.4223C5.62195 15.6396 5.4977 15.8721 5.36842 16.1223C5.25592 16.3405 5.14007 16.5721 5.02002 16.8173L6.39095 16.6665C6.79055 16.482 6.96853 16.316 7.14147 16.0743C7.18681 16.0077 7.23382 15.9386 7.27915 15.8662C7.42019 15.6455 7.55787 15.4029 7.68128 15.1611C7.80049 14.9278 7.90543 14.697 7.98602 14.488C8.03723 14.3558 8.07837 14.2328 8.10691 14.1241C8.1321 14.0289 8.15141 13.938 8.16652 13.8512C7.63511 13.943 6.98112 14.0306 6.55633 14.0517V14.0517Z" fill="white"/>
<path d="M5.66989 18.791C5.64219 18.7961 5.61448 18.8003 5.58594 18.8037C5.61448 18.8011 5.64302 18.7961 5.66989 18.791Z" fill="white"/>
<path opacity="0.35" d="M5.66989 18.791C5.64219 18.7961 5.61448 18.8003 5.58594 18.8037C5.61448 18.8011 5.64302 18.7961 5.66989 18.791Z" fill="white"/>
<path d="M5.66989 18.791C5.64219 18.7961 5.61448 18.8003 5.58594 18.8037C5.61448 18.8011 5.64302 18.7961 5.66989 18.791Z" fill="white"/>
<path d="M5.88916 18.0903C5.89756 18.0894 5.90679 18.0877 5.91519 18.0861C5.90679 18.0869 5.89839 18.0894 5.88916 18.0903Z" fill="white"/>
<path opacity="0.35" d="M5.88916 18.0903C5.89756 18.0894 5.90679 18.0877 5.91519 18.0861C5.90679 18.0869 5.89839 18.0894 5.88916 18.0903Z" fill="white"/>
<path d="M5.88916 18.0903C5.89756 18.0894 5.90679 18.0877 5.91519 18.0861C5.90679 18.0869 5.89839 18.0894 5.88916 18.0903Z" fill="white"/>
<path d="M5.88916 18.0903C5.89023 18.0903 5.89023 18.0893 5.88916 18.0903C5.89023 18.0893 5.89023 18.0903 5.88916 18.0903Z" fill="white"/>
<path opacity="0.35" d="M5.88916 18.0903C5.89023 18.0903 5.89023 18.0893 5.88916 18.0903C5.89023 18.0893 5.89023 18.0903 5.88916 18.0903Z" fill="white"/>
<path d="M5.88916 18.0903C5.89023 18.0903 5.89023 18.0893 5.88916 18.0903C5.89023 18.0893 5.89023 18.0903 5.88916 18.0903Z" fill="white"/>
<path d="M25.5289 21.9375C25.4448 21.9223 25.1272 21.8407 25.0775 21.8214C24.961 21.7763 24.5609 21.5706 24.514 21.5318C24.4512 21.4798 24.4431 21.4735 24.3287 21.388C24.2154 21.3033 23.9723 21.0593 23.8879 20.9456C23.8518 20.897 23.8123 20.8452 23.8002 20.8304C23.7881 20.8156 23.7678 20.7908 23.7551 20.7751C23.7284 20.7424 23.5029 20.3601 23.5029 20.3476C23.5029 20.343 23.4795 20.2868 23.4508 20.2226C23.4221 20.1584 23.3814 20.0562 23.3604 19.9955C23.3393 19.9347 23.3136 19.8651 23.3032 19.8408C23.2799 19.7864 23.2163 19.4858 23.1933 19.3215C23.169 19.1477 23.1698 18.6709 23.1946 18.5149C23.2599 18.104 23.3115 17.9284 23.4611 17.6075C23.4841 17.5581 23.5029 17.5059 23.5029 17.4915C23.5029 17.4771 23.5128 17.4653 23.5249 17.4653C23.537 17.4653 23.547 17.4525 23.547 17.4368C23.547 17.4211 23.6081 17.3152 23.6829 17.2015C23.8042 17.017 24.0805 16.7108 24.2627 16.5588C24.4511 16.4016 24.8239 16.1967 25.0466 16.1279C25.112 16.1077 25.1903 16.0826 25.2206 16.0721C25.3325 16.0333 25.5475 16.0051 25.8262 15.9926C26.1854 15.9765 26.5623 16.0236 26.8282 16.1177C27.0271 16.1881 27.2088 16.2723 27.2209 16.2997C27.225 16.3088 27.2379 16.3163 27.2497 16.3163C27.2961 16.3163 27.5461 16.5063 27.6962 16.6557C27.8699 16.8286 27.9836 16.98 28.0737 17.1584C28.1301 17.2702 28.1308 17.2756 28.0914 17.3029C28.0688 17.3185 28.04 17.339 28.0273 17.3486C28.0146 17.3581 27.9784 17.3808 27.9468 17.399C27.9153 17.4173 27.8438 17.4605 27.788 17.4952C27.6743 17.5658 27.6309 17.5607 27.5975 17.4724C27.5041 17.226 27.0758 16.8216 26.7842 16.7045C26.463 16.5756 26.2683 16.5372 25.9378 16.5374C25.5876 16.5378 25.3624 16.5808 25.0825 16.7013C24.9869 16.7425 24.7829 16.8648 24.7401 16.9066C24.7241 16.9222 24.7042 16.935 24.6959 16.935C24.6725 16.935 24.4276 17.1775 24.3199 17.3074C24.2032 17.448 24.0006 17.8095 23.9528 17.9625C23.9337 18.0233 23.9095 18.0929 23.8989 18.1172C23.8053 18.331 23.7502 18.8491 23.7843 19.1944C23.8076 19.4308 23.8565 19.6783 23.899 19.7745C23.9098 19.7988 23.9251 19.8435 23.9332 19.8739C23.9687 20.0079 24.176 20.3956 24.2847 20.5312C24.3932 20.6665 24.5912 20.8754 24.6811 20.9494C24.784 21.0342 25.1182 21.2438 25.1509 21.2441C25.1589 21.2441 25.1911 21.2576 25.2224 21.274C25.2537 21.2904 25.3676 21.3276 25.4757 21.3567C25.6408 21.4012 25.7194 21.4092 25.9694 21.4069C26.3876 21.4031 26.653 21.3307 27.0044 21.1244C27.2346 20.9893 27.5527 20.6773 27.665 20.4763C27.7074 20.4005 27.752 20.3383 27.7641 20.3381C27.8108 20.3375 28.2376 20.5705 28.2376 20.5966C28.2376 20.6276 28.1093 20.8732 28.0842 20.8904C28.0753 20.8965 28.0566 20.9232 28.0426 20.9498C27.9901 21.05 27.749 21.2866 27.5219 21.4608C27.4014 21.5532 27.0823 21.7158 26.8612 21.7974C26.5675 21.9059 26.3893 21.935 25.9804 21.9413C25.7623 21.9446 25.5592 21.9429 25.5289 21.9375V21.9375ZM7.95557 21.9066C7.95557 21.8942 7.96513 21.8669 7.97682 21.8458C7.9885 21.8247 8.01877 21.7577 8.04408 21.6969C8.06939 21.6362 8.09883 21.5666 8.10949 21.5423C8.12015 21.518 8.18944 21.3539 8.26347 21.1777C8.3375 21.0014 8.40706 20.8374 8.41807 20.8131C8.42907 20.7887 8.46373 20.7042 8.4951 20.6252C8.52646 20.5462 8.56105 20.4617 8.57196 20.4374C8.58287 20.4131 8.61287 20.3435 8.63863 20.2827C8.66439 20.222 8.69961 20.1409 8.71691 20.1026C8.7342 20.0643 8.74835 20.0265 8.74835 20.0185C8.74835 20.006 8.79057 19.9041 8.85867 19.7524C8.86958 19.7281 8.90417 19.6436 8.93553 19.5646C8.9669 19.4856 9.00158 19.401 9.01261 19.3767C9.02364 19.3524 9.05832 19.2679 9.08968 19.1889C9.12105 19.1099 9.15564 19.0254 9.16655 19.0011C9.17745 18.9768 9.20728 18.9072 9.23282 18.8464C9.25837 18.7856 9.28801 18.716 9.29868 18.6917C9.30935 18.6674 9.36383 18.5381 9.41975 18.4045C9.47566 18.2708 9.53031 18.1415 9.54119 18.1172C9.55206 18.0929 9.60158 17.9736 9.65124 17.852C9.7009 17.7305 9.75039 17.6112 9.76121 17.5869C9.77204 17.5626 9.81556 17.4581 9.85792 17.3548C10.0953 16.7761 10.1496 16.6452 10.2023 16.5262C10.213 16.5019 10.2477 16.4174 10.2793 16.3384C10.3109 16.2594 10.356 16.1525 10.3795 16.1008L10.4222 16.0069H10.6616H10.9011L10.9503 16.1229C11.0115 16.2672 11.0789 16.4238 11.1047 16.482C11.1796 16.6509 11.2148 16.7355 11.2148 16.7472C11.2148 16.7595 11.257 16.8596 11.3375 17.0378C11.3548 17.0761 11.3689 17.1139 11.3689 17.1218C11.3689 17.1343 11.403 17.2166 11.479 17.388C11.554 17.5569 11.5892 17.6415 11.5892 17.6531C11.5892 17.6606 11.6097 17.7133 11.6348 17.7704C11.6599 17.8274 11.6952 17.9089 11.7134 17.9515C11.7315 17.994 11.7551 18.0487 11.7658 18.073C11.7766 18.0973 11.811 18.1818 11.8424 18.2608C11.8738 18.3398 11.9083 18.4243 11.9191 18.4486C11.9299 18.473 11.9994 18.637 12.0736 18.8133C12.1478 18.9895 12.2174 19.1535 12.2282 19.1779C12.239 19.2022 12.264 19.2618 12.2837 19.3104C12.4862 19.8095 12.5666 20.0057 12.5916 20.0617C12.6079 20.0982 12.662 20.2275 12.7119 20.349C12.7617 20.4705 12.8114 20.5899 12.8223 20.6142C12.8331 20.6385 12.8629 20.7081 12.8884 20.7689C12.914 20.8296 12.9438 20.8992 12.9547 20.9235C12.9656 20.9478 13.0002 21.0324 13.0316 21.1114C13.0629 21.1904 13.0976 21.2749 13.1085 21.2992C13.2152 21.5363 13.3509 21.8709 13.3509 21.8967C13.3509 21.9235 13.297 21.929 13.0331 21.929C12.7226 21.929 12.7149 21.9278 12.7001 21.8792C12.6866 21.8348 12.6354 21.7101 12.5799 21.5865C12.569 21.5621 12.5342 21.4776 12.5027 21.3986C12.4488 21.264 12.4053 21.1599 12.3594 21.0561C12.3487 21.0318 12.3142 20.9473 12.2828 20.8683C12.2515 20.7893 12.2169 20.7048 12.206 20.6805C12.1392 20.5316 12.0957 20.427 12.0957 20.4153C12.0957 20.4079 12.0772 20.3601 12.0547 20.3091C12.0322 20.2581 12.0001 20.1841 11.9833 20.1446L11.9528 20.0728H10.6506H9.34836L9.30394 20.1778C9.27951 20.2355 9.23241 20.3523 9.19928 20.4374C9.16614 20.5225 9.1205 20.6338 9.09784 20.6848C9.07519 20.7358 9.05665 20.7835 9.05665 20.791C9.05665 20.8027 9.01312 20.9073 8.94633 21.0561C8.93542 21.0804 8.90083 21.1649 8.86947 21.2439C8.8381 21.3229 8.80322 21.4075 8.79194 21.4318C8.78067 21.4561 8.73564 21.5655 8.69187 21.6748C8.64811 21.7842 8.60716 21.8861 8.60089 21.9013C8.5864 21.9364 7.95557 21.9415 7.95557 21.9066V21.9066ZM11.8094 19.5854C11.8094 19.5644 11.7769 19.4849 11.6867 19.285C11.6694 19.2467 11.6552 19.2084 11.6552 19.2C11.6552 19.1915 11.6408 19.1532 11.6232 19.1149C11.6056 19.0766 11.5361 18.9061 11.4686 18.7359C11.4012 18.5658 11.3369 18.4067 11.3256 18.3824C11.3144 18.358 11.2597 18.2188 11.204 18.073C11.1483 17.9272 11.094 17.7879 11.0832 17.7636C11.0724 17.7393 11.0488 17.6846 11.0307 17.6421C11.0126 17.5996 10.9772 17.5181 10.9521 17.461C10.927 17.404 10.9064 17.3493 10.9063 17.3395C10.9063 17.3297 10.8934 17.2968 10.8778 17.2664C10.8621 17.2361 10.8255 17.1466 10.7964 17.0676C10.7672 16.9886 10.7306 16.8991 10.715 16.8687C10.6993 16.8383 10.6865 16.801 10.6864 16.7858C10.686 16.7394 10.6461 16.7551 10.6302 16.8079C10.622 16.8353 10.6022 16.8875 10.5862 16.9239C10.5702 16.9604 10.5163 17.0897 10.4664 17.2112C10.4165 17.3327 10.3469 17.5018 10.3116 17.5869C10.2764 17.6719 10.0893 18.1244 9.89594 18.5923C9.70254 19.0602 9.5286 19.4803 9.50939 19.5259L9.47447 19.6088H10.6419C11.446 19.6088 11.8094 19.6015 11.8094 19.5854V19.5854ZM13.9675 18.9679V16.0069L15.1952 16.0073C16.4775 16.0076 16.7097 16.0195 16.9153 16.0964C17.0604 16.1507 17.2853 16.2625 17.3264 16.3008C17.3422 16.3155 17.3881 16.3522 17.4285 16.3823C17.7126 16.5944 17.984 17.0176 18.0876 17.4103C18.1879 17.7905 18.1469 18.308 17.9879 18.6687C17.7597 19.1865 17.3756 19.5448 16.8908 19.6924C16.7935 19.7219 16.6002 19.7288 15.6687 19.7358L14.5621 19.7441V20.8366V21.9292H14.2648H13.9675V18.9681V18.9679ZM16.581 19.1871C16.9872 19.1307 17.3164 18.8201 17.4809 18.3382C17.5375 18.1724 17.5504 17.7147 17.5037 17.5307C17.4401 17.2808 17.3237 17.0733 17.1509 16.9018C17.0651 16.8168 16.9653 16.7323 16.9291 16.7141C16.893 16.6958 16.8584 16.6756 16.8523 16.669C16.8463 16.6625 16.7967 16.6378 16.7422 16.6143C16.6497 16.5743 16.5742 16.571 15.6026 16.5644L14.5621 16.5573V17.8842V19.211H15.4854C16.0268 19.211 16.48 19.2011 16.581 19.1871V19.1871ZM17.8143 21.9124C17.809 21.9033 17.8426 21.8063 17.889 21.6969C17.9354 21.5876 18.0589 21.2892 18.1634 21.034C18.268 20.7788 18.3668 20.5402 18.3832 20.5037C18.3995 20.4672 18.4539 20.338 18.504 20.2164C18.5917 20.0036 18.6393 19.8904 18.6805 19.7966C18.6912 19.7723 18.7408 19.6529 18.7907 19.5314C18.8405 19.4099 18.8944 19.2806 18.9104 19.2442C18.9264 19.2077 18.9906 19.0536 19.053 18.9016C19.1154 18.7497 19.1952 18.5558 19.2302 18.4707C19.305 18.2894 19.5549 17.6952 19.5834 17.6311C19.5943 17.6067 19.6288 17.5222 19.6601 17.4432C19.6915 17.3642 19.7261 17.2797 19.737 17.2554C19.7479 17.2311 19.7779 17.1615 19.8037 17.1007C19.8294 17.04 19.8646 16.9589 19.8819 16.9206C19.8992 16.8823 19.9134 16.8445 19.9134 16.8365C19.9134 16.824 19.9474 16.7417 20.0235 16.5704C20.0672 16.4718 20.1301 16.32 20.1789 16.1947C20.2074 16.1218 20.2398 16.0497 20.2509 16.0345C20.2649 16.0154 20.3439 16.0069 20.508 16.0069H20.7449L20.7736 16.0787C20.8314 16.2231 21.0843 16.8256 21.147 16.9681C21.1577 16.9924 21.207 17.1118 21.2567 17.2333C21.3064 17.3548 21.3561 17.4742 21.3672 17.4985C21.3784 17.5228 21.4626 17.7266 21.5543 17.9515C21.646 18.1763 21.73 18.3802 21.7409 18.4045C21.7518 18.4288 21.8122 18.5729 21.8752 18.7249C22.024 19.0839 22.1787 19.4535 22.2036 19.5093C22.2144 19.5336 22.2442 19.6032 22.2697 19.664C22.2952 19.7248 22.3251 19.7944 22.336 19.8187C22.3469 19.843 22.3816 19.9275 22.4132 20.0065C22.4671 20.1411 22.5106 20.2453 22.5565 20.349C22.5672 20.3733 22.6019 20.4578 22.6334 20.5368C22.665 20.6158 22.7051 20.7118 22.7225 20.7501C22.7399 20.7884 22.7542 20.8266 22.7542 20.8349C22.7542 20.8433 22.7839 20.9145 22.8202 20.9933C22.8566 21.0721 22.8863 21.1418 22.8863 21.1482C22.8863 21.1547 22.9006 21.1913 22.918 21.2296C22.9354 21.2679 22.9755 21.3638 23.007 21.4428C23.0386 21.5218 23.0734 21.6063 23.0843 21.6307C23.1606 21.8006 23.1946 21.8855 23.1946 21.9057C23.1946 21.9412 22.5899 21.9371 22.5613 21.9013C22.5491 21.8861 22.4526 21.6599 22.3468 21.3986C22.2409 21.1373 22.1412 20.8937 22.1253 20.8572C22.1093 20.8208 22.0704 20.7263 22.0389 20.6473C22.0073 20.5683 21.9725 20.4838 21.9616 20.4595C21.9317 20.393 21.8619 20.2257 21.83 20.1444L21.8018 20.0725L20.4917 20.0781L19.1815 20.0838L19.0512 20.4043C18.9794 20.5805 18.9112 20.7477 18.8996 20.7758C18.8879 20.804 18.8784 20.8318 18.8784 20.8378C18.8784 20.8473 18.8305 20.961 18.768 21.1003C18.7571 21.1246 18.7224 21.2091 18.6908 21.2881C18.6592 21.3671 18.6204 21.4616 18.6045 21.4981C18.5886 21.5345 18.5426 21.6464 18.5024 21.7467L18.4293 21.929H18.1266C17.9601 21.929 17.8196 21.9215 17.8143 21.9124V21.9124ZM21.6531 19.597C21.6531 19.5861 21.5773 19.3968 21.5118 19.2442C21.4962 19.2077 21.4601 19.1132 21.4316 19.0342C21.4032 18.9552 21.3671 18.8657 21.3515 18.8354C21.3358 18.805 21.323 18.7721 21.3229 18.7623C21.3225 18.7469 21.284 18.6522 21.2124 18.4928C21.2015 18.4685 21.1668 18.384 21.1352 18.305C21.1036 18.226 21.0648 18.1316 21.0489 18.0951C21.033 18.0586 21.0018 17.9791 20.9796 17.9183C20.9573 17.8575 20.9264 17.783 20.9108 17.7526C20.8953 17.7222 20.8825 17.6889 20.8825 17.6786C20.8825 17.6683 20.868 17.6285 20.8505 17.5902C20.833 17.5519 20.7822 17.4261 20.7377 17.3106C20.6931 17.1952 20.6395 17.0609 20.6185 17.0123C20.5975 16.9637 20.5665 16.8916 20.5497 16.8521C20.5116 16.7624 20.4867 16.7696 20.4491 16.881C20.433 16.9289 20.4104 16.988 20.399 17.0123C20.3876 17.0366 20.3573 17.1062 20.3318 17.167C20.3062 17.2278 20.2764 17.2974 20.2655 17.3217C20.2476 17.3615 20.008 17.9361 19.7126 18.6475C19.6521 18.7934 19.5937 18.9326 19.5829 18.9569C19.5721 18.9812 19.5228 19.1005 19.4733 19.2221C19.4239 19.3436 19.3689 19.4757 19.3511 19.5156C19.3333 19.5555 19.3188 19.5928 19.3188 19.5985C19.3188 19.6041 19.844 19.6088 20.4859 19.6088C21.1279 19.6088 21.6531 19.6035 21.6531 19.597V19.597ZM29.0408 21.902C29.0349 21.8864 29.0326 20.5562 29.0357 18.9458L29.0414 16.018H29.3277H29.6139L29.6196 17.3272L29.6253 18.6365H31.3538H33.0824V17.3217V16.0069H33.3797H33.677V18.9679V21.929H33.3797H33.0824V20.5479V19.1668H31.3538H29.6253L29.6196 20.5424L29.6139 21.9179L29.3327 21.9241C29.1199 21.9288 29.0489 21.9234 29.0408 21.902V21.902ZM34.9762 18.9679V16.0069H36.9142H38.8521V16.2831V16.5593H37.2114H35.5708V17.5979V18.6365H37.0022H38.4337V18.9016V19.1668H37.0022H35.5708V20.2717V21.3765H37.2445H38.9181V21.6527V21.929H36.9472H34.9762V18.9679Z" fill="white"/>
<path d="M7.78613 24.4644V22.6313H8.09451V23.4259H9.00136V22.6313H9.30974V24.4644H9.00136V23.7144H8.09451V24.4644H7.78613Z" fill="white"/>
<path d="M10.5079 22.9146V24.4644H10.1995V22.9146H9.64551V22.6313H11.062V22.9146H10.5079Z" fill="white"/>
<path d="M12.0851 22.9146V24.4644H11.7767V22.9146H11.2227V22.6313H12.6391V22.9146H12.0851Z" fill="white"/>
<path d="M13.5994 22.6313C13.8764 22.6313 14.0785 22.6847 14.2057 22.7913C14.3329 22.898 14.3965 23.0623 14.3965 23.2843C14.3965 23.5063 14.3311 23.6689 14.2005 23.7721C14.0715 23.8752 13.8729 23.9268 13.6046 23.9268H13.2805V24.4644H12.9722V22.6313H13.5994ZM13.6386 23.6462C13.8093 23.6462 13.9252 23.6139 13.9862 23.5492C14.0489 23.4827 14.0802 23.3866 14.0802 23.2607C14.0802 23.1331 14.041 23.0431 13.9626 22.9906C13.8842 22.9382 13.7614 22.9119 13.5942 22.9119H13.2805V23.6462H13.6386Z" fill="white"/>
<path d="M16.0246 22.8726C15.9358 22.8726 15.8626 22.891 15.8051 22.9277C15.7476 22.9644 15.7188 23.0204 15.7188 23.0955C15.7188 23.169 15.7476 23.2258 15.8051 23.266C15.8626 23.3044 15.9845 23.3464 16.171 23.3919C16.3591 23.4373 16.5002 23.5011 16.5943 23.5833C16.6902 23.6655 16.7381 23.787 16.7381 23.9478C16.7381 24.1069 16.678 24.2363 16.5577 24.3359C16.4375 24.4356 16.2799 24.4854 16.0847 24.4854C15.799 24.4854 15.5455 24.3866 15.3242 24.1891L15.5176 23.9557C15.7023 24.1165 15.8939 24.1969 16.0926 24.1969C16.1919 24.1969 16.2703 24.1759 16.3278 24.134C16.387 24.0903 16.4166 24.0335 16.4166 23.9635C16.4166 23.8919 16.3887 23.8368 16.333 23.7983C16.279 23.7581 16.1849 23.7223 16.0507 23.6908C15.9166 23.6576 15.8147 23.6279 15.745 23.6016C15.6753 23.5737 15.6134 23.5378 15.5594 23.4941C15.4514 23.412 15.3974 23.2861 15.3974 23.1165C15.3974 22.9469 15.4584 22.8167 15.5803 22.7258C15.704 22.6331 15.8565 22.5868 16.0377 22.5868C16.1544 22.5868 16.2703 22.606 16.3853 22.6445C16.5002 22.6829 16.5996 22.7371 16.6832 22.8071L16.5185 23.0405C16.4645 22.9915 16.3914 22.9513 16.299 22.9198C16.2067 22.8884 16.1152 22.8726 16.0246 22.8726V22.8726Z" fill="white"/>
<path d="M18.4052 22.6313V22.9224H17.4305V23.4076H18.3059V23.6829H17.4305V24.1733H18.4366V24.4644H17.1221V22.6313H18.4052Z" fill="white"/>
<path d="M20.2903 23.2266C20.2903 23.5291 20.1588 23.7196 19.8957 23.7983L20.3739 24.4644H19.9819L19.5455 23.8481H19.1404V24.4644H18.832V22.6313H19.5115C19.7903 22.6313 19.9898 22.6785 20.11 22.773C20.2302 22.8674 20.2903 23.0186 20.2903 23.2266V23.2266ZM19.5246 23.5675C19.6988 23.5675 19.8173 23.5404 19.88 23.4862C19.9427 23.432 19.9741 23.3455 19.9741 23.2266C19.9741 23.106 19.9419 23.0238 19.8774 22.9801C19.8129 22.9347 19.6979 22.9119 19.5324 22.9119H19.1404V23.5675H19.5246Z" fill="white"/>
<path d="M21.5442 24.4644H21.1992L20.4648 22.6313H20.8098L21.3717 24.0002L21.9336 22.6313H22.2785L21.5442 24.4644Z" fill="white"/>
<path d="M23.8208 22.6313V22.9224H22.846V23.4076H23.7215V23.6829H22.846V24.1733H23.8521V24.4644H22.5376V22.6313H23.8208Z" fill="white"/>
<path d="M25.7058 23.2266C25.7058 23.5291 25.5743 23.7196 25.3112 23.7983L25.7895 24.4644H25.3975L24.961 23.8481H24.5559V24.4644H24.2476V22.6313H24.927C25.2058 22.6313 25.4053 22.6785 25.5255 22.773C25.6457 22.8674 25.7058 23.0186 25.7058 23.2266V23.2266ZM24.9401 23.5675C25.1143 23.5675 25.2328 23.5404 25.2955 23.4862C25.3583 23.432 25.3896 23.3455 25.3896 23.2266C25.3896 23.106 25.3574 23.0238 25.2929 22.9801C25.2285 22.9347 25.1135 22.9119 24.948 22.9119H24.5559V23.5675H24.9401Z" fill="white"/>
<path d="M27.4934 22.6313C27.7704 22.6313 27.9726 22.6847 28.0997 22.7913C28.2269 22.898 28.2905 23.0623 28.2905 23.2843C28.2905 23.5063 28.2252 23.6689 28.0945 23.7721C27.9656 23.8752 27.767 23.9268 27.4987 23.9268H27.1746V24.4644H26.8662V22.6313H27.4934ZM27.5326 23.6462C27.7034 23.6462 27.8192 23.6139 27.8802 23.5492C27.9429 23.4827 27.9743 23.3866 27.9743 23.2607C27.9743 23.1331 27.9351 23.0431 27.8567 22.9906C27.7783 22.9382 27.6555 22.9119 27.4882 22.9119H27.1746V23.6462H27.5326Z" fill="white"/>
<path d="M30.1111 23.2266C30.1111 23.5291 29.9796 23.7196 29.7165 23.7983L30.1947 24.4644H29.8027L29.3663 23.8481H28.9612V24.4644H28.6528V22.6313H29.3323C29.6111 22.6313 29.8106 22.6785 29.9308 22.773C30.051 22.8674 30.1111 23.0186 30.1111 23.2266V23.2266ZM29.3454 23.5675C29.5196 23.5675 29.6381 23.5404 29.7008 23.4862C29.7635 23.432 29.7949 23.3455 29.7949 23.2266C29.7949 23.106 29.7627 23.0238 29.6982 22.9801C29.6337 22.9347 29.5187 22.9119 29.3532 22.9119H28.9612V23.5675H29.3454Z" fill="white"/>
<path d="M31.858 23.0641C31.7343 22.9347 31.5819 22.87 31.4007 22.87C31.2195 22.87 31.0662 22.9347 30.9407 23.0641C30.817 23.1934 30.7552 23.3508 30.7552 23.5361C30.7552 23.7196 30.817 23.8761 30.9407 24.0055C31.0662 24.1349 31.2195 24.1995 31.4007 24.1995C31.5819 24.1995 31.7343 24.1349 31.858 24.0055C31.9835 23.8761 32.0462 23.7196 32.0462 23.5361C32.0462 23.3508 31.9835 23.1934 31.858 23.0641ZM32.0854 24.2127C31.9007 24.3927 31.6725 24.4828 31.4007 24.4828C31.1289 24.4828 30.9007 24.3927 30.716 24.2127C30.5313 24.0308 30.439 23.8053 30.439 23.5361C30.439 23.2651 30.5313 23.0396 30.716 22.8595C30.9007 22.6777 31.1289 22.5868 31.4007 22.5868C31.6725 22.5868 31.9007 22.6777 32.0854 22.8595C32.2701 23.0396 32.3624 23.2651 32.3624 23.5361C32.3624 23.8053 32.2701 24.0308 32.0854 24.2127Z" fill="white"/>
<path d="M32.7555 22.9093V22.6313H33.6441V23.8403C33.6441 24.0535 33.5901 24.2135 33.4821 24.3201C33.374 24.4268 33.2355 24.4801 33.0665 24.4801C32.854 24.4801 32.6728 24.4049 32.5229 24.2546L32.698 24.0107C32.8165 24.1243 32.9324 24.1812 33.0456 24.1812C33.1258 24.1812 33.1937 24.1541 33.2495 24.0999C33.307 24.0457 33.3357 23.9644 33.3357 23.856V22.9093H32.7555Z" fill="white"/>
<path d="M35.4179 22.6313V22.9224H34.4431V23.4076H35.3186V23.6829H34.4431V24.1733H35.4493V24.4644H34.1348V22.6313H35.4179Z" fill="white"/>
<path d="M36.6783 24.1838C36.7846 24.1838 36.8761 24.1663 36.9527 24.1314C37.0294 24.0946 37.1095 24.037 37.1932 23.9583L37.3918 24.1628C37.1984 24.3779 36.9632 24.4854 36.6862 24.4854C36.4109 24.4854 36.1818 24.3962 35.9988 24.2179C35.8177 24.0396 35.7271 23.8141 35.7271 23.5413C35.7271 23.2686 35.8194 23.0413 36.0041 22.8595C36.1905 22.6777 36.4248 22.5868 36.7071 22.5868C36.9911 22.5868 37.228 22.6917 37.4179 22.9015L37.2219 23.1165C37.1348 23.0326 37.052 22.974 36.9736 22.9408C36.897 22.9076 36.8064 22.891 36.7019 22.891C36.5172 22.891 36.3621 22.9513 36.2367 23.0719C36.1112 23.1908 36.0485 23.3438 36.0485 23.5308C36.0485 23.7162 36.1103 23.8717 36.234 23.9976C36.3595 24.1217 36.5076 24.1838 36.6783 24.1838V24.1838Z" fill="white"/>
<path d="M38.4591 22.9146V24.4644H38.1507V22.9146H37.5967V22.6313H39.0131V22.9146H38.4591Z" fill="white"/>
</g>
<defs>
<clipPath id="clip0_308_508">
<rect width="38.0427" height="38.0427" fill="white" transform="translate(0.970215 0.369141)"/>
</clipPath>
</defs>
</svg>
