<svg width="37" height="37" viewBox="0 0 37 37" fill="none" xmlns="http://www.w3.org/2000/svg">
<path d="M4.99778 8.55165C4.93226 6.66748 6.40005 4.93012 8.3843 4.93012H28.7162C30.7004 4.93012 32.1682 6.66748 32.1027 8.55165C32.0396 10.3614 32.1215 12.7059 32.7115 14.6175C33.3034 16.5351 34.3015 17.7469 35.9363 17.9028V19.6686C34.3015 19.8246 33.3034 21.0364 32.7115 22.954C32.1215 24.8655 32.0396 27.21 32.1027 29.0198C32.1682 30.904 30.7004 32.641 28.7162 32.641H8.3843C6.40005 32.641 4.93226 30.9037 4.99778 29.0198C5.06082 27.21 4.97898 24.8655 4.38871 22.954C3.79706 21.0366 2.79622 19.8246 1.16144 19.6686V17.9028C2.79622 17.7472 3.79706 16.5351 4.38871 14.6175C4.97898 12.7059 5.06054 10.3614 4.99778 8.55165V8.55165Z" fill="#D8D8D8" fill-opacity="0.62"/>
<g filter="url(#filter0_d_337_836)">
<path d="M19.4089 26.2525C22.6212 26.2525 24.557 24.6796 24.557 22.0854C24.557 20.1243 23.1758 18.7046 21.1249 18.4799V18.3982C22.6317 18.1531 23.8141 16.7538 23.8141 15.1912C23.8141 12.9646 22.0562 11.5142 19.3775 11.5142H13.3504V26.2525H19.4089ZM15.6943 13.3833H18.8125C20.5076 13.3833 21.4702 14.1391 21.4702 15.5077C21.4702 16.9683 20.3506 17.7854 18.3207 17.7854H15.6943V13.3833ZM15.6943 24.3834V19.5319H18.7915C21.0098 19.5319 22.1608 20.3489 22.1608 21.9423C22.1608 23.5356 21.0412 24.3834 18.9276 24.3834H15.6943Z" fill="white"/>
<path d="M19.4089 26.2525C22.6212 26.2525 24.557 24.6796 24.557 22.0854C24.557 20.1243 23.1758 18.7046 21.1249 18.4799V18.3982C22.6317 18.1531 23.8141 16.7538 23.8141 15.1912C23.8141 12.9646 22.0562 11.5142 19.3775 11.5142H13.3504V26.2525H19.4089ZM15.6943 13.3833H18.8125C20.5076 13.3833 21.4702 14.1391 21.4702 15.5077C21.4702 16.9683 20.3506 17.7854 18.3207 17.7854H15.6943V13.3833ZM15.6943 24.3834V19.5319H18.7915C21.0098 19.5319 22.1608 20.3489 22.1608 21.9423C22.1608 23.5356 21.0412 24.3834 18.9276 24.3834H15.6943Z" stroke="#D8D8D8" stroke-width="0.126749"/>
</g>
<defs>
<filter id="filter0_d_337_836" x="11.2591" y="9.92982" width="15.3892" height="18.921" filterUnits="userSpaceOnUse" color-interpolation-filters="sRGB">
<feFlood flood-opacity="0" result="BackgroundImageFix"/>
<feColorMatrix in="SourceAlpha" type="matrix" values="0 0 0 0 0 0 0 0 0 0 0 0 0 0 0 0 0 0 127 0" result="hardAlpha"/>
<feOffset dy="0.506994"/>
<feGaussianBlur stdDeviation="1.01399"/>
<feColorMatrix type="matrix" values="0 0 0 0 0 0 0 0 0 0 0 0 0 0 0 0 0 0 0.15 0"/>
<feBlend mode="normal" in2="BackgroundImageFix" result="effect1_dropShadow_337_836"/>
<feBlend mode="normal" in="SourceGraphic" in2="effect1_dropShadow_337_836" result="shape"/>
</filter>
</defs>
</svg>
