<svg width="32" height="39" viewBox="0 0 32 39" fill="none" xmlns="http://www.w3.org/2000/svg">
<path d="M0.870346 20.691C0.870346 19.1575 1.15345 17.6594 1.71967 16.1967C2.30948 14.7104 3.15881 13.3656 4.26765 12.1624C5.37649 10.9592 6.72126 10.0037 8.30195 9.2959C9.90623 8.56453 11.7111 8.19885 13.7164 8.19885C16.1228 8.19885 18.2226 8.70609 20.0156 9.72056C21.8086 10.7114 23.1416 12.0326 24.0145 13.6841L18.7416 17.4353C18.4349 16.6095 17.9866 15.9725 17.3968 15.5243C16.8306 15.076 16.2054 14.7693 15.5212 14.6042C14.8606 14.4154 14.2118 14.3211 13.5749 14.3211C12.584 14.3211 11.7228 14.5216 10.9915 14.9227C10.2837 15.3002 9.6939 15.8074 9.22205 16.4444C8.7738 17.0814 8.43171 17.7892 8.19578 18.5677C7.98345 19.3463 7.87729 20.1248 7.87729 20.9034C7.87729 21.7763 8.00705 22.6138 8.26656 23.4159C8.52608 24.2181 8.90356 24.9377 9.399 25.5747C9.89444 26.1881 10.496 26.6717 11.2038 27.0256C11.9352 27.3795 12.7491 27.5564 13.6456 27.5564C14.2826 27.5564 14.9314 27.462 15.592 27.2733C16.2526 27.061 16.8542 26.7307 17.3968 26.2824C17.9394 25.8342 18.3523 25.2326 18.6354 24.4776L24.2622 27.8395C23.7668 29.0663 22.941 30.1162 21.785 30.9891C20.629 31.862 19.3196 32.5344 17.8569 33.0063C16.3941 33.4545 14.9432 33.6786 13.5041 33.6786C11.6403 33.6786 9.92983 33.313 8.37273 32.5816C6.83922 31.8266 5.50625 30.8358 4.37382 29.609C3.26497 28.3586 2.40385 26.9666 1.79045 25.4331C1.17705 23.876 0.870346 22.2953 0.870346 20.691Z" fill="white"/>
<path d="M24.8173 20.9173V21.6605H23.1717V23.452H22.3356V21.6605H20.6901V20.9173H22.3356V19.1258H23.1717V20.9173H24.8173ZM30.3251 20.9173V21.6605H28.6796V23.452H27.8435V21.6605H26.1979V20.9173H27.8435V19.1258H28.6796V20.9173H30.3251Z" fill="white"/>
</svg>
