<svg width="30" height="30" viewBox="0 0 30 30" fill="none" xmlns="http://www.w3.org/2000/svg">
<path d="M10.7414 19.006L10.7894 19.0287L10.875 19.0689C10.9842 19.1195 11.0945 19.1695 11.2057 19.2177L11.2756 19.2479C11.4033 19.3023 11.5317 19.3541 11.6615 19.4039L11.7556 19.4398C11.8755 19.4852 11.9975 19.5293 12.1196 19.5711L12.1654 19.5864C12.2995 19.6318 12.4349 19.6742 12.5715 19.7155L12.6698 19.7438C12.8086 19.7847 12.9457 19.8333 13.0891 19.8592C22.1846 21.4716 24.8264 14.5451 24.8264 14.5451C22.6074 17.3557 18.6687 18.0971 14.9368 17.2717C14.7955 17.2408 14.6582 17.1977 14.5203 17.158L14.4165 17.1275C14.2821 17.0874 14.1484 17.0452 14.0154 17.0008L13.9605 16.9814C13.8419 16.9406 13.7241 16.8981 13.6069 16.8539L13.5078 16.8162C13.3796 16.7671 13.2523 16.7157 13.1261 16.6619L13.0497 16.629C12.9418 16.5816 12.8345 16.5331 12.7278 16.4833L12.6345 16.4398C12.5509 16.4001 12.468 16.3578 12.3854 16.3164L12.2192 16.2317C12.1187 16.1792 12.0193 16.1249 11.9208 16.0689L11.82 16.0142C11.6892 15.939 11.5595 15.8617 11.4311 15.7825L11.3264 15.7148C11.2332 15.6566 11.1409 15.597 11.0497 15.536L10.9606 15.475C10.8725 15.4145 10.7854 15.3533 10.6991 15.2912L10.5831 15.2058C10.5037 15.1471 10.4251 15.0874 10.3472 15.0268L10.242 14.9445C10.1429 14.8655 10.0449 14.7852 9.94788 14.7038L9.91578 14.6774C9.81103 14.5883 9.70783 14.4974 9.60624 14.4048L9.51915 14.3233C9.44376 14.2538 9.36986 14.1837 9.29695 14.1118L9.20986 14.0272C9.11751 13.9352 9.02667 13.8418 8.9374 13.747L8.92396 13.733C8.82983 13.6328 8.73766 13.5308 8.64752 13.4272L8.57511 13.3435C8.50793 13.2649 8.44124 13.1851 8.3763 13.1045L8.30339 13.0164C8.22537 12.9184 8.1488 12.8193 8.07372 12.7191C6.002 9.97147 5.25751 6.18188 6.91345 3.06966L5.44562 4.87966C3.56475 7.50757 3.79914 10.9268 5.23561 13.7194L5.34087 13.9181L5.4083 14.0439L5.4501 14.1162L5.525 14.2466C5.56954 14.323 5.61507 14.399 5.66185 14.4749L5.74023 14.6005C5.79199 14.6818 5.84499 14.7621 5.89948 14.8424L5.96716 14.9445C6.04206 15.0529 6.1187 15.1613 6.19757 15.2677L6.20429 15.2762L6.24311 15.3272C6.31154 15.4189 6.38195 15.5094 6.45312 15.5989L6.53225 15.6966C6.5957 15.7743 6.66064 15.8517 6.72633 15.9286L6.80048 16.0145C6.88881 16.1159 6.97889 16.2165 7.07095 16.3149L7.07643 16.3205L7.08688 16.3316C7.17646 16.427 7.26852 16.5198 7.36158 16.6132L7.44967 16.6996C7.52183 16.7702 7.59498 16.8397 7.66913 16.9088L7.75896 16.9918C7.85774 17.0823 7.95752 17.1711 8.05954 17.2582L8.06452 17.2618L8.11677 17.3053C8.2066 17.3808 8.29816 17.4561 8.39023 17.5298L8.50345 17.6174C8.57859 17.676 8.65473 17.7338 8.73137 17.7906L8.85305 17.8806C8.93765 17.9411 9.02275 18.0006 9.10859 18.0589L9.2019 18.1233L9.22753 18.1409C9.30914 18.1956 9.3925 18.2478 9.47586 18.3003L9.58335 18.37C9.711 18.4486 9.84089 18.5263 9.97202 18.6013L10.0795 18.6603C10.1761 18.7143 10.2728 18.7672 10.3711 18.819L10.5324 18.9003L10.7414 19.006V19.006ZM11.6603 10.1048C11.8641 10.3888 12.0898 10.7265 12.3602 10.9549C12.4583 11.0598 12.5608 11.1619 12.6653 11.2628L12.7459 11.3397C12.8477 11.4355 12.951 11.5296 13.0575 11.6213L13.0704 11.632L13.0734 11.6351C13.1916 11.7358 13.3135 11.8325 13.4374 11.9278L13.5203 11.9907C13.6447 12.0834 13.7713 12.1743 13.9012 12.2612L13.9124 12.2692L14.0861 12.3805L14.1687 12.4337C14.2615 12.4912 14.3553 12.5479 14.4511 12.6016L14.4909 12.6241C14.5733 12.6703 14.6569 12.7157 14.7405 12.7598L14.8291 12.805L15.0038 12.8928L15.0302 12.9044C15.1501 12.9618 15.271 13.0169 15.3944 13.0694L15.4748 13.1016C15.5733 13.1422 15.6731 13.1822 15.7731 13.2194L15.901 13.2649C15.9921 13.2978 16.0832 13.3278 16.1753 13.3575L16.2994 13.3963C16.4303 13.4357 16.5594 13.4855 16.6958 13.5075C23.7182 14.639 25.3395 9.38193 25.3395 9.38193C23.8779 11.4283 21.0478 12.4044 18.0275 11.6424C17.894 11.6083 17.7615 11.571 17.6299 11.5306L17.5102 11.4931C17.4169 11.4638 17.3241 11.4326 17.232 11.4L17.1066 11.3545C17.0061 11.317 16.9062 11.2779 16.807 11.2372L16.7264 11.2038C16.6029 11.1515 16.4808 11.0963 16.3601 11.0381L16.1762 10.9471L16.0702 10.8941C15.9921 10.853 15.9145 10.8099 15.8378 10.7666L15.7824 10.7359C15.6874 10.682 15.5935 10.6265 15.5007 10.5692L15.4158 10.5138L15.2337 10.3968C15.1049 10.3099 14.9784 10.22 14.8542 10.127L14.7689 10.0615C13.4469 9.04712 12.3991 7.65998 11.9007 6.0873C11.3786 4.45679 11.4911 2.62599 12.3956 1.14039L11.2843 2.6659C9.92424 4.56856 9.99814 7.11616 11.0591 9.12864C11.2366 9.46686 11.4374 9.79298 11.6603 10.1048V10.1048ZM19.0621 7.7507L19.2366 7.80948L19.3134 7.83319C19.3963 7.85835 19.4782 7.88786 19.5635 7.90335C23.441 8.63175 24.493 5.96876 24.7729 5.57686C23.8515 6.8665 22.3033 7.17591 20.4036 6.72764C20.248 6.68916 20.0945 6.64314 19.9437 6.58975C19.758 6.52559 19.5759 6.45211 19.398 6.36961C19.0605 6.21171 18.7399 6.02151 18.4411 5.80184C16.7411 4.54751 15.6851 2.15571 16.7943 0.207329L16.1942 1.01145C15.3924 2.15885 15.3136 3.58373 15.8699 4.85039C16.4567 6.19543 17.659 7.25018 19.0621 7.7507V7.7507ZM15.3193 23.1851H14.2678C14.238 23.1862 14.2094 23.1966 14.1862 23.2148C14.1631 23.233 14.1465 23.2579 14.1391 23.2859L13.7659 24.9648L13.3926 26.6437C13.3853 26.6717 13.3688 26.6967 13.3457 26.7149C13.3225 26.7331 13.294 26.7435 13.2642 26.7446H12.52C11.7837 26.7446 11.8688 26.2494 12.0196 25.5711L12.0241 25.5505L12.0405 25.4649L12.0435 25.4489L12.0771 25.2747L12.1132 25.0882L12.1515 24.8983L12.3212 24.0922L12.4911 23.2862C12.4944 23.2739 12.4946 23.261 12.4918 23.2486C12.489 23.2362 12.4832 23.2246 12.475 23.2147C12.4667 23.2049 12.4562 23.197 12.4443 23.1918C12.4324 23.1866 12.4193 23.1842 12.4063 23.1848H11.3271C11.2974 23.1859 11.2688 23.1963 11.2458 23.2146C11.2227 23.2328 11.2063 23.2579 11.1992 23.2859L10.9671 24.3562L10.7352 25.4266L10.7347 25.4281L10.7133 25.5278C10.446 26.7139 10.5167 27.8453 11.9693 27.8809L12.0116 27.8816H14.2916C14.3214 27.8805 14.3499 27.8701 14.3731 27.8519C14.3962 27.8337 14.4127 27.8087 14.42 27.7807L14.9117 25.5336L15.4034 23.2862C15.4156 23.2305 15.3778 23.1853 15.3193 23.1851V23.1851ZM4.05842 23.1732H2.90386C2.87404 23.1743 2.84536 23.1847 2.82204 23.2028C2.79871 23.2209 2.78196 23.2458 2.77423 23.2739L2.66474 23.7436L2.55526 24.2134C2.54257 24.2688 2.57964 24.3141 2.63812 24.3141H3.80163C3.83142 24.313 3.86007 24.3026 3.8833 24.2844C3.90652 24.2663 3.92309 24.2413 3.93052 24.2132L4.03627 23.7436L4.14202 23.2741C4.15421 23.2187 4.11689 23.1732 4.05842 23.1732V23.1732ZM3.7235 24.6353H2.55974C2.52992 24.6365 2.50127 24.6469 2.47795 24.665C2.45463 24.6831 2.43787 24.708 2.4301 24.736L2.26662 25.4399L2.10339 26.1437L2.05786 26.3454L1.90085 27.0639L1.74409 27.7826C1.73189 27.838 1.70676 27.9276 1.6881 27.9813C1.6881 27.9813 1.47063 28.6102 1.1051 28.603L1.05932 28.602L0.743059 28.5964H0.74281C0.7131 28.5971 0.6844 28.6071 0.66093 28.6248C0.63746 28.6425 0.620459 28.6671 0.612425 28.6949L0.491744 29.1882L0.371313 29.6812C0.357627 29.7363 0.394453 29.7818 0.45243 29.7828C0.659702 29.7852 1.12401 29.7903 1.40494 29.7903C2.31788 29.7903 2.79936 29.2985 3.10765 27.8833L3.4687 26.2591L3.80735 24.7357C3.81954 24.6808 3.78172 24.6353 3.7235 24.6353V24.6353ZM25.1517 24.2546L25.1034 24.0608L25.0559 23.8624L25.0317 23.7623C24.9372 23.405 24.6597 23.1991 24.0571 23.1991L23.119 23.1981L22.2551 23.1969H21.2829C21.2532 23.198 21.2246 23.2084 21.2015 23.2266C21.1784 23.2448 21.162 23.2698 21.1548 23.2978L21.1117 23.4952L21.0609 23.7284L21.0468 23.794L20.6091 25.7873L20.1935 27.6796C20.1811 27.7352 20.1771 27.8035 20.1841 27.831C20.1911 27.8588 20.3033 27.8816 20.3615 27.8816H21.2384C21.2968 27.8816 21.3707 27.8714 21.4026 27.8588C21.4344 27.8463 21.4815 27.7347 21.4932 27.6793L21.6489 26.9297L21.8049 26.1797L21.8052 26.1785L21.8261 26.0786L22.0152 25.2174L22.1822 24.4568C22.1895 24.4288 22.206 24.4039 22.229 24.3857C22.2521 24.3676 22.2806 24.3571 22.3103 24.3559L25.0695 24.3547C25.128 24.3552 25.1648 24.31 25.1517 24.2546V24.2546ZM28.7036 22.5031L28.4911 22.5038H27.6081C27.5757 22.5056 27.5441 22.5142 27.5155 22.5289C27.4868 22.5436 27.4618 22.5642 27.4421 22.5892L25.4891 25.3708C25.4562 25.4177 25.4186 25.4109 25.4057 25.3558L25.2619 24.743C25.2541 24.7149 25.2373 24.69 25.214 24.6719C25.1906 24.6538 25.1619 24.6434 25.132 24.6424H23.8767C23.8182 24.6424 23.7836 24.6869 23.7995 24.7413L24.3621 26.6575C24.378 26.7122 24.3793 26.8017 24.3649 26.8568L24.1198 27.7841C24.1051 27.8393 24.1409 27.884 24.1994 27.884H25.4403C25.4703 27.8828 25.4992 27.8726 25.5229 27.8546C25.5467 27.8367 25.564 27.8121 25.5727 27.7841L25.818 26.8568C25.8374 26.7915 25.868 26.7298 25.9083 26.6742L29.0789 22.5832C29.1142 22.5377 29.095 22.5007 29.0368 22.5012L28.7036 22.5031V22.5031ZM18.7292 24.9027V24.9017C18.7249 24.9309 18.71 24.9577 18.6873 24.9772C18.6645 24.9968 18.6354 25.0078 18.605 25.0084H17.0133C16.9581 25.0084 16.9302 24.9721 16.9384 24.9271L16.9399 24.9235L16.9389 24.9239L16.9396 24.9189L16.9469 24.8925C17.0989 24.4996 17.4084 24.2417 17.9904 24.2417C18.6458 24.2415 18.7737 24.5526 18.7292 24.9027V24.9027ZM18.2622 23.1164C16.219 23.1164 15.7348 24.3221 15.4631 25.5391C15.1916 26.7797 15.2148 27.9392 17.3293 27.9392H17.5856L17.6493 27.9389H17.6642L17.918 27.9382H17.9225C18.4809 27.936 19.041 27.9319 19.2677 27.9302C19.2972 27.9288 19.3255 27.9181 19.3483 27.8998C19.3711 27.8815 19.3872 27.8565 19.3943 27.8286L19.4799 27.422L19.4966 27.3428L19.5986 26.8576C19.6019 26.8453 19.6021 26.8324 19.5993 26.82C19.5965 26.8076 19.5907 26.796 19.5825 26.7862C19.5742 26.7763 19.5637 26.7685 19.5517 26.7633C19.5398 26.7582 19.5268 26.7558 19.5138 26.7564H17.613C16.8568 26.7564 16.6323 26.5612 16.7152 25.9869H19.7536L19.7534 25.9872L19.7554 25.9869C19.7794 25.9859 19.8026 25.9782 19.8223 25.9647C19.8419 25.9512 19.8571 25.9324 19.8661 25.9107L19.8733 25.8851L19.8731 25.8853C20.3242 24.2309 20.1948 23.1166 18.2622 23.1164V23.1164ZM8.60522 24.8964L8.57635 24.9953V24.9956L8.34693 25.7861L8.11752 26.5765C8.10814 26.6045 8.09016 26.629 8.066 26.6468C8.04185 26.6646 8.01267 26.6747 7.9824 26.6759H6.76813C5.84698 26.6759 5.62254 25.9753 5.84698 24.9423C6.07117 23.8857 6.51085 23.2289 7.41757 23.1623C8.65672 23.0714 8.90455 23.9186 8.60522 24.8964V24.8964ZM9.43829 26.6152C9.43829 26.6152 10.0108 25.2634 10.1407 24.4829C10.3181 23.4381 9.77992 21.9223 7.70123 21.9223C5.63448 21.9223 4.73672 23.3692 4.39433 24.9423C4.05195 26.5269 4.50058 27.9162 6.55564 27.9048L8.17699 27.899L9.69209 27.8937C9.72212 27.8922 9.75097 27.8818 9.77473 27.8639C9.7985 27.846 9.81603 27.8214 9.82496 27.7935L10.089 26.8147C10.1036 26.7596 10.0681 26.7146 10.0096 26.7141L9.75653 26.7127L9.50348 26.7112C9.45396 26.711 9.4256 26.6795 9.43157 26.6382L9.43829 26.6152V26.6152ZM19.67 25.7102C19.67 25.7191 19.6682 25.7279 19.6648 25.7361C19.6613 25.7443 19.6562 25.7518 19.6497 25.7581C19.6432 25.7644 19.6356 25.7694 19.6271 25.7728C19.6187 25.7762 19.6096 25.778 19.6005 25.778C19.5913 25.778 19.5823 25.7763 19.5738 25.7729C19.5653 25.7695 19.5576 25.7646 19.5512 25.7583C19.5447 25.752 19.5395 25.7445 19.536 25.7363C19.5325 25.7281 19.5307 25.7193 19.5307 25.7104C19.5306 25.6924 19.5379 25.6752 19.551 25.6625C19.564 25.6498 19.5817 25.6426 19.6002 25.6426C19.6187 25.6425 19.6364 25.6496 19.6495 25.6623C19.6626 25.675 19.67 25.6922 19.67 25.7102Z" fill="white"/>
</svg>
