<svg width="41" height="42" viewBox="0 0 41 42" fill="none" xmlns="http://www.w3.org/2000/svg">
<path d="M0.680004 29.3597H1.98001V24.2258L3.99267 28.7015C4.23001 29.2432 4.55501 29.4347 5.19267 29.4347C5.83033 29.4347 6.14299 29.2432 6.38034 28.7015L8.393 24.2258V29.3597H9.693V24.2344C9.693 23.7344 9.493 23.4923 9.08034 23.3676C8.09268 23.0594 7.43002 23.3261 7.13002 23.9929L5.15502 28.41L3.24267 23.9926C2.95501 23.3261 2.28001 23.0594 1.29235 23.3673C0.879688 23.4923 0.679688 23.7341 0.679688 24.2341V29.3597H0.680004ZM10.7743 25.1806H12.074V28.0091C12.062 28.1626 12.1234 28.5233 12.8354 28.5347C13.1987 28.5404 15.6399 28.5347 15.6626 28.5347V25.1667H16.9655C16.9715 25.1667 16.9642 29.7597 16.9642 29.7787C16.9712 30.9116 15.5588 31.1575 14.9076 31.1765H10.8025V30.3018C10.8095 30.3018 14.9047 30.3027 14.9149 30.3015C15.7519 30.2132 15.6528 29.7974 15.6525 29.6575V29.3164H12.8895C11.6041 29.3046 10.7851 28.7436 10.7747 28.098C10.774 28.0388 10.8028 25.2091 10.7743 25.1806V25.1806ZM17.9677 29.3597H21.7057C22.1434 29.3597 22.5687 29.2683 22.906 29.11C23.4684 28.8518 23.7434 28.5018 23.7434 28.0429V27.0929C23.7434 26.7179 23.431 26.3676 22.8184 26.1347C22.4934 26.0094 22.093 25.9432 21.7054 25.9432H20.1301C19.6051 25.9432 19.3551 25.785 19.2927 25.435C19.2804 25.3932 19.2804 25.36 19.2804 25.3182V24.7265C19.2804 24.6932 19.2804 24.6597 19.2927 24.6182C19.3551 24.3515 19.4927 24.2765 19.9554 24.2347L20.0804 24.2265H23.7934V23.36H20.143C19.618 23.36 19.343 23.3932 19.093 23.4682C18.318 23.71 17.98 24.0932 17.98 24.76V25.5182C17.98 26.1018 18.643 26.6018 19.7554 26.7186C19.8807 26.7265 20.0054 26.7353 20.1304 26.7353H21.4807C21.5307 26.7353 21.5807 26.7353 21.6184 26.7432C22.031 26.7765 22.2057 26.8518 22.331 27.0015C22.3631 27.0311 22.3886 27.0672 22.4058 27.1074C22.423 27.1476 22.4315 27.191 22.4307 27.2347V27.9932C22.4307 28.0847 22.3684 28.2015 22.2434 28.3015C22.131 28.4015 21.9434 28.4682 21.6934 28.485L21.5557 28.4932H17.9677V29.3597ZM31.8541 27.8515C31.8541 28.7429 32.5168 29.2429 33.8541 29.3433C33.9791 29.3515 34.1041 29.3597 34.2291 29.3597H37.6171V28.4932H34.2045C33.4418 28.4932 33.1545 28.3015 33.1545 27.8429V23.3594H31.8545V27.8515H31.8541ZM24.5731 27.8964V24.8062C24.5731 24.0214 25.1244 23.5451 26.2142 23.3948C26.3304 23.3782 26.4476 23.3698 26.5649 23.3698H29.0329C29.1582 23.3698 29.2709 23.378 29.3959 23.3948C30.4858 23.5451 31.0374 24.0211 31.0374 24.8062V27.8964C31.0374 28.5338 30.8032 28.8743 30.2636 29.0964L31.5446 30.2524H30.0348L28.9987 29.317L27.9557 29.3831H26.5649C26.3065 29.3815 26.0496 29.345 25.801 29.2746C24.9741 29.0493 24.5731 28.6148 24.5731 27.8964V27.8964ZM25.9766 27.8214C25.9766 27.8632 25.9889 27.9053 26.0016 27.9553C26.0766 28.3144 26.4152 28.5148 26.9285 28.5148H28.1095L27.0247 27.5353H28.5345L29.4804 28.3898C29.6551 28.2964 29.7696 28.1546 29.8098 27.972C29.8222 27.9303 29.8222 27.8885 29.8222 27.8467V24.8822C29.8222 24.8489 29.8222 24.8068 29.8098 24.7651C29.7345 24.4309 29.3962 24.2391 28.8953 24.2391H26.9282C26.3522 24.2391 25.9763 24.4898 25.9763 24.8822V27.8214H25.9766ZM38.7608 21.9211C37.9617 21.8992 37.3513 21.9736 36.8292 22.1935C36.6807 22.2562 36.4443 22.2578 36.4203 22.4435C36.5016 22.5293 36.5143 22.6568 36.5791 22.7619C36.7038 22.9635 36.9143 23.2337 37.1019 23.3752C37.3067 23.5299 37.5181 23.6958 37.7383 23.8299C38.1292 24.0686 38.5659 24.2046 38.9428 24.4432C39.1646 24.5844 39.3849 24.7616 39.6016 24.9208C39.7089 24.9989 39.7804 25.1214 39.92 25.1705V25.148C39.8469 25.0549 39.8279 24.9271 39.7608 24.8296L39.4652 24.5341C39.1763 24.1505 38.8099 23.8141 38.4197 23.5344C38.1089 23.3113 37.4133 23.0097 37.2836 22.648L37.2608 22.6255C37.4811 22.6005 37.7393 22.5208 37.9424 22.4663C38.2842 22.3746 38.5896 22.3983 38.9424 22.3072L39.4197 22.1704V22.0799C39.2415 21.897 39.114 21.6546 38.9197 21.4891C38.4111 21.0559 37.8554 20.623 37.2836 20.2616C36.9665 20.0616 36.5744 19.9315 36.238 19.7619C36.1253 19.7046 35.9266 19.6752 35.8516 19.5799C35.6747 19.3549 35.5788 19.0698 35.4424 18.8075C35.1511 18.2407 34.8783 17.6647 34.6244 17.0802C34.4522 16.6863 34.3396 16.2976 34.1247 15.9442C33.0927 14.2476 31.982 13.2236 30.2614 12.2173C29.8953 12.003 29.4544 11.9188 28.9889 11.8084L28.2389 11.7628C28.0867 11.6992 27.9279 11.5125 27.7845 11.422C27.2143 11.0619 25.7522 10.2786 25.3301 11.3087C25.0636 11.9587 25.7288 12.5929 25.9665 12.9223C26.1332 13.1533 26.3472 13.4122 26.4665 13.672C26.5449 13.8429 26.5582 14.0141 26.6256 14.1948C26.7905 14.6397 26.9345 15.1242 27.1481 15.5353C27.256 15.7435 27.3753 15.9628 27.5117 16.1489C27.5953 16.2628 27.7389 16.3135 27.7614 16.4897C27.6212 16.6859 27.613 16.991 27.5342 17.2394C27.1791 18.3594 27.313 19.7515 27.8298 20.5803C27.9883 20.835 28.3617 21.3806 28.875 21.1711C29.3241 20.9882 29.2241 20.4214 29.3525 19.9211C29.3817 19.8081 29.3636 19.7246 29.4206 19.6486V19.6714L29.8298 20.4894C30.1326 20.9771 30.6696 21.4863 31.125 21.8303C31.3611 22.0084 31.5472 22.317 31.8522 22.4211V22.398H31.8298C31.7703 22.3059 31.6782 22.2679 31.6022 22.1935C31.4244 22.0192 31.2266 21.8027 31.0798 21.6027C30.6655 21.0407 30.2997 20.4252 29.9662 19.7847C29.807 19.479 29.6687 19.1416 29.5345 18.8302C29.4826 18.7103 29.4832 18.5287 29.3756 18.467C29.2282 18.6948 29.012 18.8793 28.8981 19.1486C28.7165 19.579 28.6931 20.104 28.6256 20.6483L28.5801 20.6708C28.2633 20.5945 28.1522 20.2685 28.0345 19.9891C27.737 19.2825 27.6817 18.1442 27.9437 17.3306C28.0114 17.1198 28.3174 16.4568 28.1934 16.2622C28.1342 16.0682 27.9389 15.9562 27.8301 15.8075C27.6872 15.6084 27.5654 15.3952 27.4665 15.1711C27.2228 14.6201 27.1092 14.0014 26.8532 13.4442C26.7304 13.1777 26.5234 12.9084 26.3532 12.6717C26.1649 12.409 25.9538 12.216 25.8076 11.8989C25.7557 11.7862 25.6851 11.6055 25.762 11.4897C25.7864 11.4116 25.8215 11.379 25.8987 11.3533C26.0304 11.2517 26.3975 11.3872 26.5348 11.4442C26.8994 11.5957 27.2035 11.7397 27.5124 11.9442C27.6605 12.0426 27.8101 12.2324 27.9896 12.285H28.194C28.5139 12.3584 28.8725 12.3074 29.1712 12.3983C29.6997 12.559 30.1731 12.8087 30.6029 13.0802C31.9127 13.9075 32.9833 15.0847 33.7162 16.4891C33.8339 16.7154 33.8852 16.9309 33.9886 17.1708C34.1981 17.6543 34.4621 18.1521 34.6703 18.6252C34.8782 19.097 35.081 19.5733 35.375 19.966C35.5295 20.1723 36.1263 20.2831 36.3975 20.3977C36.5877 20.478 36.8991 20.5619 37.0792 20.6701C37.4231 20.8777 37.7567 21.1249 38.0792 21.3521C38.2402 21.4666 38.7361 21.7157 38.7608 21.9211V21.9211ZM28.6029 13.2631C28.4651 13.2609 28.3276 13.2762 28.1937 13.3087V13.3312H28.2165C28.2959 13.4948 28.4361 13.5999 28.5345 13.7404L28.762 14.2176L28.7845 14.1951C28.9253 14.0961 28.9896 13.9375 28.9889 13.6951C28.9323 13.6356 28.9241 13.5612 28.8753 13.4907C28.8108 13.3957 28.6848 13.3426 28.6029 13.2631V13.2631Z" fill="white"/>
</svg>
