<svg width="39" height="39" viewBox="0 0 39 39" fill="none" xmlns="http://www.w3.org/2000/svg">
<path d="M7.94095 15.3782C7.49514 15.3782 7.19793 15.7348 7.19793 16.1806V20.3713L2.47231 15.6159C2.23454 15.3782 1.81845 15.3187 1.52124 15.4376C1.22403 15.5565 0.956543 15.8537 0.956543 16.1806V22.3329C0.956543 22.7787 1.40236 23.1353 1.84817 23.1353C2.29398 23.1353 2.7398 22.7787 2.7398 22.3329V18.1422L7.52486 22.8976C7.67346 23.0462 7.88151 23.1353 8.08956 23.1353C8.17872 23.1353 8.20844 23.1056 8.2976 23.0759C8.59481 22.957 8.68397 22.6598 8.68397 22.3329V16.2104C8.68397 15.7645 8.38676 15.3782 7.94095 15.3782ZM13.796 18.8852C13.3799 18.8852 12.9935 19.3013 12.9935 19.7174C12.9935 20.1335 13.3799 20.5496 13.796 20.5496L15.7575 20.6685L15.3117 21.7682H12.7855L11.5372 19.4202L12.8152 17.0128H15.5198L16.1439 18.2017H17.7786L16.7086 15.8537L16.4708 15.5268H11.8344L11.6263 15.8834L9.87281 18.9447L9.66476 19.3311L9.87281 19.7174L11.5966 22.7787L11.8344 23.2542H16.3222L16.5303 22.749L17.8083 20.0741L18.373 18.7961H17.0653L13.796 18.8852V18.8852ZM19.9779 15.3782C19.5618 15.3782 19.0863 15.7645 19.0863 16.1806V18.2017H20.8695V16.2104C20.8695 15.7645 20.394 15.3782 19.9779 15.3782ZM29.0131 15.4673C28.7159 15.3485 28.2998 15.4079 28.0917 15.6457L23.2472 20.401V16.2104C23.2472 15.7645 22.95 15.4079 22.5042 15.4079C22.0584 15.4079 21.7612 15.7645 21.7612 16.2104V22.3626C21.7612 22.6895 21.9692 22.9867 22.2664 23.1056C22.3556 23.1353 22.4745 23.165 22.5636 23.165C22.7717 23.165 23.0392 23.0759 23.1878 22.9273L28.0026 18.1719V22.3626C28.0026 22.8084 28.2998 23.165 28.7456 23.165C29.1914 23.165 29.4886 22.8084 29.4886 22.3626V16.2104C29.4886 15.8834 29.3103 15.5862 29.0131 15.4673ZM35.4922 19.2716L37.9888 16.7751C38.3157 16.4481 38.3157 15.9429 37.9888 15.6457C37.6618 15.3187 37.1566 15.3187 36.8594 15.6457L34.3628 18.1422L31.8663 15.6457C31.5393 15.3187 31.0341 15.3187 30.7369 15.6457C30.4099 15.9726 30.4099 16.4778 30.7369 16.7751L33.2334 19.2716L30.7369 21.7682C30.4099 22.0951 30.4099 22.6003 30.7369 22.8976C30.8855 23.0462 31.0935 23.1353 31.3016 23.1353C31.5096 23.1353 31.7177 23.0462 31.8663 22.8976L34.3628 20.401L36.8594 22.8976C37.008 23.0462 37.216 23.1353 37.4241 23.1353C37.6321 23.1353 37.8402 23.0462 37.9888 22.8976C38.3157 22.5706 38.3157 22.0654 37.9888 21.7682L35.4922 19.2716V19.2716ZM19.0863 22.3329C19.0863 22.749 19.5321 23.1353 19.9779 23.1353C20.394 23.1353 20.8695 22.749 20.8695 22.3329V18.7961H19.0863V22.3329Z" fill="white"/>
</svg>
