<svg width="37" height="37" viewBox="0 0 37 37" fill="none" xmlns="http://www.w3.org/2000/svg">
<g id="Logos/php-plain">
<path id="Vector" d="M18.4736 9.61661C8.91218 9.61661 1.16046 13.5449 1.16046 18.3905C1.16046 23.2361 8.91218 27.1644 18.4736 27.1644C28.035 27.1644 35.7867 23.2361 35.7867 18.3905C35.7867 13.5449 28.035 9.61661 18.4736 9.61661ZM13.9686 20.0999C13.5554 20.4864 13.0966 20.646 12.5914 20.8103C12.0861 20.975 11.4431 20.941 10.6612 20.941H8.88923L8.39812 23.7748H6.32912L8.17538 14.1397H12.1541C13.3511 14.1397 14.2242 14.484 14.7732 15.1123C15.3221 15.7406 15.487 16.6324 15.2682 17.7583C15.1778 18.2222 15.0256 18.6535 14.8108 19.0377C14.5882 19.4342 14.3039 19.7928 13.9686 20.0999ZM20.0078 20.941L20.8243 16.8545C20.9172 16.3762 20.8832 16.0208 20.722 15.8471C20.5604 15.6731 20.217 15.5566 19.6919 15.5566H18.0511L16.9938 20.941H14.9409L16.7872 11.5893H18.84L18.3492 14.1397H20.1779C21.3287 14.1397 22.1222 14.3707 22.5589 14.7719C22.9956 15.1732 23.1265 15.723 22.9519 16.6219L22.093 20.941H20.0078ZM31.4166 17.7733C31.3265 18.2372 31.1741 18.6611 30.9595 19.0451C30.7447 19.4297 30.4642 19.7813 30.1176 20.0999C29.7044 20.4864 29.2453 20.646 28.7404 20.8103C28.2354 20.975 27.5918 20.941 26.8099 20.941H25.0379L24.5471 23.7748H22.4781L24.3241 14.1397H28.3031C29.5001 14.1397 30.3732 14.484 30.9219 15.1123C31.4702 15.7406 31.6354 16.6477 31.4166 17.7733ZM27.519 15.5566H26.1018L25.329 19.524H26.5878C27.4215 19.524 28.0432 19.4419 28.4513 19.1273C28.8599 18.8133 29.1351 18.3259 29.2782 17.5911C29.4154 16.8852 29.353 16.3345 29.0912 16.0443C28.8291 15.7542 28.3051 15.5566 27.519 15.5566ZM11.3703 15.5566H9.95277L9.17998 19.524H10.4385C11.2725 19.524 11.894 19.4419 12.3023 19.1273C12.7107 18.8133 12.9861 18.3259 13.129 17.5911C13.2661 16.8852 13.2038 16.3345 12.9419 16.0443C12.6801 15.7542 12.1564 15.5566 11.3703 15.5566Z" fill="white"/>
</g>
</svg>
