<svg width="42" height="10" viewBox="0 0 42 10" fill="none" xmlns="http://www.w3.org/2000/svg">
<circle cx="4" cy="6" r="4" fill="white"/>
<path d="M12.646 2.574C13.18 2.574 13.618 2.643 13.96 2.781C14.308 2.913 14.566 3.114 14.734 3.384C14.902 3.654 14.986 3.993 14.986 4.401C14.986 4.743 14.923 5.028 14.797 5.256C14.671 5.484 14.509 5.667 14.311 5.805C14.119 5.937 13.915 6.042 13.699 6.12L15.463 9H14.518L12.961 6.345H11.683V9H10.873V2.574H12.646ZM12.601 3.276H11.683V5.661H12.646C12.994 5.661 13.279 5.616 13.501 5.526C13.723 5.43 13.885 5.292 13.987 5.112C14.095 4.932 14.149 4.707 14.149 4.437C14.149 4.155 14.092 3.93 13.978 3.762C13.87 3.594 13.702 3.471 13.474 3.393C13.246 3.315 12.955 3.276 12.601 3.276ZM18.2266 4.086C18.6406 4.086 18.9946 4.176 19.2886 4.356C19.5886 4.536 19.8166 4.791 19.9726 5.121C20.1346 5.445 20.2156 5.826 20.2156 6.264V6.741H16.9126C16.9246 7.287 17.0626 7.704 17.3266 7.992C17.5966 8.274 17.9716 8.415 18.4516 8.415C18.7576 8.415 19.0276 8.388 19.2616 8.334C19.5016 8.274 19.7476 8.19 19.9996 8.082V8.775C19.7536 8.883 19.5106 8.961 19.2706 9.009C19.0306 9.063 18.7456 9.09 18.4156 9.09C17.9596 9.09 17.5546 8.997 17.2006 8.811C16.8526 8.625 16.5796 8.349 16.3816 7.983C16.1896 7.611 16.0936 7.158 16.0936 6.624C16.0936 6.096 16.1806 5.643 16.3546 5.265C16.5346 4.887 16.7836 4.596 17.1016 4.392C17.4256 4.188 17.8006 4.086 18.2266 4.086ZM18.2176 4.734C17.8396 4.734 17.5396 4.857 17.3176 5.103C17.1016 5.343 16.9726 5.679 16.9306 6.111H19.3876C19.3876 5.835 19.3456 5.595 19.2616 5.391C19.1776 5.187 19.0486 5.028 18.8746 4.914C18.7066 4.794 18.4876 4.734 18.2176 4.734ZM24.5847 7.668C24.5847 7.98 24.5067 8.241 24.3507 8.451C24.1947 8.661 23.9727 8.82 23.6847 8.928C23.3967 9.036 23.0547 9.09 22.6587 9.09C22.3227 9.09 22.0317 9.063 21.7857 9.009C21.5457 8.955 21.3327 8.88 21.1467 8.784V8.064C21.3387 8.16 21.5697 8.25 21.8397 8.334C22.1157 8.412 22.3947 8.451 22.6767 8.451C23.0787 8.451 23.3697 8.388 23.5497 8.262C23.7297 8.13 23.8197 7.956 23.8197 7.74C23.8197 7.62 23.7867 7.512 23.7207 7.416C23.6547 7.32 23.5347 7.224 23.3607 7.128C23.1927 7.032 22.9497 6.924 22.6317 6.804C22.3197 6.684 22.0527 6.564 21.8307 6.444C21.6087 6.324 21.4377 6.18 21.3177 6.012C21.1977 5.844 21.1377 5.628 21.1377 5.364C21.1377 4.956 21.3027 4.641 21.6327 4.419C21.9687 4.197 22.4067 4.086 22.9467 4.086C23.2407 4.086 23.5137 4.116 23.7657 4.176C24.0237 4.23 24.2637 4.308 24.4857 4.41L24.2157 5.04C24.0837 4.98 23.9427 4.929 23.7927 4.887C23.6487 4.839 23.5017 4.803 23.3517 4.779C23.2017 4.749 23.0487 4.734 22.8927 4.734C22.5687 4.734 22.3197 4.788 22.1457 4.896C21.9777 4.998 21.8937 5.139 21.8937 5.319C21.8937 5.451 21.9327 5.565 22.0107 5.661C22.0887 5.751 22.2177 5.841 22.3977 5.931C22.5837 6.015 22.8297 6.117 23.1357 6.237C23.4417 6.351 23.7027 6.468 23.9187 6.588C24.1347 6.708 24.2997 6.855 24.4137 7.029C24.5277 7.197 24.5847 7.41 24.5847 7.668ZM27.3614 8.442C27.4814 8.442 27.6044 8.433 27.7304 8.415C27.8564 8.391 27.9584 8.367 28.0364 8.343V8.946C27.9524 8.988 27.8324 9.021 27.6764 9.045C27.5204 9.075 27.3704 9.09 27.2264 9.09C26.9744 9.09 26.7404 9.048 26.5244 8.964C26.3144 8.874 26.1434 8.721 26.0114 8.505C25.8794 8.289 25.8134 7.986 25.8134 7.596V4.788H25.1294V4.41L25.8224 4.095L26.1374 3.069H26.6054V4.176H28.0004V4.788H26.6054V7.578C26.6054 7.872 26.6744 8.091 26.8124 8.235C26.9564 8.373 27.1394 8.442 27.3614 8.442ZM33.1423 9L32.3683 7.011H29.8213L29.0563 9H28.2373L30.7483 2.547H31.4773L33.9793 9H33.1423ZM31.4053 4.347C31.3873 4.299 31.3573 4.212 31.3153 4.086C31.2733 3.96 31.2313 3.831 31.1893 3.699C31.1533 3.561 31.1233 3.456 31.0993 3.384C31.0693 3.504 31.0363 3.627 31.0003 3.753C30.9703 3.873 30.9373 3.984 30.9013 4.086C30.8713 4.188 30.8443 4.275 30.8203 4.347L30.0913 6.291H32.1253L31.4053 4.347ZM36.5594 2.574C37.3994 2.574 38.0114 2.739 38.3954 3.069C38.7794 3.399 38.9714 3.864 38.9714 4.464C38.9714 4.728 38.9264 4.983 38.8364 5.229C38.7524 5.469 38.6114 5.685 38.4134 5.877C38.2154 6.069 37.9514 6.222 37.6214 6.336C37.2914 6.444 36.8864 6.498 36.4064 6.498H35.6684V9H34.8584V2.574H36.5594ZM36.4874 3.267H35.6684V5.805H36.3164C36.7244 5.805 37.0634 5.763 37.3334 5.679C37.6034 5.589 37.8044 5.448 37.9364 5.256C38.0684 5.064 38.1344 4.812 38.1344 4.5C38.1344 4.086 38.0024 3.777 37.7384 3.573C37.4744 3.369 37.0574 3.267 36.4874 3.267ZM40.1996 9V2.61H41.0096V9H40.1996Z" fill="white"/>
<path d="M2 7L4.5 3L4 5.5H6L3.5 9.5L4 7H2Z" fill="black"/>
</svg>
