<svg width="21" height="21" viewBox="0 0 21 21" fill="none" xmlns="http://www.w3.org/2000/svg">
<g id="Group 2608693">
<path id="Vector" d="M5.00614 1.34114C5.00614 1.05181 4.96998 0.84686 5.01819 0.653969C5.05434 0.509302 5.21101 0.400801 5.30743 0.268188C5.41589 0.388745 5.57256 0.497246 5.60871 0.641914C5.65692 0.822749 5.62076 1.03975 5.62076 1.29292C7.0549 1.29292 8.46492 1.29292 9.92316 1.29292C9.93521 1.08797 9.91111 0.858916 9.95931 0.653969C10.0075 0.509302 10.1642 0.388745 10.2727 0.268188C10.3811 0.388745 10.5378 0.497246 10.5739 0.641914C10.6221 0.822749 10.586 1.03975 10.586 1.28086C12.0322 1.28086 13.4422 1.28086 14.8884 1.28086C14.9004 1.07592 14.8643 0.870971 14.9245 0.690136C14.9848 0.533413 15.1415 0.400801 15.2499 0.268188C15.3584 0.412856 15.503 0.545469 15.5512 0.714248C15.6115 0.870971 15.5753 1.06386 15.5874 1.29292C15.7561 1.30498 15.9128 1.34114 16.0574 1.34114C16.7443 1.34114 17.4192 1.32909 18.1061 1.34114C19.1908 1.36525 19.9982 2.14887 20.0705 3.23388C20.0826 3.35444 20.0705 3.47499 20.0705 3.59555C20.0705 8.63481 20.0705 13.6741 20.0705 18.7133C20.0705 18.9906 20.0344 19.28 19.9621 19.5452C19.7451 20.3409 19.0703 20.8593 18.2508 20.9075C18.07 20.9195 17.8892 20.9195 17.7084 20.9195C12.7553 20.9195 7.79004 20.9195 2.83686 20.9195C2.65609 20.9195 2.47532 20.9195 2.29454 20.9075C1.39068 20.8472 0.667589 20.1962 0.535022 19.3041C0.498868 19.0509 0.486816 18.7857 0.486816 18.5205C0.486816 13.6017 0.486816 8.68304 0.486816 3.76433C0.486816 3.54733 0.486816 3.31827 0.510919 3.10127C0.619383 2.08859 1.39068 1.37731 2.40301 1.34114C3.04174 1.31703 3.69252 1.34114 4.33125 1.34114C4.52408 1.34114 4.72895 1.34114 5.00614 1.34114ZM1.14965 5.82585C1.14965 6.0549 1.14965 6.23574 1.14965 6.40452C1.14965 10.5034 1.17375 14.6024 1.1376 18.7013C1.12555 19.6899 1.76428 20.2926 2.7284 20.2806C7.76594 20.2444 12.8035 20.2685 17.8531 20.2685C18.9739 20.2685 19.4559 19.7863 19.4559 18.6531C19.4559 14.5541 19.4559 10.4552 19.4559 6.3563C19.4559 6.18752 19.4318 6.00668 19.4198 5.81379C13.3217 5.82585 7.27182 5.82585 1.14965 5.82585ZM5.00614 1.98009C4.05407 1.98009 3.19841 1.95598 2.34275 1.99215C1.77633 2.01626 1.23401 2.47437 1.19786 2.98071C1.1376 3.692 1.1858 4.40328 1.1858 5.13867C7.28387 5.13867 13.3337 5.13867 19.4198 5.13867C19.4198 4.42739 19.468 3.75227 19.4077 3.07716C19.3475 2.47437 18.9256 2.06448 18.3351 2.01626C17.4433 1.95598 16.5515 2.0042 15.6235 2.0042C15.6115 2.26943 15.6235 2.49849 15.5753 2.70343C15.5392 2.83604 15.3946 2.93249 15.2981 3.04099C15.1776 2.93249 14.9969 2.83604 14.9607 2.70343C14.8884 2.48643 14.9245 2.24532 14.9004 2.01626C13.4422 2.01626 12.0563 2.01626 10.6342 2.01626C10.6221 2.28148 10.6463 2.49849 10.586 2.70343C10.5498 2.82399 10.4052 2.92043 10.3088 3.02893C10.2003 2.92043 10.0196 2.82399 9.98342 2.69138C9.92316 2.47437 9.97136 2.23326 9.97136 2.0042C8.47698 2.0042 7.079 2.0042 5.63282 2.0042C5.63282 2.25737 5.63282 2.47437 5.63282 2.69138C5.63282 2.90838 5.52435 3.0651 5.30743 3.00482C5.18691 2.98071 5.05434 2.81193 5.03024 2.69138C4.96998 2.49849 5.00614 2.28148 5.00614 1.98009Z" fill="white"/>
<path id="Vector_2" d="M16.5995 7.92384C16.9128 7.92384 17.2382 7.88767 17.5516 7.93589C17.6841 7.96 17.7926 8.12878 17.9131 8.23728C17.7926 8.34578 17.6841 8.55073 17.5516 8.55073C16.8767 8.5869 16.1898 8.5869 15.5149 8.55073C15.3823 8.55073 15.2738 8.34578 15.1533 8.23728C15.2738 8.12878 15.3823 7.94795 15.5149 7.93589C15.8764 7.88767 16.238 7.91178 16.5995 7.92384Z" fill="white"/>
<path id="Vector_3" d="M10.2844 8.5627C9.94692 8.5627 9.59743 8.59887 9.27203 8.55065C9.13947 8.52654 9.01895 8.3457 8.89844 8.2372C9.01895 8.1287 9.13947 7.93581 9.25998 7.93581C9.93487 7.9117 10.6098 7.9117 11.2846 7.93581C11.4052 7.93581 11.5257 8.1287 11.6462 8.2372C11.5257 8.3457 11.4172 8.53859 11.2967 8.55065C10.9592 8.59887 10.6218 8.5627 10.2844 8.5627Z" fill="white"/>
<path id="Vector_4" d="M10.2726 10.829C10.598 10.829 10.9113 10.829 11.2367 10.829C11.4536 10.829 11.6826 10.8772 11.6344 11.1425C11.6103 11.263 11.4054 11.4439 11.2729 11.4439C10.61 11.48 9.9472 11.4559 9.28437 11.4559C9.05539 11.4559 8.86256 11.3354 8.91077 11.0942C8.93487 10.9737 9.1518 10.8531 9.29642 10.829C9.62181 10.8049 9.9472 10.829 10.2726 10.829Z" fill="white"/>
<path id="Vector_5" d="M16.5514 11.468C16.2501 11.468 15.9488 11.468 15.6596 11.468C15.4186 11.468 15.1775 11.4318 15.1655 11.1545C15.1534 10.8652 15.3945 10.829 15.6355 10.829C16.2381 10.829 16.8286 10.829 17.4312 10.829C17.6481 10.829 17.9132 10.817 17.9132 11.1304C17.9132 11.468 17.636 11.468 17.395 11.468C17.1178 11.468 16.8286 11.468 16.5514 11.468Z" fill="white"/>
<path id="Vector_6" d="M4.06652 13.7345C4.37986 13.7345 4.70525 13.7104 5.01859 13.7466C5.15116 13.7707 5.25962 13.9394 5.38014 14.0359C5.25962 14.1444 5.15116 14.3373 5.03064 14.3493C4.35576 14.3855 3.68087 14.3855 2.99393 14.3493C2.86137 14.3493 2.65649 14.1685 2.63239 14.0479C2.59623 13.7948 2.81316 13.7345 3.03009 13.7345C3.39164 13.7345 3.72908 13.7345 4.06652 13.7345Z" fill="white"/>
<path id="Vector_7" d="M10.3208 14.3611C9.98337 14.3611 9.64593 14.3611 9.30849 14.3611C9.07951 14.3611 8.88668 14.2526 8.92284 14.0115C8.94694 13.903 9.16387 13.7463 9.29644 13.7342C9.94722 13.7101 10.6101 13.7101 11.2608 13.7342C11.3934 13.7342 11.5983 13.8909 11.6344 13.9994C11.6947 14.2526 11.4898 14.349 11.2729 14.349C10.9475 14.3732 10.6342 14.3611 10.3208 14.3611Z" fill="white"/>
<path id="Vector_8" d="M4.0303 16.6277C4.36774 16.6277 4.71724 16.6036 5.04263 16.6398C5.1752 16.6519 5.27161 16.8447 5.39212 16.9532C5.27161 17.0497 5.15109 17.2426 5.03058 17.2426C4.35569 17.2667 3.66876 17.2667 2.99387 17.2426C2.87335 17.2426 2.75284 17.0376 2.63232 16.9291C2.75284 16.8327 2.87335 16.6639 3.00592 16.6398C3.34336 16.6036 3.69286 16.6277 4.0303 16.6277Z" fill="white"/>
<path id="Vector_9" d="M4.0303 10.829C4.34364 10.829 4.66903 10.829 4.98237 10.829C5.1993 10.829 5.41623 10.8892 5.36802 11.1424C5.34392 11.263 5.13904 11.4317 5.01853 11.4438C4.34364 11.48 3.66876 11.48 2.99387 11.4438C2.87335 11.4438 2.75284 11.2389 2.63232 11.1304C2.75284 11.0339 2.87335 10.8651 3.00592 10.8531C3.34336 10.8049 3.69286 10.829 4.0303 10.829Z" fill="white"/>
<path id="Vector_10" d="M16.5392 14.3615C16.2018 14.3615 15.8523 14.3977 15.5269 14.3494C15.3944 14.3253 15.2738 14.1445 15.1533 14.036C15.2738 13.9275 15.3944 13.7467 15.5149 13.7467C16.1898 13.7225 16.8646 13.7225 17.5516 13.7467C17.6721 13.7467 17.7926 13.9395 17.9131 14.036C17.7926 14.1445 17.6841 14.3253 17.5516 14.3494C17.2262 14.3977 16.8767 14.3615 16.5392 14.3615Z" fill="white"/>
<path id="Vector_11" d="M10.2481 17.255C9.93477 17.255 9.60938 17.255 9.29604 17.255C9.06706 17.255 8.87424 17.1344 8.9345 16.9054C8.9586 16.7848 9.17553 16.6522 9.30809 16.6402C9.97093 16.616 10.6217 16.616 11.2845 16.6402C11.4171 16.6402 11.622 16.7969 11.6461 16.9174C11.7063 17.1706 11.5015 17.255 11.2725 17.255C10.923 17.255 10.5856 17.255 10.2481 17.255Z" fill="white"/>
</g>
</svg>
