<svg width="22" height="22" viewBox="0 0 22 22" fill="none" xmlns="http://www.w3.org/2000/svg">
<g id="Frame" clip-path="url(#clip0_341_1153)">
<g id="Group">
<path id="Vector" d="M21.8666 11.0325C21.8709 16.9264 17.0452 21.817 11.0564 21.8086C5.08437 21.8001 0.271367 16.9096 0.279796 10.9946C0.288225 5.08798 5.11387 0.210085 11.0943 0.218517C17.0579 0.226949 21.8877 5.11327 21.8666 11.0325ZM6.50888 5.7794C6.44988 5.74988 6.40773 5.7288 6.36137 5.71194C5.84298 5.48428 5.31195 5.27348 4.80199 5.02473C4.43533 4.84766 4.08974 4.62843 3.73993 4.42185C3.63878 4.35861 3.56292 4.35861 3.48706 4.45558C3.41963 4.54411 3.34376 4.62843 3.27212 4.71697C2.60622 5.53487 2.09205 6.43709 1.70852 7.42363C1.32922 8.40174 1.12692 9.41357 1.05106 10.4549C1.03841 10.6067 1.05949 10.632 1.22807 10.632C2.58936 10.632 3.95066 10.632 5.31195 10.6362C5.4426 10.6362 5.49739 10.594 5.50161 10.4549C5.51846 10.1176 5.54375 9.78458 5.57747 9.4473C5.69126 8.30898 5.9652 7.20861 6.3698 6.14197C6.42459 6.02392 6.46252 5.90588 6.50888 5.7794ZM21.0827 10.632C21.0912 10.5519 21.0996 10.5097 21.0954 10.4718C21.0406 9.75085 20.9395 9.03835 20.7414 8.3385C20.341 6.90928 19.6582 5.63184 18.7015 4.50195C18.5625 4.33753 18.554 4.33753 18.3728 4.44715C17.5847 4.94042 16.7586 5.35358 15.8862 5.674C15.8104 5.70351 15.7345 5.73724 15.646 5.77096C15.7682 6.11667 15.8904 6.4413 15.9958 6.77437C16.274 7.63864 16.4763 8.51978 16.5605 9.42622C16.5943 9.76771 16.6196 10.1092 16.6406 10.4549C16.6491 10.5772 16.687 10.6404 16.8134 10.632C16.8471 10.6278 16.8851 10.632 16.9188 10.632C18.2253 10.632 19.5318 10.632 20.8341 10.632C20.9099 10.632 20.9858 10.632 21.0827 10.632ZM6.39087 15.9315C6.35716 15.8303 6.33187 15.7502 6.30237 15.6701C5.83455 14.3673 5.56904 13.0225 5.51003 11.6354C5.50161 11.3909 5.50582 11.3909 5.25716 11.3909C3.93801 11.3909 2.61465 11.3909 1.2955 11.3909C1.21964 11.3909 1.14799 11.3993 1.05106 11.4077C1.16485 13.6886 1.93611 15.6912 3.39012 17.4577C4.33418 16.8295 5.3246 16.3236 6.39087 15.9315ZM18.7605 17.4619C18.8701 17.3228 18.9628 17.2089 19.0513 17.0951C19.8226 16.0833 20.3831 14.966 20.7287 13.7434C20.9268 13.0393 21.0364 12.3184 21.0954 11.589C21.108 11.4246 21.0912 11.3993 20.9057 11.3993C19.5487 11.3993 18.1958 11.3993 16.8387 11.3993C16.6575 11.3993 16.6533 11.4119 16.6406 11.589C16.6153 11.9474 16.5943 12.3015 16.5563 12.6599C16.4341 13.7097 16.1981 14.7341 15.8272 15.7249C15.8019 15.7881 15.7893 15.8556 15.764 15.9399C16.8345 16.3236 17.8207 16.8379 18.7605 17.4619ZM14.9253 6.01549C14.8115 6.04079 14.7399 6.05343 14.6724 6.0703C14.1456 6.17991 13.6188 6.31061 13.0836 6.39493C12.62 6.4666 12.1479 6.48768 11.6843 6.53827C11.4567 6.56357 11.4567 6.56778 11.4567 6.79123C11.4567 7.99279 11.4567 9.19434 11.4567 10.3959C11.4567 10.6362 11.461 10.6362 11.7096 10.6362C12.6663 10.6362 13.6188 10.6362 14.5755 10.6362C14.9422 10.6362 15.3046 10.6362 15.6713 10.6362C15.8736 10.6362 15.8862 10.6236 15.8778 10.417C15.8651 10.1429 15.8525 9.8689 15.823 9.59907C15.7387 8.83177 15.5954 8.07289 15.3678 7.33088C15.233 6.89241 15.077 6.4666 14.9253 6.01549ZM7.2675 6.01971C7.23799 6.06187 7.22114 6.07451 7.21271 6.09559C7.18742 6.15462 7.16635 6.21364 7.14106 6.27267C6.71961 7.34352 6.44988 8.45233 6.32344 9.59486C6.28972 9.88155 6.28551 10.1682 6.26865 10.4549C6.26022 10.5772 6.30658 10.6404 6.43723 10.632C6.47095 10.6278 6.50888 10.632 6.5426 10.632C7.83646 10.632 9.12611 10.632 10.42 10.632C10.6939 10.632 10.6939 10.632 10.6939 10.3495C10.6939 9.22385 10.6981 8.1024 10.6939 6.97673C10.6897 6.48346 10.7866 6.5467 10.2556 6.51719C9.37055 6.46238 8.49814 6.32747 7.63838 6.11246C7.52037 6.07873 7.39815 6.04922 7.2675 6.01971ZM15.0517 15.6827C15.1824 15.2654 15.3215 14.8733 15.4311 14.477C15.6881 13.5494 15.8441 12.6009 15.8778 11.6354C15.8862 11.4035 15.8736 11.3951 15.646 11.3951C14.3268 11.3951 13.0035 11.3951 11.6843 11.3951C11.4567 11.3951 11.4525 11.3993 11.4525 11.6354C11.4525 12.2973 11.4525 12.955 11.4525 13.6169C11.4525 14.0385 11.4525 14.4601 11.4525 14.8817C11.4525 15.0967 11.4778 15.1178 11.6928 15.1347C11.7223 15.1389 11.7475 15.1389 11.777 15.1389C12.6663 15.1642 13.5345 15.3033 14.3943 15.5183C14.6008 15.5731 14.8073 15.6237 15.0517 15.6827ZM7.08627 15.6785C7.20006 15.6574 7.2675 15.6448 7.33493 15.6279C7.57094 15.5689 7.80696 15.493 8.04719 15.4466C8.83109 15.2864 9.61921 15.1515 10.4242 15.1389C10.6728 15.1347 10.6939 15.1051 10.6939 14.8522C10.6939 13.7855 10.6939 12.7147 10.6939 11.648C10.6939 11.3993 10.6939 11.3993 10.4495 11.3993C9.13454 11.3993 7.82381 11.3993 6.50888 11.3993C6.26865 11.3993 6.26022 11.4035 6.26865 11.6523C6.29815 12.5039 6.42037 13.3429 6.63532 14.1692C6.77018 14.6625 6.93033 15.16 7.08627 15.6785ZM6.68589 16.6355C5.69969 16.9897 4.78935 17.445 3.90851 18.031C5.52689 19.6458 7.43608 20.6154 9.68664 20.9316C8.42649 19.6879 7.42343 18.2629 6.68589 16.6355ZM12.464 20.9316C14.7104 20.6112 16.6238 19.6458 18.2379 18.031C17.3571 17.445 16.451 16.9897 15.4606 16.6355C14.723 18.2629 13.7242 19.6879 12.464 20.9316ZM10.6813 15.8851C9.55599 15.9146 8.4855 16.0833 7.41501 16.4037C8.20312 18.0985 9.26519 19.5488 10.6813 20.7883C10.6813 19.1272 10.6813 17.5167 10.6813 15.8851ZM11.4694 20.7883C12.8855 19.5404 13.956 18.0901 14.7357 16.3995C13.6525 16.0875 12.582 15.9062 11.4694 15.8893C11.4694 17.5125 11.4694 19.123 11.4694 20.7883ZM4.1361 3.77259C4.99586 4.32067 5.8767 4.74226 6.8334 5.07111C7.55408 3.57444 8.51921 2.26327 9.68664 1.09544C7.54987 1.39056 5.71655 2.28435 4.1361 3.77259ZM12.4682 1.09966C13.6399 2.26748 14.5966 3.58287 15.3088 5.05846C15.9115 4.91934 17.6858 4.07614 17.9851 3.75151C16.4299 2.28435 14.5966 1.39056 12.4682 1.09966ZM10.6939 1.24722C9.48434 2.20003 8.02611 4.18997 7.59623 5.29877C7.65945 5.31985 7.72267 5.34937 7.7901 5.36201C8.35906 5.47163 8.93224 5.59389 9.50541 5.68664C9.83836 5.74145 10.1755 5.74988 10.5085 5.77518C10.6644 5.78783 10.6855 5.76253 10.6939 5.59811C10.6939 5.56438 10.6939 5.52644 10.6939 5.49271C10.6939 4.15624 10.6939 2.82399 10.6939 1.48753C10.6939 1.42429 10.6939 1.35683 10.6939 1.24722ZM14.5881 5.30721C13.7916 3.73464 12.7885 2.39396 11.482 1.25565C11.4652 1.31046 11.4567 1.3231 11.4567 1.33575C11.4567 2.76075 11.4525 4.18576 11.4567 5.61497C11.4567 5.77096 11.4862 5.80048 11.6506 5.7794C12.3334 5.69929 13.0161 5.61919 13.6947 5.518C13.9813 5.47584 14.2636 5.38309 14.5881 5.30721Z" fill="white"/>
</g>
</g>
<defs>
<clipPath id="clip0_341_1153">
<rect width="21.5869" height="21.59" fill="white" transform="translate(0.279785 0.218506)"/>
</clipPath>
</defs>
</svg>
