<svg width="32" height="24" viewBox="0 0 32 24" fill="none" xmlns="http://www.w3.org/2000/svg">
<path d="M16.0306 23.9857C12.4189 23.9857 8.80728 23.9857 5.165 23.9857C1.8594 23.9535 0.0535629 22.0855 0.0229555 18.6072C-0.00765184 14.1628 -0.00765184 9.71827 0.0229555 5.24159C0.0535629 1.98875 1.89001 0.0241548 4.98135 0.0241548C12.3271 -0.00805159 19.6729 -0.00805159 26.988 0.0241548C30.11 0.0241548 31.9464 1.98875 31.977 5.24159C32.0077 9.75048 32.0077 14.2594 31.977 18.7683C31.9464 22.0211 30.11 23.9857 27.0187 23.9857C23.3764 24.0179 19.7035 23.9857 16.0306 23.9857ZM29.1 6.11116C28.9775 6.04674 28.8245 5.98233 28.7021 5.91792C25.825 8.30119 22.9785 10.6845 20.1014 13.0677C17.3773 15.3222 14.7451 15.3544 12.021 13.1321C9.54185 11.0709 7.06265 9.00973 4.61406 6.91631C4.18556 6.56204 3.75705 6.23998 3.08369 5.75688C3.05308 6.59425 2.99187 7.10955 2.99187 7.59265C2.99187 11.0387 2.99187 14.4526 2.99187 17.8987C2.99187 20.5074 3.35916 20.8939 5.77715 20.8939C12.2353 20.8939 18.7241 20.8939 25.1822 20.8939C29.1 20.8939 29.1 20.8939 29.1 16.8359C29.1 13.261 29.1 9.68606 29.1 6.11116ZM5.47107 3.21258C5.40986 3.34141 5.34864 3.47024 5.28743 3.63127C8.13391 6.01454 10.9804 8.43001 13.8575 10.7811C15.4491 12.1015 16.6428 12.0693 18.2343 10.7489C20.7441 8.65546 23.2539 6.56204 25.7638 4.46863C26.131 4.17877 26.4065 3.7923 26.9574 3.21258C19.5505 3.21258 12.5108 3.21258 5.47107 3.21258Z" fill="white"/>
</svg>
