<svg width="23" height="30" viewBox="0 0 23 30" fill="none" xmlns="http://www.w3.org/2000/svg">
<path d="M11.6831 0.01592C17.815 0.0907123 22.8884 5.027 22.9979 11.3096C23.0344 12.7306 22.5964 14.2639 22.0489 15.6101C20.0049 20.6586 16.72 24.9218 13.2891 29.0353C12.1576 30.3816 10.7341 30.3068 9.52966 28.8858C6.31773 25.0714 3.50729 20.9578 1.20784 16.4702C-2.77057 8.69183 3.68979 -0.432834 11.6831 0.01592ZM6.28123 11.3844C6.28123 14.4134 8.69018 16.8816 11.6101 16.8442C14.4571 16.8068 16.7565 14.3761 16.7565 11.4218C16.7565 8.35527 14.3841 5.96191 11.4641 5.99931C8.58069 5.99931 6.28123 8.43006 6.28123 11.3844Z" fill="white"/>
</svg>
