<svg width="28" height="28" viewBox="0 0 28 28" fill="none" xmlns="http://www.w3.org/2000/svg">
<path d="M12.4507 5.61411C11.8829 6.35911 11.2796 7.13958 10.6409 7.88458C9.68273 8.98434 9.43432 9.80029 10.428 10.8646C12.6282 13.2415 14.9348 15.512 17.3479 17.676C18.3416 18.5984 19.1223 18.3855 20.1514 17.4277C20.4708 17.1439 20.7192 16.8246 21.0386 16.5763C22.2806 15.5829 23.1678 15.5474 24.3389 16.6117C25.3325 17.5341 26.2907 18.492 27.2133 19.4853C28.207 20.5851 28.278 21.6139 27.3198 22.6427C25.9358 24.0972 24.5163 25.5517 22.9904 26.7934C21.4289 28.0705 19.5481 28.3189 17.6318 27.6094C16.8511 27.3255 16.1059 26.9708 15.4316 26.5096C9.82468 22.6782 4.99844 18.0308 1.2723 12.3191C-0.644003 9.37458 -0.395593 6.64291 2.01753 4.1241C3.08214 3.02434 4.14675 1.92458 5.28234 0.860297C6.4889 -0.274942 7.51802 -0.310416 8.65361 0.895775C9.96663 2.27935 11.6345 3.30815 12.4507 5.61411Z" fill="white"/>
</svg>
