<svg width="22" height="14" viewBox="0 0 22 14" fill="none" xmlns="http://www.w3.org/2000/svg">
<g id="Group 2608692">
<path id="Vector" d="M10.7865 13.302C8.18052 13.2897 6.08505 12.5361 4.14191 11.3047C2.89863 10.5181 1.78297 9.58328 0.881388 8.4137C0.601444 8.04718 0.379135 7.63535 0.156827 7.22765C-0.0490145 6.84465 0.0292052 6.46166 0.214462 6.0869C0.547925 5.40739 1.01313 4.82672 1.53596 4.29135C3.20739 2.57404 5.17524 1.32621 7.47654 0.621996C8.76099 0.226645 10.0743 0.086625 11.4081 0.197817C12.9107 0.325483 14.3269 0.766134 15.669 1.44564C17.2499 2.24458 18.6496 3.28238 19.8311 4.60845C20.2469 5.07381 20.6174 5.57212 20.8892 6.14043C21.0909 6.56461 21.0703 6.9682 20.8645 7.38002C20.5269 8.06365 20.0576 8.65256 19.5306 9.19205C17.8551 10.9094 15.8872 12.1531 13.5859 12.8532C12.5814 13.1538 11.5563 13.3144 10.7865 13.302ZM10.5189 12.5566C10.8071 12.5361 11.0911 12.5196 11.3793 12.499C12.6226 12.4002 13.7959 12.046 14.9198 11.5312C16.3606 10.8723 17.6451 9.98687 18.769 8.87083C19.3206 8.32722 19.8311 7.74655 20.1769 7.03821C20.284 6.82406 20.284 6.63462 20.1769 6.42047C19.8352 5.72037 19.3289 5.1397 18.7855 4.60021C17.888 3.70656 16.8753 2.96115 15.7637 2.35166C14.3393 1.56919 12.8284 1.05441 11.1982 0.934982C9.94252 0.844381 8.71159 1.00499 7.51359 1.39622C5.39754 2.08809 3.57379 3.25355 2.0341 4.85554C1.5936 5.32914 1.18603 5.82745 0.897855 6.40812C0.786701 6.6305 0.786701 6.82818 0.897855 7.05056C1.24367 7.74655 1.75004 8.32722 2.29346 8.86671C3.10447 9.66976 4.01017 10.3575 4.99821 10.9299C6.70669 11.9224 8.52221 12.5319 10.5189 12.5566Z" fill="white"/>
<path id="Vector_2" d="M10.5148 10.8599C8.17229 10.864 6.20856 8.85434 6.42675 6.3628C6.62024 4.12248 8.52222 2.58226 10.5724 2.59462C12.8861 2.60697 14.8621 4.58373 14.6522 7.08761C14.4628 9.31558 12.5773 10.8887 10.5148 10.8599ZM10.5312 3.35237C8.70336 3.37296 7.2213 4.78964 7.1719 6.6099C7.11838 8.56194 8.6169 10.1022 10.5353 10.1022C12.3714 10.1063 13.87 8.6649 13.907 6.81993C13.9441 4.88848 12.4373 3.36885 10.5312 3.35237Z" fill="white"/>
</g>
</svg>
